<?xml version="1.0" encoding="utf-8" standalone="no"?>
<!DOCTYPE svg PUBLIC "-//W3C//DTD SVG 1.1//EN"
  "http://www.w3.org/Graphics/SVG/1.1/DTD/svg11.dtd">
<svg xmlns:xlink="http://www.w3.org/1999/xlink" width="420.455312pt" height="312.2325pt" viewBox="0 0 420.455312 312.2325" xmlns="http://www.w3.org/2000/svg" version="1.1">
 <metadata>
  <rdf:RDF xmlns:dc="http://purl.org/dc/elements/1.1/" xmlns:cc="http://creativecommons.org/ns#" xmlns:rdf="http://www.w3.org/1999/02/22-rdf-syntax-ns#">
   <cc:Work>
    <dc:type rdf:resource="http://purl.org/dc/dcmitype/StillImage"/>
    <dc:date>2025-09-25T12:02:54.836230</dc:date>
    <dc:format>image/svg+xml</dc:format>
    <dc:creator>
     <cc:Agent>
      <dc:title>Matplotlib v3.6.2, https://matplotlib.org/</dc:title>
     </cc:Agent>
    </dc:creator>
   </cc:Work>
  </rdf:RDF>
 </metadata>
 <defs>
  <style type="text/css">*{stroke-linejoin: round; stroke-linecap: butt}</style>
 </defs>
 <g id="figure_1">
  <g id="patch_1">
   <path d="M 0 312.2325 
L 420.455312 312.2325 
L 420.455312 0 
L 0 0 
z
" style="fill: #ffffff"/>
  </g>
  <g id="axes_1">
   <g id="patch_2">
    <path d="M 43.945313 280.9 
L 413.255312 280.9 
L 413.255312 7.2 
L 43.945313 7.2 
z
" style="fill: #ffffff"/>
   </g>
   <g id="matplotlib.axis_1">
    <g id="xtick_1">
     <g id="line2d_1">
      <path d="M 71.923343 280.9 
L 71.923343 7.2 
" clip-path="url(#pf5fde5fb5e)" style="fill: none; stroke: #cccccc; stroke-linecap: round"/>
     </g>
     <g id="text_1">
      <!-- 1 -->
      <g style="fill: #262626" transform="translate(67.474593 301.8525) scale(0.16 -0.16)">
       <defs>
        <path id="ArialMT-31" d="M 2384 0 
L 1822 0 
L 1822 3584 
Q 1619 3391 1289 3197 
Q 959 3003 697 2906 
L 697 3450 
Q 1169 3672 1522 3987 
Q 1875 4303 2022 4600 
L 2384 4600 
L 2384 0 
z
" transform="scale(0.015625)"/>
       </defs>
       <use xlink:href="#ArialMT-31"/>
      </g>
     </g>
    </g>
    <g id="xtick_2">
     <g id="line2d_2">
      <path d="M 116.688191 280.9 
L 116.688191 7.2 
" clip-path="url(#pf5fde5fb5e)" style="fill: none; stroke: #cccccc; stroke-linecap: round"/>
     </g>
     <g id="text_2">
      <!-- 2 -->
      <g style="fill: #262626" transform="translate(112.239441 301.8525) scale(0.16 -0.16)">
       <defs>
        <path id="ArialMT-32" d="M 3222 541 
L 3222 0 
L 194 0 
Q 188 203 259 391 
Q 375 700 629 1000 
Q 884 1300 1366 1694 
Q 2113 2306 2375 2664 
Q 2638 3022 2638 3341 
Q 2638 3675 2398 3904 
Q 2159 4134 1775 4134 
Q 1369 4134 1125 3890 
Q 881 3647 878 3216 
L 300 3275 
Q 359 3922 746 4261 
Q 1134 4600 1788 4600 
Q 2447 4600 2831 4234 
Q 3216 3869 3216 3328 
Q 3216 3053 3103 2787 
Q 2991 2522 2730 2228 
Q 2469 1934 1863 1422 
Q 1356 997 1212 845 
Q 1069 694 975 541 
L 3222 541 
z
" transform="scale(0.015625)"/>
       </defs>
       <use xlink:href="#ArialMT-32"/>
      </g>
     </g>
    </g>
    <g id="xtick_3">
     <g id="line2d_3">
      <path d="M 161.45304 280.9 
L 161.45304 7.2 
" clip-path="url(#pf5fde5fb5e)" style="fill: none; stroke: #cccccc; stroke-linecap: round"/>
     </g>
     <g id="text_3">
      <!-- 3 -->
      <g style="fill: #262626" transform="translate(157.00429 301.8525) scale(0.16 -0.16)">
       <defs>
        <path id="ArialMT-33" d="M 269 1209 
L 831 1284 
Q 928 806 1161 595 
Q 1394 384 1728 384 
Q 2125 384 2398 659 
Q 2672 934 2672 1341 
Q 2672 1728 2419 1979 
Q 2166 2231 1775 2231 
Q 1616 2231 1378 2169 
L 1441 2663 
Q 1497 2656 1531 2656 
Q 1891 2656 2178 2843 
Q 2466 3031 2466 3422 
Q 2466 3731 2256 3934 
Q 2047 4138 1716 4138 
Q 1388 4138 1169 3931 
Q 950 3725 888 3313 
L 325 3413 
Q 428 3978 793 4289 
Q 1159 4600 1703 4600 
Q 2078 4600 2393 4439 
Q 2709 4278 2876 4000 
Q 3044 3722 3044 3409 
Q 3044 3113 2884 2869 
Q 2725 2625 2413 2481 
Q 2819 2388 3044 2092 
Q 3269 1797 3269 1353 
Q 3269 753 2831 336 
Q 2394 -81 1725 -81 
Q 1122 -81 723 278 
Q 325 638 269 1209 
z
" transform="scale(0.015625)"/>
       </defs>
       <use xlink:href="#ArialMT-33"/>
      </g>
     </g>
    </g>
    <g id="xtick_4">
     <g id="line2d_4">
      <path d="M 206.217888 280.9 
L 206.217888 7.2 
" clip-path="url(#pf5fde5fb5e)" style="fill: none; stroke: #cccccc; stroke-linecap: round"/>
     </g>
     <g id="text_4">
      <!-- 4 -->
      <g style="fill: #262626" transform="translate(201.769138 301.8525) scale(0.16 -0.16)">
       <defs>
        <path id="ArialMT-34" d="M 2069 0 
L 2069 1097 
L 81 1097 
L 81 1613 
L 2172 4581 
L 2631 4581 
L 2631 1613 
L 3250 1613 
L 3250 1097 
L 2631 1097 
L 2631 0 
L 2069 0 
z
M 2069 1613 
L 2069 3678 
L 634 1613 
L 2069 1613 
z
" transform="scale(0.015625)"/>
       </defs>
       <use xlink:href="#ArialMT-34"/>
      </g>
     </g>
    </g>
    <g id="xtick_5">
     <g id="line2d_5">
      <path d="M 250.982737 280.9 
L 250.982737 7.2 
" clip-path="url(#pf5fde5fb5e)" style="fill: none; stroke: #cccccc; stroke-linecap: round"/>
     </g>
     <g id="text_5">
      <!-- 5 -->
      <g style="fill: #262626" transform="translate(246.533987 301.8525) scale(0.16 -0.16)">
       <defs>
        <path id="ArialMT-35" d="M 266 1200 
L 856 1250 
Q 922 819 1161 601 
Q 1400 384 1738 384 
Q 2144 384 2425 690 
Q 2706 997 2706 1503 
Q 2706 1984 2436 2262 
Q 2166 2541 1728 2541 
Q 1456 2541 1237 2417 
Q 1019 2294 894 2097 
L 366 2166 
L 809 4519 
L 3088 4519 
L 3088 3981 
L 1259 3981 
L 1013 2750 
Q 1425 3038 1878 3038 
Q 2478 3038 2890 2622 
Q 3303 2206 3303 1553 
Q 3303 931 2941 478 
Q 2500 -78 1738 -78 
Q 1113 -78 717 272 
Q 322 622 266 1200 
z
" transform="scale(0.015625)"/>
       </defs>
       <use xlink:href="#ArialMT-35"/>
      </g>
     </g>
    </g>
    <g id="xtick_6">
     <g id="line2d_6">
      <path d="M 295.747585 280.9 
L 295.747585 7.2 
" clip-path="url(#pf5fde5fb5e)" style="fill: none; stroke: #cccccc; stroke-linecap: round"/>
     </g>
     <g id="text_6">
      <!-- 6 -->
      <g style="fill: #262626" transform="translate(291.298835 301.8525) scale(0.16 -0.16)">
       <defs>
        <path id="ArialMT-36" d="M 3184 3459 
L 2625 3416 
Q 2550 3747 2413 3897 
Q 2184 4138 1850 4138 
Q 1581 4138 1378 3988 
Q 1113 3794 959 3422 
Q 806 3050 800 2363 
Q 1003 2672 1297 2822 
Q 1591 2972 1913 2972 
Q 2475 2972 2870 2558 
Q 3266 2144 3266 1488 
Q 3266 1056 3080 686 
Q 2894 316 2569 119 
Q 2244 -78 1831 -78 
Q 1128 -78 684 439 
Q 241 956 241 2144 
Q 241 3472 731 4075 
Q 1159 4600 1884 4600 
Q 2425 4600 2770 4297 
Q 3116 3994 3184 3459 
z
M 888 1484 
Q 888 1194 1011 928 
Q 1134 663 1356 523 
Q 1578 384 1822 384 
Q 2178 384 2434 671 
Q 2691 959 2691 1453 
Q 2691 1928 2437 2201 
Q 2184 2475 1800 2475 
Q 1419 2475 1153 2201 
Q 888 1928 888 1484 
z
" transform="scale(0.015625)"/>
       </defs>
       <use xlink:href="#ArialMT-36"/>
      </g>
     </g>
    </g>
    <g id="xtick_7">
     <g id="line2d_7">
      <path d="M 340.512434 280.9 
L 340.512434 7.2 
" clip-path="url(#pf5fde5fb5e)" style="fill: none; stroke: #cccccc; stroke-linecap: round"/>
     </g>
     <g id="text_7">
      <!-- 7 -->
      <g style="fill: #262626" transform="translate(336.063684 301.8525) scale(0.16 -0.16)">
       <defs>
        <path id="ArialMT-37" d="M 303 3981 
L 303 4522 
L 3269 4522 
L 3269 4084 
Q 2831 3619 2401 2847 
Q 1972 2075 1738 1259 
Q 1569 684 1522 0 
L 944 0 
Q 953 541 1156 1306 
Q 1359 2072 1739 2783 
Q 2119 3494 2547 3981 
L 303 3981 
z
" transform="scale(0.015625)"/>
       </defs>
       <use xlink:href="#ArialMT-37"/>
      </g>
     </g>
    </g>
    <g id="xtick_8">
     <g id="line2d_8">
      <path d="M 385.277282 280.9 
L 385.277282 7.2 
" clip-path="url(#pf5fde5fb5e)" style="fill: none; stroke: #cccccc; stroke-linecap: round"/>
     </g>
     <g id="text_8">
      <!-- 8 -->
      <g style="fill: #262626" transform="translate(380.828532 301.8525) scale(0.16 -0.16)">
       <defs>
        <path id="ArialMT-38" d="M 1131 2484 
Q 781 2613 612 2850 
Q 444 3088 444 3419 
Q 444 3919 803 4259 
Q 1163 4600 1759 4600 
Q 2359 4600 2725 4251 
Q 3091 3903 3091 3403 
Q 3091 3084 2923 2848 
Q 2756 2613 2416 2484 
Q 2838 2347 3058 2040 
Q 3278 1734 3278 1309 
Q 3278 722 2862 322 
Q 2447 -78 1769 -78 
Q 1091 -78 675 323 
Q 259 725 259 1325 
Q 259 1772 486 2073 
Q 713 2375 1131 2484 
z
M 1019 3438 
Q 1019 3113 1228 2906 
Q 1438 2700 1772 2700 
Q 2097 2700 2305 2904 
Q 2513 3109 2513 3406 
Q 2513 3716 2298 3927 
Q 2084 4138 1766 4138 
Q 1444 4138 1231 3931 
Q 1019 3725 1019 3438 
z
M 838 1322 
Q 838 1081 952 856 
Q 1066 631 1291 507 
Q 1516 384 1775 384 
Q 2178 384 2440 643 
Q 2703 903 2703 1303 
Q 2703 1709 2433 1975 
Q 2163 2241 1756 2241 
Q 1359 2241 1098 1978 
Q 838 1716 838 1322 
z
" transform="scale(0.015625)"/>
       </defs>
       <use xlink:href="#ArialMT-38"/>
      </g>
     </g>
    </g>
   </g>
   <g id="matplotlib.axis_2">
    <g id="ytick_1">
     <g id="line2d_9">
      <path d="M 43.945313 258.285102 
L 413.255312 258.285102 
" clip-path="url(#pf5fde5fb5e)" style="fill: none; stroke: #cccccc; stroke-linecap: round"/>
     </g>
     <g id="text_9">
      <!-- 0.05 -->
      <g style="fill: #262626" transform="translate(7.2 263.295571) scale(0.14 -0.14)">
       <defs>
        <path id="ArialMT-30" d="M 266 2259 
Q 266 3072 433 3567 
Q 600 4063 929 4331 
Q 1259 4600 1759 4600 
Q 2128 4600 2406 4451 
Q 2684 4303 2865 4023 
Q 3047 3744 3150 3342 
Q 3253 2941 3253 2259 
Q 3253 1453 3087 958 
Q 2922 463 2592 192 
Q 2263 -78 1759 -78 
Q 1097 -78 719 397 
Q 266 969 266 2259 
z
M 844 2259 
Q 844 1131 1108 757 
Q 1372 384 1759 384 
Q 2147 384 2411 759 
Q 2675 1134 2675 2259 
Q 2675 3391 2411 3762 
Q 2147 4134 1753 4134 
Q 1366 4134 1134 3806 
Q 844 3388 844 2259 
z
" transform="scale(0.015625)"/>
        <path id="ArialMT-2e" d="M 581 0 
L 581 641 
L 1222 641 
L 1222 0 
L 581 0 
z
" transform="scale(0.015625)"/>
       </defs>
       <use xlink:href="#ArialMT-30"/>
       <use xlink:href="#ArialMT-2e" x="55.615234"/>
       <use xlink:href="#ArialMT-30" x="83.398438"/>
       <use xlink:href="#ArialMT-35" x="139.013672"/>
      </g>
     </g>
    </g>
    <g id="ytick_2">
     <g id="line2d_10">
      <path d="M 43.945313 216.15334 
L 413.255312 216.15334 
" clip-path="url(#pf5fde5fb5e)" style="fill: none; stroke: #cccccc; stroke-linecap: round"/>
     </g>
     <g id="text_10">
      <!-- 0.10 -->
      <g style="fill: #262626" transform="translate(7.2 221.163809) scale(0.14 -0.14)">
       <use xlink:href="#ArialMT-30"/>
       <use xlink:href="#ArialMT-2e" x="55.615234"/>
       <use xlink:href="#ArialMT-31" x="83.398438"/>
       <use xlink:href="#ArialMT-30" x="139.013672"/>
      </g>
     </g>
    </g>
    <g id="ytick_3">
     <g id="line2d_11">
      <path d="M 43.945313 174.021579 
L 413.255312 174.021579 
" clip-path="url(#pf5fde5fb5e)" style="fill: none; stroke: #cccccc; stroke-linecap: round"/>
     </g>
     <g id="text_11">
      <!-- 0.15 -->
      <g style="fill: #262626" transform="translate(7.2 179.032048) scale(0.14 -0.14)">
       <use xlink:href="#ArialMT-30"/>
       <use xlink:href="#ArialMT-2e" x="55.615234"/>
       <use xlink:href="#ArialMT-31" x="83.398438"/>
       <use xlink:href="#ArialMT-35" x="139.013672"/>
      </g>
     </g>
    </g>
    <g id="ytick_4">
     <g id="line2d_12">
      <path d="M 43.945313 131.889817 
L 413.255312 131.889817 
" clip-path="url(#pf5fde5fb5e)" style="fill: none; stroke: #cccccc; stroke-linecap: round"/>
     </g>
     <g id="text_12">
      <!-- 0.20 -->
      <g style="fill: #262626" transform="translate(7.2 136.900286) scale(0.14 -0.14)">
       <use xlink:href="#ArialMT-30"/>
       <use xlink:href="#ArialMT-2e" x="55.615234"/>
       <use xlink:href="#ArialMT-32" x="83.398438"/>
       <use xlink:href="#ArialMT-30" x="139.013672"/>
      </g>
     </g>
    </g>
    <g id="ytick_5">
     <g id="line2d_13">
      <path d="M 43.945313 89.758056 
L 413.255312 89.758056 
" clip-path="url(#pf5fde5fb5e)" style="fill: none; stroke: #cccccc; stroke-linecap: round"/>
     </g>
     <g id="text_13">
      <!-- 0.25 -->
      <g style="fill: #262626" transform="translate(7.2 94.768524) scale(0.14 -0.14)">
       <use xlink:href="#ArialMT-30"/>
       <use xlink:href="#ArialMT-2e" x="55.615234"/>
       <use xlink:href="#ArialMT-32" x="83.398438"/>
       <use xlink:href="#ArialMT-35" x="139.013672"/>
      </g>
     </g>
    </g>
    <g id="ytick_6">
     <g id="line2d_14">
      <path d="M 43.945313 47.626294 
L 413.255312 47.626294 
" clip-path="url(#pf5fde5fb5e)" style="fill: none; stroke: #cccccc; stroke-linecap: round"/>
     </g>
     <g id="text_14">
      <!-- 0.30 -->
      <g style="fill: #262626" transform="translate(7.2 52.636763) scale(0.14 -0.14)">
       <use xlink:href="#ArialMT-30"/>
       <use xlink:href="#ArialMT-2e" x="55.615234"/>
       <use xlink:href="#ArialMT-33" x="83.398438"/>
       <use xlink:href="#ArialMT-30" x="139.013672"/>
      </g>
     </g>
    </g>
   </g>
   <g id="PolyCollection_1">
    <defs>
     <path id="m1a3a15a3f2" d="M 73.649198 -70.406278 
L 70.197488 -70.406278 
L 70.024014 -72.650574 
L 69.851499 -74.89487 
L 69.682751 -77.139166 
L 69.520623 -79.383463 
L 69.367906 -81.627759 
L 69.227212 -83.872055 
L 69.100847 -86.116351 
L 68.990677 -88.360647 
L 68.897994 -90.604943 
L 68.823383 -92.849239 
L 68.766606 -95.093535 
L 68.72651 -97.337831 
L 68.700968 -99.582127 
L 68.68686 -101.826423 
L 68.680102 -104.070719 
L 68.67573 -106.315016 
L 68.668035 -108.559312 
L 68.650741 -110.803608 
L 68.617234 -113.047904 
L 68.560819 -115.2922 
L 68.474993 -117.536496 
L 68.353734 -119.780792 
L 68.191781 -122.025088 
L 67.984908 -124.269384 
L 67.730158 -126.51368 
L 67.426063 -128.757976 
L 67.072808 -131.002273 
L 66.672358 -133.246569 
L 66.22852 -135.490865 
L 65.746952 -137.735161 
L 65.2351 -139.979457 
L 64.70206 -142.223753 
L 64.158365 -144.468049 
L 63.615696 -146.712345 
L 63.086515 -148.956641 
L 62.583641 -151.200937 
L 62.119779 -153.445233 
L 61.707025 -155.68953 
L 61.356373 -157.933826 
L 61.077252 -160.178122 
L 60.877126 -162.422418 
L 60.761184 -164.666714 
L 60.732131 -166.91101 
L 60.790104 -169.155306 
L 60.93272 -171.399602 
L 61.155233 -173.643898 
L 61.450806 -175.888194 
L 61.81087 -178.13249 
L 62.225537 -180.376786 
L 62.684042 -182.621083 
L 63.175199 -184.865379 
L 63.687821 -187.109675 
L 64.211111 -189.353971 
L 64.734982 -191.598267 
L 65.250329 -193.842563 
L 65.749219 -196.086859 
L 66.225021 -198.331155 
L 66.672473 -200.575451 
L 67.087691 -202.819747 
L 67.468128 -205.064043 
L 67.812491 -207.30834 
L 68.12062 -209.552636 
L 68.393341 -211.796932 
L 68.632291 -214.041228 
L 68.83974 -216.285524 
L 69.0184 -218.52982 
L 69.171245 -220.774116 
L 69.301347 -223.018412 
L 69.411732 -225.262708 
L 69.505272 -227.507004 
L 69.584602 -229.7513 
L 69.652081 -231.995597 
L 69.709772 -234.239893 
L 69.759458 -236.484189 
L 69.802668 -238.728485 
L 69.840711 -240.972781 
L 69.874722 -243.217077 
L 69.905692 -245.461373 
L 69.934496 -247.705669 
L 69.961921 -249.949965 
L 69.988674 -252.194261 
L 70.015397 -254.438557 
L 70.042677 -256.682853 
L 70.071053 -258.92715 
L 70.101032 -261.171446 
L 70.1331 -263.415742 
L 70.167736 -265.660038 
L 70.205416 -267.904334 
L 70.246617 -270.14863 
L 70.291803 -272.392926 
L 70.341407 -274.637222 
L 70.395796 -276.881518 
L 70.455239 -279.125814 
L 70.51986 -281.37011 
L 70.589605 -283.614407 
L 70.664209 -285.858703 
L 70.743182 -288.102999 
L 70.82581 -290.347295 
L 70.911173 -292.591591 
L 72.935512 -292.591591 
L 72.935512 -292.591591 
L 73.020876 -290.347295 
L 73.103503 -288.102999 
L 73.182477 -285.858703 
L 73.257081 -283.614407 
L 73.326825 -281.37011 
L 73.391447 -279.125814 
L 73.45089 -276.881518 
L 73.505279 -274.637222 
L 73.554882 -272.392926 
L 73.600068 -270.14863 
L 73.641269 -267.904334 
L 73.67895 -265.660038 
L 73.713586 -263.415742 
L 73.745654 -261.171446 
L 73.775633 -258.92715 
L 73.804009 -256.682853 
L 73.831288 -254.438557 
L 73.858012 -252.194261 
L 73.884765 -249.949965 
L 73.91219 -247.705669 
L 73.940994 -245.461373 
L 73.971963 -243.217077 
L 74.005974 -240.972781 
L 74.044018 -238.728485 
L 74.087228 -236.484189 
L 74.136914 -234.239893 
L 74.194605 -231.995597 
L 74.262083 -229.7513 
L 74.341414 -227.507004 
L 74.434953 -225.262708 
L 74.545339 -223.018412 
L 74.675441 -220.774116 
L 74.828286 -218.52982 
L 75.006946 -216.285524 
L 75.214395 -214.041228 
L 75.453345 -211.796932 
L 75.726065 -209.552636 
L 76.034195 -207.30834 
L 76.378558 -205.064043 
L 76.758995 -202.819747 
L 77.174213 -200.575451 
L 77.621664 -198.331155 
L 78.097466 -196.086859 
L 78.596356 -193.842563 
L 79.111703 -191.598267 
L 79.635575 -189.353971 
L 80.158864 -187.109675 
L 80.671487 -184.865379 
L 81.162644 -182.621083 
L 81.621149 -180.376786 
L 82.035815 -178.13249 
L 82.39588 -175.888194 
L 82.691453 -173.643898 
L 82.913965 -171.399602 
L 83.056581 -169.155306 
L 83.114555 -166.91101 
L 83.085502 -164.666714 
L 82.96956 -162.422418 
L 82.769434 -160.178122 
L 82.490312 -157.933826 
L 82.13966 -155.68953 
L 81.726907 -153.445233 
L 81.263045 -151.200937 
L 80.760171 -148.956641 
L 80.230989 -146.712345 
L 79.68832 -144.468049 
L 79.144626 -142.223753 
L 78.611586 -139.979457 
L 78.099734 -137.735161 
L 77.618166 -135.490865 
L 77.174327 -133.246569 
L 76.773877 -131.002273 
L 76.420623 -128.757976 
L 76.116528 -126.51368 
L 75.861778 -124.269384 
L 75.654904 -122.025088 
L 75.492952 -119.780792 
L 75.371693 -117.536496 
L 75.285866 -115.2922 
L 75.229451 -113.047904 
L 75.195945 -110.803608 
L 75.178651 -108.559312 
L 75.170955 -106.315016 
L 75.166584 -104.070719 
L 75.159826 -101.826423 
L 75.145717 -99.582127 
L 75.120176 -97.337831 
L 75.08008 -95.093535 
L 75.023302 -92.849239 
L 74.948691 -90.604943 
L 74.856008 -88.360647 
L 74.745839 -86.116351 
L 74.619474 -83.872055 
L 74.478779 -81.627759 
L 74.326062 -79.383463 
L 74.163935 -77.139166 
L 73.995187 -74.89487 
L 73.822671 -72.650574 
L 73.649198 -70.406278 
z
" style="stroke: #000000; stroke-opacity: 0.9"/>
    </defs>
    <g clip-path="url(#pf5fde5fb5e)">
     <use xlink:href="#m1a3a15a3f2" x="0" y="312.2325" style="fill: #440154; fill-opacity: 0.9; stroke: #000000; stroke-opacity: 0.9"/>
    </g>
   </g>
   <g id="PolyCollection_2">
    <defs>
     <path id="me9d2a17dd2" d="M 117.224535 -49.689702 
L 116.151847 -49.689702 
L 116.084877 -50.527783 
L 116.010668 -51.365865 
L 115.928246 -52.203946 
L 115.836689 -53.042028 
L 115.7352 -53.880109 
L 115.623171 -54.718191 
L 115.500226 -55.556272 
L 115.366229 -56.394353 
L 115.221256 -57.232435 
L 115.065536 -58.070516 
L 114.899362 -58.908598 
L 114.722987 -59.746679 
L 114.536532 -60.584761 
L 114.339902 -61.422842 
L 114.132759 -62.260924 
L 113.91453 -63.099005 
L 113.684477 -63.937087 
L 113.441822 -64.775168 
L 113.185896 -65.61325 
L 112.916319 -66.451331 
L 112.633154 -67.289413 
L 112.337037 -68.127494 
L 112.029248 -68.965576 
L 111.711702 -69.803657 
L 111.386875 -70.641738 
L 111.057657 -71.47982 
L 110.727161 -72.317901 
L 110.398501 -73.155983 
L 110.074574 -73.994064 
L 109.757876 -74.832146 
L 109.450361 -75.670227 
L 109.15337 -76.508309 
L 108.867618 -77.34639 
L 108.593255 -78.184472 
L 108.329957 -79.022553 
L 108.077067 -79.860635 
L 107.833737 -80.698716 
L 107.599076 -81.536798 
L 107.372284 -82.374879 
L 107.152774 -83.212961 
L 106.940275 -84.051042 
L 106.734924 -84.889123 
L 106.537346 -85.727205 
L 106.348725 -86.565286 
L 106.170855 -87.403368 
L 106.006171 -88.241449 
L 105.857735 -89.079531 
L 105.729177 -89.917612 
L 105.624559 -90.755694 
L 105.548187 -91.593775 
L 105.504341 -92.431857 
L 105.496979 -93.269938 
L 105.529399 -94.10802 
L 105.603928 -94.946101 
L 105.721656 -95.784183 
L 105.882247 -96.622264 
L 106.083854 -97.460346 
L 106.323157 -98.298427 
L 106.595513 -99.136508 
L 106.895202 -99.97459 
L 107.215762 -100.812671 
L 107.550357 -101.650753 
L 107.892164 -102.488834 
L 108.234736 -103.326916 
L 108.572308 -104.164997 
L 108.900045 -105.003079 
L 109.214195 -105.84116 
L 109.512163 -106.679242 
L 109.792502 -107.517323 
L 110.054842 -108.355405 
L 110.299756 -109.193486 
L 110.528608 -110.031568 
L 110.743378 -110.869649 
L 110.946496 -111.707731 
L 111.14068 -112.545812 
L 111.328805 -113.383893 
L 111.513776 -114.221975 
L 111.69842 -115.060056 
L 111.885387 -115.898138 
L 112.077039 -116.736219 
L 112.275349 -117.574301 
L 112.481785 -118.412382 
L 112.697208 -119.250464 
L 112.921784 -120.088545 
L 113.154929 -120.926627 
L 113.3953 -121.764708 
L 113.640842 -122.60279 
L 113.888894 -123.440871 
L 114.136355 -124.278953 
L 114.379887 -125.117034 
L 114.616148 -125.955115 
L 114.842018 -126.793197 
L 115.054807 -127.631278 
L 115.252415 -128.46936 
L 115.433426 -129.307441 
L 115.597143 -130.145523 
L 115.743551 -130.983604 
L 115.87323 -131.821686 
L 115.98722 -132.659767 
L 117.389163 -132.659767 
L 117.389163 -132.659767 
L 117.503153 -131.821686 
L 117.632831 -130.983604 
L 117.77924 -130.145523 
L 117.942957 -129.307441 
L 118.123968 -128.46936 
L 118.321575 -127.631278 
L 118.534365 -126.793197 
L 118.760235 -125.955115 
L 118.996495 -125.117034 
L 119.240027 -124.278953 
L 119.487488 -123.440871 
L 119.735541 -122.60279 
L 119.981083 -121.764708 
L 120.221454 -120.926627 
L 120.454599 -120.088545 
L 120.679175 -119.250464 
L 120.894598 -118.412382 
L 121.101033 -117.574301 
L 121.299343 -116.736219 
L 121.490996 -115.898138 
L 121.677962 -115.060056 
L 121.862607 -114.221975 
L 122.047577 -113.383893 
L 122.235702 -112.545812 
L 122.429887 -111.707731 
L 122.633004 -110.869649 
L 122.847775 -110.031568 
L 123.076627 -109.193486 
L 123.321541 -108.355405 
L 123.58388 -107.517323 
L 123.86422 -106.679242 
L 124.162188 -105.84116 
L 124.476338 -105.003079 
L 124.804075 -104.164997 
L 125.141647 -103.326916 
L 125.484218 -102.488834 
L 125.826026 -101.650753 
L 126.160621 -100.812671 
L 126.48118 -99.97459 
L 126.78087 -99.136508 
L 127.053225 -98.298427 
L 127.292529 -97.460346 
L 127.494136 -96.622264 
L 127.654726 -95.784183 
L 127.772454 -94.946101 
L 127.846984 -94.10802 
L 127.879403 -93.269938 
L 127.872041 -92.431857 
L 127.828196 -91.593775 
L 127.751823 -90.755694 
L 127.647206 -89.917612 
L 127.518647 -89.079531 
L 127.370212 -88.241449 
L 127.205528 -87.403368 
L 127.027658 -86.565286 
L 126.839037 -85.727205 
L 126.641459 -84.889123 
L 126.436108 -84.051042 
L 126.223609 -83.212961 
L 126.004099 -82.374879 
L 125.777307 -81.536798 
L 125.542645 -80.698716 
L 125.299316 -79.860635 
L 125.046426 -79.022553 
L 124.783128 -78.184472 
L 124.508764 -77.34639 
L 124.223013 -76.508309 
L 123.926021 -75.670227 
L 123.618507 -74.832146 
L 123.301809 -73.994064 
L 122.977882 -73.155983 
L 122.649222 -72.317901 
L 122.318726 -71.47982 
L 121.989508 -70.641738 
L 121.66468 -69.803657 
L 121.347134 -68.965576 
L 121.039345 -68.127494 
L 120.743229 -67.289413 
L 120.460064 -66.451331 
L 120.190486 -65.61325 
L 119.934561 -64.775168 
L 119.691905 -63.937087 
L 119.461853 -63.099005 
L 119.243623 -62.260924 
L 119.03648 -61.422842 
L 118.839851 -60.584761 
L 118.653395 -59.746679 
L 118.477021 -58.908598 
L 118.310846 -58.070516 
L 118.155126 -57.232435 
L 118.010154 -56.394353 
L 117.876156 -55.556272 
L 117.753211 -54.718191 
L 117.641182 -53.880109 
L 117.539693 -53.042028 
L 117.448136 -52.203946 
L 117.365715 -51.365865 
L 117.291505 -50.527783 
L 117.224535 -49.689702 
z
" style="stroke: #000000; stroke-opacity: 0.9"/>
    </defs>
    <g clip-path="url(#pf5fde5fb5e)">
     <use xlink:href="#me9d2a17dd2" x="0" y="312.2325" style="fill: #472d7b; fill-opacity: 0.9; stroke: #000000; stroke-opacity: 0.9"/>
    </g>
   </g>
   <g id="PolyCollection_3">
    <defs>
     <path id="m6d088ba2f1" d="M 162.627806 -65.444299 
L 160.278274 -65.444299 
L 160.109282 -66.245002 
L 159.917972 -67.045704 
L 159.701807 -67.846407 
L 159.458563 -68.647109 
L 159.186566 -69.447812 
L 158.884927 -70.248515 
L 158.553741 -71.049217 
L 158.194237 -71.84992 
L 157.808835 -72.650622 
L 157.401115 -73.451325 
L 156.97568 -74.252027 
L 156.537926 -75.05273 
L 156.093728 -75.853433 
L 155.64908 -76.654135 
L 155.209719 -77.454838 
L 154.780772 -78.25554 
L 154.366468 -79.056243 
L 153.969947 -79.856945 
L 153.593184 -80.657648 
L 153.237042 -81.458351 
L 152.901448 -82.259053 
L 152.58566 -83.059756 
L 152.288599 -83.860458 
L 152.0092 -84.661161 
L 151.746732 -85.461863 
L 151.501038 -86.262566 
L 151.272672 -87.063269 
L 151.062901 -87.863971 
L 150.873574 -88.664674 
L 150.706875 -89.465376 
L 150.564994 -90.266079 
L 150.449759 -91.066781 
L 150.362284 -91.867484 
L 150.302693 -92.668186 
L 150.269948 -93.468889 
L 150.261828 -94.269592 
L 150.275044 -95.070294 
L 150.305506 -95.870997 
L 150.348689 -96.671699 
L 150.40005 -97.472402 
L 150.455459 -98.273104 
L 150.511565 -99.073807 
L 150.566073 -99.87451 
L 150.617877 -100.675212 
L 150.667059 -101.475915 
L 150.714737 -102.276617 
L 150.762823 -103.07732 
L 150.813695 -103.878022 
L 150.86986 -104.678725 
L 150.933644 -105.479428 
L 151.006951 -106.28013 
L 151.091118 -107.080833 
L 151.186869 -107.881535 
L 151.294382 -108.682238 
L 151.413416 -109.48294 
L 151.543491 -110.283643 
L 151.684078 -111.084346 
L 151.834762 -111.885048 
L 151.995356 -112.685751 
L 152.165953 -113.486453 
L 152.346907 -114.287156 
L 152.538768 -115.087858 
L 152.742166 -115.888561 
L 152.957689 -116.689264 
L 153.185758 -117.489966 
L 153.426543 -118.290669 
L 153.679896 -119.091371 
L 153.945346 -119.892074 
L 154.222111 -120.692776 
L 154.509151 -121.493479 
L 154.805221 -122.294181 
L 155.108931 -123.094884 
L 155.418784 -123.895587 
L 155.7332 -124.696289 
L 156.050513 -125.496992 
L 156.368961 -126.297694 
L 156.686663 -127.098397 
L 157.001604 -127.899099 
L 157.311641 -128.699802 
L 157.614526 -129.500505 
L 157.907967 -130.301207 
L 158.18971 -131.10191 
L 158.45765 -131.902612 
L 158.70994 -132.703315 
L 158.945105 -133.504017 
L 159.162142 -134.30472 
L 159.36058 -135.105423 
L 159.540511 -135.906125 
L 159.702573 -136.706828 
L 159.847901 -137.50753 
L 159.97803 -138.308233 
L 160.094784 -139.108935 
L 160.200143 -139.909638 
L 160.296106 -140.710341 
L 160.384572 -141.511043 
L 160.467235 -142.311746 
L 160.545502 -143.112448 
L 160.620452 -143.913151 
L 160.692814 -144.713853 
L 162.213266 -144.713853 
L 162.213266 -144.713853 
L 162.285627 -143.913151 
L 162.360577 -143.112448 
L 162.438845 -142.311746 
L 162.521507 -141.511043 
L 162.609974 -140.710341 
L 162.705937 -139.909638 
L 162.811295 -139.108935 
L 162.92805 -138.308233 
L 163.058179 -137.50753 
L 163.203507 -136.706828 
L 163.365569 -135.906125 
L 163.545499 -135.105423 
L 163.743937 -134.30472 
L 163.960974 -133.504017 
L 164.19614 -132.703315 
L 164.448429 -131.902612 
L 164.716369 -131.10191 
L 164.998113 -130.301207 
L 165.291554 -129.500505 
L 165.594439 -128.699802 
L 165.904475 -127.899099 
L 166.219417 -127.098397 
L 166.537119 -126.297694 
L 166.855567 -125.496992 
L 167.17288 -124.696289 
L 167.487295 -123.895587 
L 167.797148 -123.094884 
L 168.100858 -122.294181 
L 168.396929 -121.493479 
L 168.683968 -120.692776 
L 168.960734 -119.892074 
L 169.226183 -119.091371 
L 169.479537 -118.290669 
L 169.720321 -117.489966 
L 169.948391 -116.689264 
L 170.163913 -115.888561 
L 170.367311 -115.087858 
L 170.559173 -114.287156 
L 170.740127 -113.486453 
L 170.910723 -112.685751 
L 171.071317 -111.885048 
L 171.222001 -111.084346 
L 171.362589 -110.283643 
L 171.492664 -109.48294 
L 171.611697 -108.682238 
L 171.71921 -107.881535 
L 171.814962 -107.080833 
L 171.899128 -106.28013 
L 171.972436 -105.479428 
L 172.03622 -104.678725 
L 172.092385 -103.878022 
L 172.143256 -103.07732 
L 172.191342 -102.276617 
L 172.239021 -101.475915 
L 172.288202 -100.675212 
L 172.340007 -99.87451 
L 172.394515 -99.073807 
L 172.450621 -98.273104 
L 172.506029 -97.472402 
L 172.55739 -96.671699 
L 172.600573 -95.870997 
L 172.631036 -95.070294 
L 172.644252 -94.269592 
L 172.636131 -93.468889 
L 172.603387 -92.668186 
L 172.543796 -91.867484 
L 172.456321 -91.066781 
L 172.341085 -90.266079 
L 172.199204 -89.465376 
L 172.032506 -88.664674 
L 171.843179 -87.863971 
L 171.633408 -87.063269 
L 171.405042 -86.262566 
L 171.159347 -85.461863 
L 170.896879 -84.661161 
L 170.617481 -83.860458 
L 170.32042 -83.059756 
L 170.004631 -82.259053 
L 169.669037 -81.458351 
L 169.312896 -80.657648 
L 168.936133 -79.856945 
L 168.539612 -79.056243 
L 168.125308 -78.25554 
L 167.696361 -77.454838 
L 167.257 -76.654135 
L 166.812351 -75.853433 
L 166.368153 -75.05273 
L 165.930399 -74.252027 
L 165.504965 -73.451325 
L 165.097245 -72.650622 
L 164.711843 -71.84992 
L 164.352339 -71.049217 
L 164.021153 -70.248515 
L 163.719513 -69.447812 
L 163.447516 -68.647109 
L 163.204272 -67.846407 
L 162.988108 -67.045704 
L 162.796798 -66.245002 
L 162.627806 -65.444299 
z
" style="stroke: #000000; stroke-opacity: 0.9"/>
    </defs>
    <g clip-path="url(#pf5fde5fb5e)">
     <use xlink:href="#m6d088ba2f1" x="0" y="312.2325" style="fill: #3b528b; fill-opacity: 0.9; stroke: #000000; stroke-opacity: 0.9"/>
    </g>
   </g>
   <g id="PolyCollection_4">
    <defs>
     <path id="m7bef3f862f" d="M 206.479821 -43.773409 
L 205.955955 -43.773409 
L 205.942221 -44.579106 
L 205.928124 -45.384802 
L 205.912411 -46.190498 
L 205.893611 -46.996195 
L 205.870134 -47.801891 
L 205.84039 -48.607588 
L 205.80291 -49.413284 
L 205.756448 -50.21898 
L 205.700057 -51.024677 
L 205.633115 -51.830373 
L 205.555314 -52.63607 
L 205.466595 -53.441766 
L 205.367047 -54.247463 
L 205.25677 -55.053159 
L 205.13575 -55.858855 
L 205.003731 -56.664552 
L 204.860141 -57.470248 
L 204.704066 -58.275945 
L 204.534308 -59.081641 
L 204.349501 -59.887337 
L 204.148297 -60.693034 
L 203.929595 -61.49873 
L 203.692768 -62.304427 
L 203.437869 -63.110123 
L 203.16576 -63.915819 
L 202.878145 -64.721516 
L 202.577483 -65.527212 
L 202.266774 -66.332909 
L 201.949242 -67.138605 
L 201.627958 -67.944302 
L 201.30544 -68.749998 
L 200.983307 -69.555694 
L 200.662039 -70.361391 
L 200.340898 -71.167087 
L 200.018029 -71.972784 
L 199.690755 -72.77848 
L 199.356032 -73.584176 
L 199.011016 -74.389873 
L 198.653676 -75.195569 
L 198.283365 -76.001266 
L 197.901285 -76.806962 
L 197.510792 -77.612659 
L 197.117479 -78.418355 
L 196.729064 -79.224051 
L 196.355055 -80.029748 
L 196.006258 -80.835444 
L 195.694155 -81.641141 
L 195.430206 -82.446837 
L 195.22513 -83.252533 
L 195.088211 -84.05823 
L 195.026676 -84.863926 
L 195.045176 -85.669623 
L 195.145415 -86.475319 
L 195.325945 -87.281016 
L 195.582155 -88.086712 
L 195.906467 -88.892408 
L 196.288724 -89.698105 
L 196.71676 -90.503801 
L 197.177102 -91.309498 
L 197.655757 -92.115194 
L 198.139018 -92.92089 
L 198.614219 -93.726587 
L 199.070381 -94.532283 
L 199.4987 -95.33798 
L 199.892848 -96.143676 
L 200.249083 -96.949373 
L 200.566172 -97.755069 
L 200.845149 -98.560765 
L 201.088961 -99.366462 
L 201.302017 -100.172158 
L 201.489708 -100.977855 
L 201.657907 -101.783551 
L 201.812509 -102.589247 
L 201.959018 -103.394944 
L 202.102205 -104.20064 
L 202.245864 -105.006337 
L 202.392651 -105.812033 
L 202.544033 -106.61773 
L 202.700319 -107.423426 
L 202.860788 -108.229122 
L 203.023878 -109.034819 
L 203.187429 -109.840515 
L 203.348961 -110.646212 
L 203.505958 -111.451908 
L 203.656139 -112.257604 
L 203.797695 -113.063301 
L 203.92947 -113.868997 
L 204.051077 -114.674694 
L 204.162928 -115.48039 
L 204.266181 -116.286087 
L 204.362614 -117.091783 
L 204.454427 -117.897479 
L 204.543999 -118.703176 
L 204.63363 -119.508872 
L 204.725293 -120.314569 
L 204.820425 -121.120265 
L 204.919786 -121.925961 
L 205.02339 -122.731658 
L 205.130534 -123.537354 
L 207.305243 -123.537354 
L 207.305243 -123.537354 
L 207.412386 -122.731658 
L 207.515991 -121.925961 
L 207.615351 -121.120265 
L 207.710484 -120.314569 
L 207.802147 -119.508872 
L 207.891778 -118.703176 
L 207.98135 -117.897479 
L 208.073162 -117.091783 
L 208.169596 -116.286087 
L 208.272849 -115.48039 
L 208.384699 -114.674694 
L 208.506306 -113.868997 
L 208.638082 -113.063301 
L 208.779637 -112.257604 
L 208.929818 -111.451908 
L 209.086815 -110.646212 
L 209.248347 -109.840515 
L 209.411898 -109.034819 
L 209.574988 -108.229122 
L 209.735458 -107.423426 
L 209.891744 -106.61773 
L 210.043125 -105.812033 
L 210.189912 -105.006337 
L 210.333571 -104.20064 
L 210.476758 -103.394944 
L 210.623267 -102.589247 
L 210.777869 -101.783551 
L 210.946069 -100.977855 
L 211.133759 -100.172158 
L 211.346816 -99.366462 
L 211.590627 -98.560765 
L 211.869605 -97.755069 
L 212.186693 -96.949373 
L 212.542929 -96.143676 
L 212.937077 -95.33798 
L 213.365395 -94.532283 
L 213.821558 -93.726587 
L 214.296759 -92.92089 
L 214.78002 -92.115194 
L 215.258675 -91.309498 
L 215.719016 -90.503801 
L 216.147052 -89.698105 
L 216.52931 -88.892408 
L 216.853622 -88.086712 
L 217.109832 -87.281016 
L 217.290361 -86.475319 
L 217.3906 -85.669623 
L 217.4091 -84.863926 
L 217.347565 -84.05823 
L 217.210646 -83.252533 
L 217.00557 -82.446837 
L 216.741621 -81.641141 
L 216.429519 -80.835444 
L 216.080722 -80.029748 
L 215.706713 -79.224051 
L 215.318297 -78.418355 
L 214.924985 -77.612659 
L 214.534491 -76.806962 
L 214.152412 -76.001266 
L 213.7821 -75.195569 
L 213.42476 -74.389873 
L 213.079745 -73.584176 
L 212.745022 -72.77848 
L 212.417747 -71.972784 
L 212.094879 -71.167087 
L 211.773738 -70.361391 
L 211.45247 -69.555694 
L 211.130336 -68.749998 
L 210.807818 -67.944302 
L 210.486534 -67.138605 
L 210.169003 -66.332909 
L 209.858293 -65.527212 
L 209.557631 -64.721516 
L 209.270017 -63.915819 
L 208.997907 -63.110123 
L 208.743008 -62.304427 
L 208.506181 -61.49873 
L 208.287479 -60.693034 
L 208.086276 -59.887337 
L 207.901468 -59.081641 
L 207.73171 -58.275945 
L 207.575636 -57.470248 
L 207.432045 -56.664552 
L 207.300026 -55.858855 
L 207.179006 -55.053159 
L 207.06873 -54.247463 
L 206.969181 -53.441766 
L 206.880463 -52.63607 
L 206.802662 -51.830373 
L 206.73572 -51.024677 
L 206.679328 -50.21898 
L 206.632867 -49.413284 
L 206.595387 -48.607588 
L 206.565643 -47.801891 
L 206.542165 -46.996195 
L 206.523365 -46.190498 
L 206.507653 -45.384802 
L 206.493555 -44.579106 
L 206.479821 -43.773409 
z
" style="stroke: #000000; stroke-opacity: 0.9"/>
    </defs>
    <g clip-path="url(#pf5fde5fb5e)">
     <use xlink:href="#m7bef3f862f" x="0" y="312.2325" style="fill: #2c728e; fill-opacity: 0.9; stroke: #000000; stroke-opacity: 0.9"/>
    </g>
   </g>
   <g id="PolyCollection_5">
    <defs>
     <path id="me00d229a6d" d="M 251.399134 -56.92884 
L 250.566339 -56.92884 
L 250.534277 -57.980857 
L 250.502468 -59.032873 
L 250.469557 -60.08489 
L 250.433502 -61.136907 
L 250.391563 -62.188924 
L 250.340346 -63.24094 
L 250.275911 -64.292957 
L 250.193938 -65.344974 
L 250.089957 -66.39699 
L 249.959622 -67.449007 
L 249.799012 -68.501024 
L 249.604919 -69.55304 
L 249.375122 -70.605057 
L 249.108578 -71.657074 
L 248.805535 -72.709091 
L 248.467534 -73.761107 
L 248.097299 -74.813124 
L 247.698525 -75.865141 
L 247.275596 -76.917157 
L 246.833255 -77.969174 
L 246.376286 -79.021191 
L 245.909238 -80.073207 
L 245.436227 -81.125224 
L 244.960846 -82.177241 
L 244.48619 -83.229258 
L 244.014975 -84.281274 
L 243.549744 -85.333291 
L 243.093105 -86.385308 
L 242.647979 -87.437324 
L 242.217803 -88.489341 
L 241.806657 -89.541358 
L 241.419279 -90.593374 
L 241.060973 -91.645391 
L 240.737383 -92.697408 
L 240.45417 -93.749425 
L 240.216608 -94.801441 
L 240.029151 -95.853458 
L 239.895019 -96.905475 
L 239.815857 -97.957491 
L 239.791525 -99.009508 
L 239.820049 -100.061525 
L 239.897755 -101.113541 
L 240.019578 -102.165558 
L 240.179501 -103.217575 
L 240.371082 -104.269592 
L 240.587976 -105.321608 
L 240.824403 -106.373625 
L 241.075467 -107.425642 
L 241.337321 -108.477658 
L 241.60715 -109.529675 
L 241.882997 -110.581692 
L 242.163494 -111.633708 
L 242.447558 -112.685725 
L 242.73412 -113.737742 
L 243.02194 -114.789759 
L 243.309552 -115.841775 
L 243.59532 -116.893792 
L 243.877606 -117.945809 
L 244.154971 -118.997825 
L 244.426382 -120.049842 
L 244.691352 -121.101859 
L 244.949984 -122.153875 
L 245.202901 -123.205892 
L 245.451083 -124.257909 
L 245.695626 -125.309926 
L 245.937487 -126.361942 
L 246.17726 -127.413959 
L 246.41502 -128.465976 
L 246.650273 -129.517992 
L 246.882007 -130.570009 
L 247.108843 -131.622026 
L 247.329243 -132.674042 
L 247.541746 -133.726059 
L 247.745186 -134.778076 
L 247.938854 -135.830093 
L 248.12258 -136.882109 
L 248.296725 -137.934126 
L 248.462083 -138.986143 
L 248.619727 -140.038159 
L 248.770801 -141.090176 
L 248.916327 -142.142193 
L 249.057022 -143.194209 
L 249.193187 -144.246226 
L 249.324666 -145.298243 
L 249.450876 -146.35026 
L 249.570925 -147.402276 
L 249.683765 -148.454293 
L 249.788389 -149.50631 
L 249.884007 -150.558326 
L 249.970209 -151.610343 
L 250.047054 -152.66236 
L 250.115107 -153.714376 
L 250.175397 -154.766393 
L 250.22931 -155.81841 
L 250.278445 -156.870427 
L 250.324439 -157.922443 
L 250.368795 -158.97446 
L 250.412742 -160.026477 
L 250.457125 -161.078493 
L 251.508349 -161.078493 
L 251.508349 -161.078493 
L 251.552731 -160.026477 
L 251.596678 -158.97446 
L 251.641035 -157.922443 
L 251.687028 -156.870427 
L 251.736163 -155.81841 
L 251.790076 -154.766393 
L 251.850366 -153.714376 
L 251.91842 -152.66236 
L 251.995265 -151.610343 
L 252.081466 -150.558326 
L 252.177085 -149.50631 
L 252.281708 -148.454293 
L 252.394549 -147.402276 
L 252.514597 -146.35026 
L 252.640808 -145.298243 
L 252.772286 -144.246226 
L 252.908452 -143.194209 
L 253.049147 -142.142193 
L 253.194672 -141.090176 
L 253.345747 -140.038159 
L 253.50339 -138.986143 
L 253.668749 -137.934126 
L 253.842893 -136.882109 
L 254.02662 -135.830093 
L 254.220288 -134.778076 
L 254.423728 -133.726059 
L 254.63623 -132.674042 
L 254.85663 -131.622026 
L 255.083466 -130.570009 
L 255.315201 -129.517992 
L 255.550454 -128.465976 
L 255.788214 -127.413959 
L 256.027986 -126.361942 
L 256.269847 -125.309926 
L 256.51439 -124.257909 
L 256.762572 -123.205892 
L 257.01549 -122.153875 
L 257.274121 -121.101859 
L 257.539091 -120.049842 
L 257.810502 -118.997825 
L 258.087867 -117.945809 
L 258.370153 -116.893792 
L 258.655922 -115.841775 
L 258.943533 -114.789759 
L 259.231354 -113.737742 
L 259.517916 -112.685725 
L 259.80198 -111.633708 
L 260.082477 -110.581692 
L 260.358323 -109.529675 
L 260.628152 -108.477658 
L 260.890007 -107.425642 
L 261.141071 -106.373625 
L 261.377497 -105.321608 
L 261.594392 -104.269592 
L 261.785972 -103.217575 
L 261.945895 -102.165558 
L 262.067718 -101.113541 
L 262.145425 -100.061525 
L 262.173949 -99.009508 
L 262.149617 -97.957491 
L 262.070455 -96.905475 
L 261.936322 -95.853458 
L 261.748866 -94.801441 
L 261.511304 -93.749425 
L 261.228091 -92.697408 
L 260.904501 -91.645391 
L 260.546195 -90.593374 
L 260.158817 -89.541358 
L 259.74767 -88.489341 
L 259.317495 -87.437324 
L 258.872369 -86.385308 
L 258.415729 -85.333291 
L 257.950498 -84.281274 
L 257.479284 -83.229258 
L 257.004628 -82.177241 
L 256.529247 -81.125224 
L 256.056235 -80.073207 
L 255.589187 -79.021191 
L 255.132219 -77.969174 
L 254.689878 -76.917157 
L 254.266948 -75.865141 
L 253.868174 -74.813124 
L 253.497939 -73.761107 
L 253.159938 -72.709091 
L 252.856896 -71.657074 
L 252.590351 -70.605057 
L 252.360554 -69.55304 
L 252.166462 -68.501024 
L 252.005851 -67.449007 
L 251.875517 -66.39699 
L 251.771536 -65.344974 
L 251.689562 -64.292957 
L 251.625127 -63.24094 
L 251.573911 -62.188924 
L 251.531972 -61.136907 
L 251.495917 -60.08489 
L 251.463006 -59.032873 
L 251.431197 -57.980857 
L 251.399134 -56.92884 
z
" style="stroke: #000000; stroke-opacity: 0.9"/>
    </defs>
    <g clip-path="url(#pf5fde5fb5e)">
     <use xlink:href="#me00d229a6d" x="0" y="312.2325" style="fill: #21918c; fill-opacity: 0.9; stroke: #000000; stroke-opacity: 0.9"/>
    </g>
   </g>
   <g id="PolyCollection_6">
    <defs>
     <path id="maf31c6c627" d="M 296.237285 -49.723414 
L 295.257886 -49.723414 
L 295.194101 -50.379821 
L 295.123627 -51.036228 
L 295.045583 -51.692634 
L 294.959107 -52.349041 
L 294.86341 -53.005448 
L 294.757837 -53.661855 
L 294.641909 -54.318261 
L 294.515359 -54.974668 
L 294.378143 -55.631075 
L 294.230449 -56.287482 
L 294.072696 -56.943888 
L 293.905531 -57.600295 
L 293.729829 -58.256702 
L 293.546697 -58.913108 
L 293.357477 -59.569515 
L 293.16374 -60.225922 
L 292.967275 -60.882329 
L 292.770042 -61.538735 
L 292.574094 -62.195142 
L 292.381463 -62.851549 
L 292.193998 -63.507956 
L 292.013168 -64.164362 
L 291.839845 -64.820769 
L 291.674084 -65.477176 
L 291.514937 -66.133582 
L 291.36032 -66.789989 
L 291.206978 -67.446396 
L 291.050568 -68.102803 
L 290.885867 -68.759209 
L 290.707113 -69.415616 
L 290.508453 -70.072023 
L 290.284466 -70.72843 
L 290.030703 -71.384836 
L 289.744191 -72.041243 
L 289.423844 -72.69765 
L 289.070723 -73.354056 
L 288.688127 -74.010463 
L 288.281486 -74.66687 
L 287.85808 -75.323277 
L 287.42661 -75.979683 
L 286.996663 -76.63609 
L 286.578142 -77.292497 
L 286.180706 -77.948904 
L 285.81328 -78.60531 
L 285.483665 -79.261717 
L 285.198283 -79.918124 
L 284.962049 -80.57453 
L 284.778371 -81.230937 
L 284.649234 -81.887344 
L 284.575357 -82.543751 
L 284.556373 -83.200157 
L 284.591003 -83.856564 
L 284.677211 -84.512971 
L 284.812312 -85.169378 
L 284.993055 -85.825784 
L 285.215669 -86.482191 
L 285.47591 -87.138598 
L 285.769112 -87.795004 
L 286.09026 -88.451411 
L 286.4341 -89.107818 
L 286.795283 -89.764225 
L 287.168527 -90.420631 
L 287.548797 -91.077038 
L 287.931471 -91.733445 
L 288.312494 -92.389852 
L 288.68848 -93.046258 
L 289.056783 -93.702665 
L 289.41551 -94.359072 
L 289.763492 -95.015478 
L 290.100215 -95.671885 
L 290.425712 -96.328292 
L 290.740435 -96.984699 
L 291.045109 -97.641105 
L 291.34058 -98.297512 
L 291.627654 -98.953919 
L 291.90696 -99.610326 
L 292.178819 -100.266732 
L 292.443157 -100.923139 
L 292.699449 -101.579546 
L 292.946721 -102.235952 
L 293.183603 -102.892359 
L 293.408437 -103.548766 
L 293.61943 -104.205173 
L 293.814849 -104.861579 
L 293.993215 -105.517986 
L 294.153496 -106.174393 
L 294.295259 -106.8308 
L 294.418771 -107.487206 
L 294.525024 -108.143613 
L 294.61569 -108.80002 
L 294.692998 -109.456426 
L 294.759563 -110.112833 
L 294.818164 -110.76924 
L 294.87153 -111.425647 
L 294.922128 -112.082053 
L 294.971995 -112.73846 
L 295.022619 -113.394867 
L 295.074892 -114.051274 
L 295.129114 -114.70768 
L 296.366056 -114.70768 
L 296.366056 -114.70768 
L 296.420278 -114.051274 
L 296.472551 -113.394867 
L 296.523176 -112.73846 
L 296.573042 -112.082053 
L 296.62364 -111.425647 
L 296.677007 -110.76924 
L 296.735608 -110.112833 
L 296.802172 -109.456426 
L 296.879481 -108.80002 
L 296.970147 -108.143613 
L 297.0764 -107.487206 
L 297.199912 -106.8308 
L 297.341674 -106.174393 
L 297.501955 -105.517986 
L 297.680321 -104.861579 
L 297.87574 -104.205173 
L 298.086734 -103.548766 
L 298.311567 -102.892359 
L 298.548449 -102.235952 
L 298.795721 -101.579546 
L 299.052014 -100.923139 
L 299.316352 -100.266732 
L 299.588211 -99.610326 
L 299.867516 -98.953919 
L 300.15459 -98.297512 
L 300.450061 -97.641105 
L 300.754736 -96.984699 
L 301.069459 -96.328292 
L 301.394955 -95.671885 
L 301.731678 -95.015478 
L 302.079661 -94.359072 
L 302.438388 -93.702665 
L 302.806691 -93.046258 
L 303.182677 -92.389852 
L 303.563699 -91.733445 
L 303.946374 -91.077038 
L 304.326643 -90.420631 
L 304.699887 -89.764225 
L 305.06107 -89.107818 
L 305.40491 -88.451411 
L 305.726058 -87.795004 
L 306.01926 -87.138598 
L 306.279502 -86.482191 
L 306.502116 -85.825784 
L 306.682858 -85.169378 
L 306.817959 -84.512971 
L 306.904167 -83.856564 
L 306.938797 -83.200157 
L 306.919813 -82.543751 
L 306.845936 -81.887344 
L 306.716799 -81.230937 
L 306.533121 -80.57453 
L 306.296888 -79.918124 
L 306.011506 -79.261717 
L 305.68189 -78.60531 
L 305.314464 -77.948904 
L 304.917029 -77.292497 
L 304.498508 -76.63609 
L 304.06856 -75.979683 
L 303.63709 -75.323277 
L 303.213685 -74.66687 
L 302.807044 -74.010463 
L 302.424448 -73.354056 
L 302.071327 -72.69765 
L 301.750979 -72.041243 
L 301.464468 -71.384836 
L 301.210705 -70.72843 
L 300.986718 -70.072023 
L 300.788058 -69.415616 
L 300.609303 -68.759209 
L 300.444602 -68.102803 
L 300.288192 -67.446396 
L 300.134851 -66.789989 
L 299.980233 -66.133582 
L 299.821086 -65.477176 
L 299.655326 -64.820769 
L 299.482002 -64.164362 
L 299.301172 -63.507956 
L 299.113707 -62.851549 
L 298.921076 -62.195142 
L 298.725128 -61.538735 
L 298.527895 -60.882329 
L 298.33143 -60.225922 
L 298.137694 -59.569515 
L 297.948473 -58.913108 
L 297.765341 -58.256702 
L 297.589639 -57.600295 
L 297.422474 -56.943888 
L 297.264722 -56.287482 
L 297.117028 -55.631075 
L 296.979812 -54.974668 
L 296.853261 -54.318261 
L 296.737334 -53.661855 
L 296.63176 -53.005448 
L 296.536063 -52.349041 
L 296.449587 -51.692634 
L 296.371544 -51.036228 
L 296.301069 -50.379821 
L 296.237285 -49.723414 
z
" style="stroke: #000000; stroke-opacity: 0.9"/>
    </defs>
    <g clip-path="url(#pf5fde5fb5e)">
     <use xlink:href="#maf31c6c627" x="0" y="312.2325" style="fill: #28ae80; fill-opacity: 0.9; stroke: #000000; stroke-opacity: 0.9"/>
    </g>
   </g>
   <g id="PolyCollection_7">
    <defs>
     <path id="m66fb347aa7" d="M 348.857292 -62.37375 
L 332.167576 -62.37375 
L 331.860398 -63.005659 
L 331.588953 -63.637568 
L 331.354571 -64.269476 
L 331.157694 -64.901385 
L 330.997908 -65.533293 
L 330.874011 -66.165202 
L 330.784106 -66.797111 
L 330.725717 -67.429019 
L 330.695914 -68.060928 
L 330.691444 -68.692837 
L 330.708855 -69.324745 
L 330.744615 -69.956654 
L 330.795214 -70.588562 
L 330.857247 -71.220471 
L 330.927481 -71.85238 
L 331.002902 -72.484288 
L 331.080739 -73.116197 
L 331.158482 -73.748106 
L 331.233879 -74.380014 
L 331.304934 -75.011923 
L 331.369893 -75.643831 
L 331.427231 -76.27574 
L 331.475644 -76.907649 
L 331.514038 -77.539557 
L 331.541523 -78.171466 
L 331.557415 -78.803375 
L 331.561235 -79.435283 
L 331.552708 -80.067192 
L 331.53177 -80.6991 
L 331.498564 -81.331009 
L 331.453434 -81.962918 
L 331.396918 -82.594826 
L 331.329733 -83.226735 
L 331.252751 -83.858643 
L 331.166976 -84.490552 
L 331.073516 -85.122461 
L 330.973549 -85.754369 
L 330.868294 -86.386278 
L 330.758983 -87.018187 
L 330.646833 -87.650095 
L 330.533028 -88.282004 
L 330.418709 -88.913912 
L 330.304966 -89.545821 
L 330.192835 -90.17773 
L 330.083315 -90.809638 
L 329.977369 -91.441547 
L 329.875944 -92.073456 
L 329.779982 -92.705364 
L 329.690432 -93.337273 
L 329.60826 -93.969181 
L 329.534446 -94.60109 
L 329.469982 -95.232999 
L 329.415857 -95.864907 
L 329.37304 -96.496816 
L 329.34245 -97.128725 
L 329.324932 -97.760633 
L 329.321222 -98.392542 
L 329.33192 -99.02445 
L 329.357469 -99.656359 
L 329.398133 -100.288268 
L 329.453994 -100.920176 
L 329.524953 -101.552085 
L 329.610748 -102.183994 
L 329.710976 -102.815902 
L 329.825134 -103.447811 
L 329.952657 -104.079719 
L 330.092964 -104.711628 
L 330.245507 -105.343537 
L 330.40981 -105.975445 
L 330.585502 -106.607354 
L 330.772342 -107.239263 
L 330.970222 -107.871171 
L 331.179166 -108.50308 
L 331.399303 -109.134988 
L 331.630835 -109.766897 
L 331.873985 -110.398806 
L 332.128943 -111.030714 
L 332.395805 -111.662623 
L 332.674515 -112.294532 
L 332.964808 -112.92644 
L 333.266167 -113.558349 
L 333.57779 -114.190257 
L 333.898575 -114.822166 
L 334.227123 -115.454075 
L 334.561754 -116.085983 
L 334.900546 -116.717892 
L 335.241379 -117.349801 
L 335.582001 -117.981709 
L 335.920096 -118.613618 
L 336.253348 -119.245526 
L 336.579518 -119.877435 
L 336.896506 -120.509344 
L 337.202405 -121.141252 
L 337.495553 -121.773161 
L 337.774559 -122.405069 
L 338.038329 -123.036978 
L 338.286073 -123.668887 
L 338.517295 -124.300795 
L 338.731785 -124.932704 
L 342.293083 -124.932704 
L 342.293083 -124.932704 
L 342.507573 -124.300795 
L 342.738795 -123.668887 
L 342.986538 -123.036978 
L 343.250309 -122.405069 
L 343.529315 -121.773161 
L 343.822462 -121.141252 
L 344.128362 -120.509344 
L 344.445349 -119.877435 
L 344.771519 -119.245526 
L 345.104772 -118.613618 
L 345.442866 -117.981709 
L 345.783489 -117.349801 
L 346.124322 -116.717892 
L 346.463113 -116.085983 
L 346.797744 -115.454075 
L 347.126292 -114.822166 
L 347.447078 -114.190257 
L 347.7587 -113.558349 
L 348.060059 -112.92644 
L 348.350352 -112.294532 
L 348.629062 -111.662623 
L 348.895924 -111.030714 
L 349.150882 -110.398806 
L 349.394032 -109.766897 
L 349.625564 -109.134988 
L 349.845702 -108.50308 
L 350.054646 -107.871171 
L 350.252526 -107.239263 
L 350.439365 -106.607354 
L 350.615058 -105.975445 
L 350.779361 -105.343537 
L 350.931904 -104.711628 
L 351.072211 -104.079719 
L 351.199733 -103.447811 
L 351.313891 -102.815902 
L 351.41412 -102.183994 
L 351.499914 -101.552085 
L 351.570874 -100.920176 
L 351.626735 -100.288268 
L 351.667399 -99.656359 
L 351.692947 -99.02445 
L 351.703646 -98.392542 
L 351.699935 -97.760633 
L 351.682417 -97.128725 
L 351.651827 -96.496816 
L 351.60901 -95.864907 
L 351.554886 -95.232999 
L 351.490422 -94.60109 
L 351.416608 -93.969181 
L 351.334435 -93.337273 
L 351.244886 -92.705364 
L 351.148924 -92.073456 
L 351.047498 -91.441547 
L 350.941552 -90.809638 
L 350.832032 -90.17773 
L 350.719902 -89.545821 
L 350.606158 -88.913912 
L 350.491839 -88.282004 
L 350.378035 -87.650095 
L 350.265884 -87.018187 
L 350.156573 -86.386278 
L 350.051319 -85.754369 
L 349.951352 -85.122461 
L 349.857892 -84.490552 
L 349.772117 -83.858643 
L 349.695134 -83.226735 
L 349.627949 -82.594826 
L 349.571433 -81.962918 
L 349.526303 -81.331009 
L 349.493097 -80.6991 
L 349.472159 -80.067192 
L 349.463633 -79.435283 
L 349.467452 -78.803375 
L 349.483344 -78.171466 
L 349.51083 -77.539557 
L 349.549223 -76.907649 
L 349.597637 -76.27574 
L 349.654975 -75.643831 
L 349.719933 -75.011923 
L 349.790988 -74.380014 
L 349.866386 -73.748106 
L 349.944128 -73.116197 
L 350.021965 -72.484288 
L 350.097386 -71.85238 
L 350.167621 -71.220471 
L 350.229654 -70.588562 
L 350.280253 -69.956654 
L 350.316013 -69.324745 
L 350.333424 -68.692837 
L 350.328954 -68.060928 
L 350.299151 -67.429019 
L 350.240762 -66.797111 
L 350.150856 -66.165202 
L 350.026959 -65.533293 
L 349.867173 -64.901385 
L 349.670297 -64.269476 
L 349.435915 -63.637568 
L 349.164469 -63.005659 
L 348.857292 -62.37375 
z
" style="stroke: #000000; stroke-opacity: 0.9"/>
    </defs>
    <g clip-path="url(#pf5fde5fb5e)">
     <use xlink:href="#m66fb347aa7" x="0" y="312.2325" style="fill: #5ec962; fill-opacity: 0.9; stroke: #000000; stroke-opacity: 0.9"/>
    </g>
   </g>
   <g id="PolyCollection_8">
    <defs>
     <path id="m95bd05761a" d="M 388.752282 -53.947398 
L 381.802282 -53.947398 
L 381.504185 -54.848343 
L 381.202502 -55.749288 
L 380.897553 -56.650234 
L 380.589277 -57.551179 
L 380.277308 -58.452124 
L 379.961078 -59.353069 
L 379.63995 -60.254015 
L 379.313347 -61.15496 
L 378.980897 -62.055905 
L 378.642547 -62.95685 
L 378.298675 -63.857796 
L 377.950163 -64.758741 
L 377.59845 -65.659686 
L 377.245546 -66.560631 
L 376.894029 -67.461577 
L 376.546999 -68.362522 
L 376.208015 -69.263467 
L 375.881001 -70.164412 
L 375.570122 -71.065358 
L 375.279635 -71.966303 
L 375.013724 -72.867248 
L 374.776304 -73.768193 
L 374.570821 -74.669138 
L 374.400046 -75.570084 
L 374.265886 -76.471029 
L 374.169217 -77.371974 
L 374.109771 -78.272919 
L 374.08607 -79.173865 
L 374.095444 -80.07481 
L 374.134113 -80.975755 
L 374.197354 -81.8767 
L 374.279728 -82.777646 
L 374.375362 -83.678591 
L 374.478258 -84.579536 
L 374.582611 -85.480481 
L 374.683106 -86.381427 
L 374.775183 -87.282372 
L 374.855233 -88.183317 
L 374.920736 -89.084262 
L 374.970324 -89.985207 
L 375.003768 -90.886153 
L 375.021914 -91.787098 
L 375.026562 -92.688043 
L 375.020315 -93.588988 
L 375.006406 -94.489934 
L 374.988519 -95.390879 
L 374.970616 -96.291824 
L 374.95677 -97.192769 
L 374.951016 -98.093715 
L 374.957217 -98.99466 
L 374.978947 -99.895605 
L 375.019382 -100.79655 
L 375.081217 -101.697496 
L 375.166584 -102.598441 
L 375.277 -103.499386 
L 375.41332 -104.400331 
L 375.575727 -105.301277 
L 375.763735 -106.202222 
L 375.976227 -107.103167 
L 376.211515 -108.004112 
L 376.467436 -108.905057 
L 376.741457 -109.806003 
L 377.030805 -110.706948 
L 377.3326 -111.607893 
L 377.643985 -112.508838 
L 377.962251 -113.409784 
L 378.284931 -114.310729 
L 378.609878 -115.211674 
L 378.935302 -116.112619 
L 379.259773 -117.013565 
L 379.582199 -117.91451 
L 379.901761 -118.815455 
L 380.21784 -119.7164 
L 380.529919 -120.617346 
L 380.837491 -121.518291 
L 381.139974 -122.419236 
L 381.43664 -123.320181 
L 381.726575 -124.221127 
L 382.008663 -125.122072 
L 382.281613 -126.023017 
L 382.544002 -126.923962 
L 382.794349 -127.824907 
L 383.031202 -128.725853 
L 383.253235 -129.626798 
L 383.459332 -130.527743 
L 383.648673 -131.428688 
L 383.820786 -132.329634 
L 383.975581 -133.230579 
L 384.113366 -134.131524 
L 384.234823 -135.032469 
L 384.34097 -135.933415 
L 384.433106 -136.83436 
L 384.512735 -137.735305 
L 384.581492 -138.63625 
L 384.641058 -139.537196 
L 384.693089 -140.438141 
L 384.73914 -141.339086 
L 384.780612 -142.240031 
L 384.818707 -143.140977 
L 385.735857 -143.140977 
L 385.735857 -143.140977 
L 385.773953 -142.240031 
L 385.815424 -141.339086 
L 385.861475 -140.438141 
L 385.913506 -139.537196 
L 385.973073 -138.63625 
L 386.04183 -137.735305 
L 386.121459 -136.83436 
L 386.213594 -135.933415 
L 386.319741 -135.032469 
L 386.441198 -134.131524 
L 386.578983 -133.230579 
L 386.733779 -132.329634 
L 386.905891 -131.428688 
L 387.095232 -130.527743 
L 387.30133 -129.626798 
L 387.523362 -128.725853 
L 387.760216 -127.824907 
L 388.010562 -126.923962 
L 388.272951 -126.023017 
L 388.545901 -125.122072 
L 388.82799 -124.221127 
L 389.117924 -123.320181 
L 389.41459 -122.419236 
L 389.717073 -121.518291 
L 390.024646 -120.617346 
L 390.336725 -119.7164 
L 390.652803 -118.815455 
L 390.972366 -117.91451 
L 391.294791 -117.013565 
L 391.619263 -116.112619 
L 391.944686 -115.211674 
L 392.269633 -114.310729 
L 392.592314 -113.409784 
L 392.910579 -112.508838 
L 393.221964 -111.607893 
L 393.523759 -110.706948 
L 393.813107 -109.806003 
L 394.087128 -108.905057 
L 394.343049 -108.004112 
L 394.578338 -107.103167 
L 394.790829 -106.202222 
L 394.978837 -105.301277 
L 395.141244 -104.400331 
L 395.277565 -103.499386 
L 395.38798 -102.598441 
L 395.473348 -101.697496 
L 395.535182 -100.79655 
L 395.575618 -99.895605 
L 395.597347 -98.99466 
L 395.603549 -98.093715 
L 395.597795 -97.192769 
L 395.583948 -96.291824 
L 395.566045 -95.390879 
L 395.548158 -94.489934 
L 395.534249 -93.588988 
L 395.528002 -92.688043 
L 395.53265 -91.787098 
L 395.550796 -90.886153 
L 395.58424 -89.985207 
L 395.633828 -89.084262 
L 395.699332 -88.183317 
L 395.779382 -87.282372 
L 395.871458 -86.381427 
L 395.971954 -85.480481 
L 396.076306 -84.579536 
L 396.179202 -83.678591 
L 396.274836 -82.777646 
L 396.357211 -81.8767 
L 396.420452 -80.975755 
L 396.459121 -80.07481 
L 396.468494 -79.173865 
L 396.444794 -78.272919 
L 396.385347 -77.371974 
L 396.288679 -76.471029 
L 396.154518 -75.570084 
L 395.983743 -74.669138 
L 395.77826 -73.768193 
L 395.540841 -72.867248 
L 395.27493 -71.966303 
L 394.984443 -71.065358 
L 394.673563 -70.164412 
L 394.346549 -69.263467 
L 394.007566 -68.362522 
L 393.660536 -67.461577 
L 393.309018 -66.560631 
L 392.956115 -65.659686 
L 392.604401 -64.758741 
L 392.255889 -63.857796 
L 391.912017 -62.95685 
L 391.573668 -62.055905 
L 391.241217 -61.15496 
L 390.914615 -60.254015 
L 390.593486 -59.353069 
L 390.277257 -58.452124 
L 389.965287 -57.551179 
L 389.657011 -56.650234 
L 389.352062 -55.749288 
L 389.050379 -54.848343 
L 388.752282 -53.947398 
z
" style="stroke: #000000; stroke-opacity: 0.9"/>
    </defs>
    <g clip-path="url(#pf5fde5fb5e)">
     <use xlink:href="#m95bd05761a" x="0" y="312.2325" style="fill: #addc30; fill-opacity: 0.9; stroke: #000000; stroke-opacity: 0.9"/>
    </g>
   </g>
   <g id="line2d_15">
    <path d="M 62.075076 145.498852 
L 81.771609 145.498852 
" clip-path="url(#pf5fde5fb5e)" style="fill: none; stroke: #ffffff; stroke-width: 2; stroke-linecap: round"/>
   </g>
   <g id="line2d_16">
    <path d="M 106.839925 219.523851 
L 126.536458 219.523851 
" clip-path="url(#pf5fde5fb5e)" style="fill: none; stroke: #ffffff; stroke-width: 2; stroke-linecap: round"/>
   </g>
   <g id="line2d_17">
    <path d="M 151.604773 210.326009 
L 171.301306 210.326009 
" clip-path="url(#pf5fde5fb5e)" style="fill: none; stroke: #ffffff; stroke-width: 2; stroke-linecap: round"/>
   </g>
   <g id="line2d_18">
    <path d="M 196.369622 226.225726 
L 216.066155 226.225726 
" clip-path="url(#pf5fde5fb5e)" style="fill: none; stroke: #ffffff; stroke-width: 2; stroke-linecap: round"/>
   </g>
   <g id="line2d_19">
    <path d="M 241.13447 210.042146 
L 260.831003 210.042146 
" clip-path="url(#pf5fde5fb5e)" style="fill: none; stroke: #ffffff; stroke-width: 2; stroke-linecap: round"/>
   </g>
   <g id="line2d_20">
    <path d="M 285.899319 229.679225 
L 305.595852 229.679225 
" clip-path="url(#pf5fde5fb5e)" style="fill: none; stroke: #ffffff; stroke-width: 2; stroke-linecap: round"/>
   </g>
   <g id="line2d_21">
    <path d="M 330.664167 222.629435 
L 350.3607 222.629435 
" clip-path="url(#pf5fde5fb5e)" style="fill: none; stroke: #ffffff; stroke-width: 2; stroke-linecap: round"/>
   </g>
   <g id="line2d_22">
    <path d="M 375.429016 223.126483 
L 395.125549 223.126483 
" clip-path="url(#pf5fde5fb5e)" style="fill: none; stroke: #ffffff; stroke-width: 2; stroke-linecap: round"/>
   </g>
   <g id="patch_3">
    <path d="M 43.945313 280.9 
L 43.945313 7.2 
" style="fill: none; stroke: #cccccc; stroke-width: 1.25; stroke-linejoin: miter; stroke-linecap: square"/>
   </g>
   <g id="patch_4">
    <path d="M 413.255312 280.9 
L 413.255312 7.2 
" style="fill: none; stroke: #cccccc; stroke-width: 1.25; stroke-linejoin: miter; stroke-linecap: square"/>
   </g>
   <g id="patch_5">
    <path d="M 43.945313 280.9 
L 413.255313 280.9 
" style="fill: none; stroke: #cccccc; stroke-width: 1.25; stroke-linejoin: miter; stroke-linecap: square"/>
   </g>
   <g id="patch_6">
    <path d="M 43.945313 7.2 
L 413.255313 7.2 
" style="fill: none; stroke: #cccccc; stroke-width: 1.25; stroke-linejoin: miter; stroke-linecap: square"/>
   </g>
   <g id="PathCollection_1">
    <defs>
     <path id="m54716c44b7" d="M 0 2.236068 
C 0.593012 2.236068 1.161816 2.000462 1.581139 1.581139 
C 2.000462 1.161816 2.236068 0.593012 2.236068 0 
C 2.236068 -0.593012 2.000462 -1.161816 1.581139 -1.581139 
C 1.161816 -2.000462 0.593012 -2.236068 0 -2.236068 
C -0.593012 -2.236068 -1.161816 -2.000462 -1.581139 -1.581139 
C -2.000462 -1.161816 -2.236068 -0.593012 -2.236068 0 
C -2.236068 0.593012 -2.000462 1.161816 -1.581139 1.581139 
C -1.161816 2.000462 -0.593012 2.236068 0 2.236068 
z
" style="stroke: #ffffff"/>
    </defs>
    <g clip-path="url(#pf5fde5fb5e)">
     <use xlink:href="#m54716c44b7" x="71.923343" y="145.498852" style="fill: #ffffff; stroke: #ffffff"/>
    </g>
   </g>
   <g id="PathCollection_2">
    <g clip-path="url(#pf5fde5fb5e)">
     <use xlink:href="#m54716c44b7" x="116.688191" y="219.523851" style="fill: #ffffff; stroke: #ffffff"/>
    </g>
   </g>
   <g id="PathCollection_3">
    <g clip-path="url(#pf5fde5fb5e)">
     <use xlink:href="#m54716c44b7" x="161.45304" y="210.326009" style="fill: #ffffff; stroke: #ffffff"/>
    </g>
   </g>
   <g id="PathCollection_4">
    <g clip-path="url(#pf5fde5fb5e)">
     <use xlink:href="#m54716c44b7" x="206.217888" y="226.225726" style="fill: #ffffff; stroke: #ffffff"/>
    </g>
   </g>
   <g id="PathCollection_5">
    <g clip-path="url(#pf5fde5fb5e)">
     <use xlink:href="#m54716c44b7" x="250.982737" y="210.042146" style="fill: #ffffff; stroke: #ffffff"/>
    </g>
   </g>
   <g id="PathCollection_6">
    <g clip-path="url(#pf5fde5fb5e)">
     <use xlink:href="#m54716c44b7" x="295.747585" y="229.679225" style="fill: #ffffff; stroke: #ffffff"/>
    </g>
   </g>
   <g id="PathCollection_7">
    <g clip-path="url(#pf5fde5fb5e)">
     <use xlink:href="#m54716c44b7" x="340.512434" y="222.629435" style="fill: #ffffff; stroke: #ffffff"/>
    </g>
   </g>
   <g id="PathCollection_8">
    <g clip-path="url(#pf5fde5fb5e)">
     <use xlink:href="#m54716c44b7" x="385.277282" y="223.126483" style="fill: #ffffff; stroke: #ffffff"/>
    </g>
   </g>
   <g id="legend_1">
    <g id="patch_7">
     <path d="M 325.900625 143.909844 
L 406.255312 143.909844 
Q 408.255312 143.909844 408.255312 141.909844 
L 408.255312 14.2 
Q 408.255312 12.2 406.255312 12.2 
L 325.900625 12.2 
Q 323.900625 12.2 323.900625 14.2 
L 323.900625 141.909844 
Q 323.900625 143.909844 325.900625 143.909844 
z
" style="fill: #ffffff; opacity: 0.8; stroke: #cccccc; stroke-linejoin: miter"/>
    </g>
    <g id="text_15">
     <!-- Methods -->
     <g style="fill: #262626" transform="translate(344.984609 24.073594) scale(0.11 -0.11)">
      <defs>
       <path id="ArialMT-4d" d="M 475 0 
L 475 4581 
L 1388 4581 
L 2472 1338 
Q 2622 884 2691 659 
Q 2769 909 2934 1394 
L 4031 4581 
L 4847 4581 
L 4847 0 
L 4263 0 
L 4263 3834 
L 2931 0 
L 2384 0 
L 1059 3900 
L 1059 0 
L 475 0 
z
" transform="scale(0.015625)"/>
       <path id="ArialMT-65" d="M 2694 1069 
L 3275 997 
Q 3138 488 2766 206 
Q 2394 -75 1816 -75 
Q 1088 -75 661 373 
Q 234 822 234 1631 
Q 234 2469 665 2931 
Q 1097 3394 1784 3394 
Q 2450 3394 2872 2941 
Q 3294 2488 3294 1666 
Q 3294 1616 3291 1516 
L 816 1516 
Q 847 969 1125 678 
Q 1403 388 1819 388 
Q 2128 388 2347 550 
Q 2566 713 2694 1069 
z
M 847 1978 
L 2700 1978 
Q 2663 2397 2488 2606 
Q 2219 2931 1791 2931 
Q 1403 2931 1139 2672 
Q 875 2413 847 1978 
z
" transform="scale(0.015625)"/>
       <path id="ArialMT-74" d="M 1650 503 
L 1731 6 
Q 1494 -44 1306 -44 
Q 1000 -44 831 53 
Q 663 150 594 308 
Q 525 466 525 972 
L 525 2881 
L 113 2881 
L 113 3319 
L 525 3319 
L 525 4141 
L 1084 4478 
L 1084 3319 
L 1650 3319 
L 1650 2881 
L 1084 2881 
L 1084 941 
Q 1084 700 1114 631 
Q 1144 563 1211 522 
Q 1278 481 1403 481 
Q 1497 481 1650 503 
z
" transform="scale(0.015625)"/>
       <path id="ArialMT-68" d="M 422 0 
L 422 4581 
L 984 4581 
L 984 2938 
Q 1378 3394 1978 3394 
Q 2347 3394 2619 3248 
Q 2891 3103 3008 2847 
Q 3125 2591 3125 2103 
L 3125 0 
L 2563 0 
L 2563 2103 
Q 2563 2525 2380 2717 
Q 2197 2909 1863 2909 
Q 1613 2909 1392 2779 
Q 1172 2650 1078 2428 
Q 984 2206 984 1816 
L 984 0 
L 422 0 
z
" transform="scale(0.015625)"/>
       <path id="ArialMT-6f" d="M 213 1659 
Q 213 2581 725 3025 
Q 1153 3394 1769 3394 
Q 2453 3394 2887 2945 
Q 3322 2497 3322 1706 
Q 3322 1066 3130 698 
Q 2938 331 2570 128 
Q 2203 -75 1769 -75 
Q 1072 -75 642 372 
Q 213 819 213 1659 
z
M 791 1659 
Q 791 1022 1069 705 
Q 1347 388 1769 388 
Q 2188 388 2466 706 
Q 2744 1025 2744 1678 
Q 2744 2294 2464 2611 
Q 2184 2928 1769 2928 
Q 1347 2928 1069 2612 
Q 791 2297 791 1659 
z
" transform="scale(0.015625)"/>
       <path id="ArialMT-64" d="M 2575 0 
L 2575 419 
Q 2259 -75 1647 -75 
Q 1250 -75 917 144 
Q 584 363 401 755 
Q 219 1147 219 1656 
Q 219 2153 384 2558 
Q 550 2963 881 3178 
Q 1213 3394 1622 3394 
Q 1922 3394 2156 3267 
Q 2391 3141 2538 2938 
L 2538 4581 
L 3097 4581 
L 3097 0 
L 2575 0 
z
M 797 1656 
Q 797 1019 1065 703 
Q 1334 388 1700 388 
Q 2069 388 2326 689 
Q 2584 991 2584 1609 
Q 2584 2291 2321 2609 
Q 2059 2928 1675 2928 
Q 1300 2928 1048 2622 
Q 797 2316 797 1656 
z
" transform="scale(0.015625)"/>
       <path id="ArialMT-73" d="M 197 991 
L 753 1078 
Q 800 744 1014 566 
Q 1228 388 1613 388 
Q 2000 388 2187 545 
Q 2375 703 2375 916 
Q 2375 1106 2209 1216 
Q 2094 1291 1634 1406 
Q 1016 1563 777 1677 
Q 538 1791 414 1992 
Q 291 2194 291 2438 
Q 291 2659 392 2848 
Q 494 3038 669 3163 
Q 800 3259 1026 3326 
Q 1253 3394 1513 3394 
Q 1903 3394 2198 3281 
Q 2494 3169 2634 2976 
Q 2775 2784 2828 2463 
L 2278 2388 
Q 2241 2644 2061 2787 
Q 1881 2931 1553 2931 
Q 1166 2931 1000 2803 
Q 834 2675 834 2503 
Q 834 2394 903 2306 
Q 972 2216 1119 2156 
Q 1203 2125 1616 2013 
Q 2213 1853 2448 1751 
Q 2684 1650 2818 1456 
Q 2953 1263 2953 975 
Q 2953 694 2789 445 
Q 2625 197 2315 61 
Q 2006 -75 1616 -75 
Q 969 -75 630 194 
Q 291 463 197 991 
z
" transform="scale(0.015625)"/>
      </defs>
      <use xlink:href="#ArialMT-4d"/>
      <use xlink:href="#ArialMT-65" x="83.300781"/>
      <use xlink:href="#ArialMT-74" x="138.916016"/>
      <use xlink:href="#ArialMT-68" x="166.699219"/>
      <use xlink:href="#ArialMT-6f" x="222.314453"/>
      <use xlink:href="#ArialMT-64" x="277.929688"/>
      <use xlink:href="#ArialMT-73" x="333.544922"/>
     </g>
    </g>
    <g id="line2d_23">
     <defs>
      <path id="mb87b2ace3c" d="M -3 3 
L 3 3 
L 3 -3 
L -3 -3 
z
" style="stroke: #440154; stroke-linejoin: miter"/>
     </defs>
     <g>
      <use xlink:href="#mb87b2ace3c" x="337.900625" y="35.039531" style="fill: #440154; stroke: #440154; stroke-linejoin: miter"/>
     </g>
    </g>
    <g id="text_16">
     <!-- -STCVAE -->
     <g style="fill: #262626" transform="translate(355.900625 38.539531) scale(0.1 -0.1)">
      <defs>
       <path id="ArialMT-3b2" d="M 997 422 
L 997 -1272 
L 438 -1272 
L 438 3144 
Q 438 3672 580 3970 
Q 722 4269 1069 4464 
Q 1416 4659 1841 4659 
Q 2469 4659 2792 4298 
Q 3116 3938 3116 3509 
Q 3116 3091 2855 2834 
Q 2594 2578 2256 2519 
Q 2800 2466 3095 2128 
Q 3391 1791 3391 1297 
Q 3391 766 3042 345 
Q 2694 -75 2034 -75 
Q 1359 -75 997 422 
z
M 1494 2700 
Q 2069 2700 2331 2900 
Q 2594 3100 2594 3478 
Q 2594 3784 2370 3990 
Q 2147 4197 1813 4197 
Q 1522 4197 1308 4044 
Q 1094 3891 1045 3703 
Q 997 3516 997 3047 
L 997 1788 
Q 997 1250 1072 997 
Q 1147 744 1394 541 
Q 1641 338 1963 338 
Q 2353 338 2579 605 
Q 2806 872 2806 1266 
Q 2806 1591 2639 1848 
Q 2472 2106 2226 2198 
Q 1981 2291 1575 2291 
L 1494 2291 
L 1494 2700 
z
" transform="scale(0.015625)"/>
       <path id="ArialMT-2d" d="M 203 1375 
L 203 1941 
L 1931 1941 
L 1931 1375 
L 203 1375 
z
" transform="scale(0.015625)"/>
       <path id="ArialMT-53" d="M 288 1472 
L 859 1522 
Q 900 1178 1048 958 
Q 1197 738 1509 602 
Q 1822 466 2213 466 
Q 2559 466 2825 569 
Q 3091 672 3220 851 
Q 3350 1031 3350 1244 
Q 3350 1459 3225 1620 
Q 3100 1781 2813 1891 
Q 2628 1963 1997 2114 
Q 1366 2266 1113 2400 
Q 784 2572 623 2826 
Q 463 3081 463 3397 
Q 463 3744 659 4045 
Q 856 4347 1234 4503 
Q 1613 4659 2075 4659 
Q 2584 4659 2973 4495 
Q 3363 4331 3572 4012 
Q 3781 3694 3797 3291 
L 3216 3247 
Q 3169 3681 2898 3903 
Q 2628 4125 2100 4125 
Q 1550 4125 1298 3923 
Q 1047 3722 1047 3438 
Q 1047 3191 1225 3031 
Q 1400 2872 2139 2705 
Q 2878 2538 3153 2413 
Q 3553 2228 3743 1945 
Q 3934 1663 3934 1294 
Q 3934 928 3725 604 
Q 3516 281 3123 101 
Q 2731 -78 2241 -78 
Q 1619 -78 1198 103 
Q 778 284 539 648 
Q 300 1013 288 1472 
z
" transform="scale(0.015625)"/>
       <path id="ArialMT-54" d="M 1659 0 
L 1659 4041 
L 150 4041 
L 150 4581 
L 3781 4581 
L 3781 4041 
L 2266 4041 
L 2266 0 
L 1659 0 
z
" transform="scale(0.015625)"/>
       <path id="ArialMT-43" d="M 3763 1606 
L 4369 1453 
Q 4178 706 3683 314 
Q 3188 -78 2472 -78 
Q 1731 -78 1267 223 
Q 803 525 561 1097 
Q 319 1669 319 2325 
Q 319 3041 592 3573 
Q 866 4106 1370 4382 
Q 1875 4659 2481 4659 
Q 3169 4659 3637 4309 
Q 4106 3959 4291 3325 
L 3694 3184 
Q 3534 3684 3231 3912 
Q 2928 4141 2469 4141 
Q 1941 4141 1586 3887 
Q 1231 3634 1087 3207 
Q 944 2781 944 2328 
Q 944 1744 1114 1308 
Q 1284 872 1643 656 
Q 2003 441 2422 441 
Q 2931 441 3284 734 
Q 3638 1028 3763 1606 
z
" transform="scale(0.015625)"/>
       <path id="ArialMT-56" d="M 1803 0 
L 28 4581 
L 684 4581 
L 1875 1253 
Q 2019 853 2116 503 
Q 2222 878 2363 1253 
L 3600 4581 
L 4219 4581 
L 2425 0 
L 1803 0 
z
" transform="scale(0.015625)"/>
       <path id="ArialMT-41" d="M -9 0 
L 1750 4581 
L 2403 4581 
L 4278 0 
L 3588 0 
L 3053 1388 
L 1138 1388 
L 634 0 
L -9 0 
z
M 1313 1881 
L 2866 1881 
L 2388 3150 
Q 2169 3728 2063 4100 
Q 1975 3659 1816 3225 
L 1313 1881 
z
" transform="scale(0.015625)"/>
       <path id="ArialMT-45" d="M 506 0 
L 506 4581 
L 3819 4581 
L 3819 4041 
L 1113 4041 
L 1113 2638 
L 3647 2638 
L 3647 2100 
L 1113 2100 
L 1113 541 
L 3925 541 
L 3925 0 
L 506 0 
z
" transform="scale(0.015625)"/>
      </defs>
      <use xlink:href="#ArialMT-3b2"/>
      <use xlink:href="#ArialMT-2d" x="57.519531"/>
      <use xlink:href="#ArialMT-53" x="90.820312"/>
      <use xlink:href="#ArialMT-54" x="157.519531"/>
      <use xlink:href="#ArialMT-43" x="218.603516"/>
      <use xlink:href="#ArialMT-56" x="290.820312"/>
      <use xlink:href="#ArialMT-41" x="350.144531"/>
      <use xlink:href="#ArialMT-45" x="416.84375"/>
     </g>
    </g>
    <g id="line2d_24">
     <defs>
      <path id="mb69b9b10e8" d="M -3 3 
L 3 3 
L 3 -3 
L -3 -3 
z
" style="stroke: #472d7b; stroke-linejoin: miter"/>
     </defs>
     <g>
      <use xlink:href="#mb69b9b10e8" x="337.900625" y="49.306719" style="fill: #472d7b; stroke: #472d7b; stroke-linejoin: miter"/>
     </g>
    </g>
    <g id="text_17">
     <!-- -TCVAE -->
     <g style="fill: #262626" transform="translate(355.900625 52.806719) scale(0.1 -0.1)">
      <use xlink:href="#ArialMT-3b2"/>
      <use xlink:href="#ArialMT-2d" x="57.519531"/>
      <use xlink:href="#ArialMT-54" x="90.820312"/>
      <use xlink:href="#ArialMT-43" x="151.904297"/>
      <use xlink:href="#ArialMT-56" x="224.121094"/>
      <use xlink:href="#ArialMT-41" x="283.445312"/>
      <use xlink:href="#ArialMT-45" x="350.144531"/>
     </g>
    </g>
    <g id="line2d_25">
     <defs>
      <path id="ma58a7d80ea" d="M -3 3 
L 3 3 
L 3 -3 
L -3 -3 
z
" style="stroke: #3b528b; stroke-linejoin: miter"/>
     </defs>
     <g>
      <use xlink:href="#ma58a7d80ea" x="337.900625" y="63.573906" style="fill: #3b528b; stroke: #3b528b; stroke-linejoin: miter"/>
     </g>
    </g>
    <g id="text_18">
     <!-- -TCVAE -->
     <g style="fill: #262626" transform="translate(355.900625 67.073906) scale(0.1 -0.1)">
      <use xlink:href="#ArialMT-3b2"/>
      <use xlink:href="#ArialMT-2d" x="57.519531"/>
      <use xlink:href="#ArialMT-54" x="90.820312"/>
      <use xlink:href="#ArialMT-43" x="151.904297"/>
      <use xlink:href="#ArialMT-56" x="224.121094"/>
      <use xlink:href="#ArialMT-41" x="283.445312"/>
      <use xlink:href="#ArialMT-45" x="350.144531"/>
     </g>
    </g>
    <g id="line2d_26">
     <defs>
      <path id="m3afb965a0a" d="M -3 3 
L 3 3 
L 3 -3 
L -3 -3 
z
" style="stroke: #2c728e; stroke-linejoin: miter"/>
     </defs>
     <g>
      <use xlink:href="#m3afb965a0a" x="337.900625" y="77.841094" style="fill: #2c728e; stroke: #2c728e; stroke-linejoin: miter"/>
     </g>
    </g>
    <g id="text_19">
     <!-- VAE -->
     <g style="fill: #262626" transform="translate(355.900625 81.341094) scale(0.1 -0.1)">
      <use xlink:href="#ArialMT-3b2"/>
      <use xlink:href="#ArialMT-56" x="57.519531"/>
      <use xlink:href="#ArialMT-41" x="116.84375"/>
      <use xlink:href="#ArialMT-45" x="183.542969"/>
     </g>
    </g>
    <g id="line2d_27">
     <defs>
      <path id="mb980db60c4" d="M -3 3 
L 3 3 
L 3 -3 
L -3 -3 
z
" style="stroke: #21918c; stroke-linejoin: miter"/>
     </defs>
     <g>
      <use xlink:href="#mb980db60c4" x="337.900625" y="91.986406" style="fill: #21918c; stroke: #21918c; stroke-linejoin: miter"/>
     </g>
    </g>
    <g id="text_20">
     <!-- FactorVAE -->
     <g style="fill: #262626" transform="translate(355.900625 95.486406) scale(0.1 -0.1)">
      <defs>
       <path id="ArialMT-46" d="M 525 0 
L 525 4581 
L 3616 4581 
L 3616 4041 
L 1131 4041 
L 1131 2622 
L 3281 2622 
L 3281 2081 
L 1131 2081 
L 1131 0 
L 525 0 
z
" transform="scale(0.015625)"/>
       <path id="ArialMT-61" d="M 2588 409 
Q 2275 144 1986 34 
Q 1697 -75 1366 -75 
Q 819 -75 525 192 
Q 231 459 231 875 
Q 231 1119 342 1320 
Q 453 1522 633 1644 
Q 813 1766 1038 1828 
Q 1203 1872 1538 1913 
Q 2219 1994 2541 2106 
Q 2544 2222 2544 2253 
Q 2544 2597 2384 2738 
Q 2169 2928 1744 2928 
Q 1347 2928 1158 2789 
Q 969 2650 878 2297 
L 328 2372 
Q 403 2725 575 2942 
Q 747 3159 1072 3276 
Q 1397 3394 1825 3394 
Q 2250 3394 2515 3294 
Q 2781 3194 2906 3042 
Q 3031 2891 3081 2659 
Q 3109 2516 3109 2141 
L 3109 1391 
Q 3109 606 3145 398 
Q 3181 191 3288 0 
L 2700 0 
Q 2613 175 2588 409 
z
M 2541 1666 
Q 2234 1541 1622 1453 
Q 1275 1403 1131 1340 
Q 988 1278 909 1158 
Q 831 1038 831 891 
Q 831 666 1001 516 
Q 1172 366 1500 366 
Q 1825 366 2078 508 
Q 2331 650 2450 897 
Q 2541 1088 2541 1459 
L 2541 1666 
z
" transform="scale(0.015625)"/>
       <path id="ArialMT-63" d="M 2588 1216 
L 3141 1144 
Q 3050 572 2676 248 
Q 2303 -75 1759 -75 
Q 1078 -75 664 370 
Q 250 816 250 1647 
Q 250 2184 428 2587 
Q 606 2991 970 3192 
Q 1334 3394 1763 3394 
Q 2303 3394 2647 3120 
Q 2991 2847 3088 2344 
L 2541 2259 
Q 2463 2594 2264 2762 
Q 2066 2931 1784 2931 
Q 1359 2931 1093 2626 
Q 828 2322 828 1663 
Q 828 994 1084 691 
Q 1341 388 1753 388 
Q 2084 388 2306 591 
Q 2528 794 2588 1216 
z
" transform="scale(0.015625)"/>
       <path id="ArialMT-72" d="M 416 0 
L 416 3319 
L 922 3319 
L 922 2816 
Q 1116 3169 1280 3281 
Q 1444 3394 1641 3394 
Q 1925 3394 2219 3213 
L 2025 2691 
Q 1819 2813 1613 2813 
Q 1428 2813 1281 2702 
Q 1134 2591 1072 2394 
Q 978 2094 978 1738 
L 978 0 
L 416 0 
z
" transform="scale(0.015625)"/>
      </defs>
      <use xlink:href="#ArialMT-46"/>
      <use xlink:href="#ArialMT-61" x="61.083984"/>
      <use xlink:href="#ArialMT-63" x="116.699219"/>
      <use xlink:href="#ArialMT-74" x="166.699219"/>
      <use xlink:href="#ArialMT-6f" x="194.482422"/>
      <use xlink:href="#ArialMT-72" x="250.097656"/>
      <use xlink:href="#ArialMT-56" x="283.398438"/>
      <use xlink:href="#ArialMT-41" x="342.722656"/>
      <use xlink:href="#ArialMT-45" x="409.421875"/>
     </g>
    </g>
    <g id="line2d_28">
     <defs>
      <path id="m73bd8cb680" d="M -3 3 
L 3 3 
L 3 -3 
L -3 -3 
z
" style="stroke: #28ae80; stroke-linejoin: miter"/>
     </defs>
     <g>
      <use xlink:href="#m73bd8cb680" x="337.900625" y="106.131719" style="fill: #28ae80; stroke: #28ae80; stroke-linejoin: miter"/>
     </g>
    </g>
    <g id="text_21">
     <!-- DIP-I -->
     <g style="fill: #262626" transform="translate(355.900625 109.631719) scale(0.1 -0.1)">
      <defs>
       <path id="ArialMT-44" d="M 494 0 
L 494 4581 
L 2072 4581 
Q 2606 4581 2888 4516 
Q 3281 4425 3559 4188 
Q 3922 3881 4101 3404 
Q 4281 2928 4281 2316 
Q 4281 1794 4159 1391 
Q 4038 988 3847 723 
Q 3656 459 3429 307 
Q 3203 156 2883 78 
Q 2563 0 2147 0 
L 494 0 
z
M 1100 541 
L 2078 541 
Q 2531 541 2789 625 
Q 3047 709 3200 863 
Q 3416 1078 3536 1442 
Q 3656 1806 3656 2325 
Q 3656 3044 3420 3430 
Q 3184 3816 2847 3947 
Q 2603 4041 2063 4041 
L 1100 4041 
L 1100 541 
z
" transform="scale(0.015625)"/>
       <path id="ArialMT-49" d="M 597 0 
L 597 4581 
L 1203 4581 
L 1203 0 
L 597 0 
z
" transform="scale(0.015625)"/>
       <path id="ArialMT-50" d="M 494 0 
L 494 4581 
L 2222 4581 
Q 2678 4581 2919 4538 
Q 3256 4481 3484 4323 
Q 3713 4166 3852 3881 
Q 3991 3597 3991 3256 
Q 3991 2672 3619 2267 
Q 3247 1863 2275 1863 
L 1100 1863 
L 1100 0 
L 494 0 
z
M 1100 2403 
L 2284 2403 
Q 2872 2403 3119 2622 
Q 3366 2841 3366 3238 
Q 3366 3525 3220 3729 
Q 3075 3934 2838 4000 
Q 2684 4041 2272 4041 
L 1100 4041 
L 1100 2403 
z
" transform="scale(0.015625)"/>
      </defs>
      <use xlink:href="#ArialMT-44"/>
      <use xlink:href="#ArialMT-49" x="72.216797"/>
      <use xlink:href="#ArialMT-50" x="100"/>
      <use xlink:href="#ArialMT-2d" x="166.699219"/>
      <use xlink:href="#ArialMT-49" x="200"/>
     </g>
    </g>
    <g id="line2d_29">
     <defs>
      <path id="m2f01014c46" d="M -3 3 
L 3 3 
L 3 -3 
L -3 -3 
z
" style="stroke: #5ec962; stroke-linejoin: miter"/>
     </defs>
     <g>
      <use xlink:href="#m2f01014c46" x="337.900625" y="120.277031" style="fill: #5ec962; stroke: #5ec962; stroke-linejoin: miter"/>
     </g>
    </g>
    <g id="text_22">
     <!-- VQVAE -->
     <g style="fill: #262626" transform="translate(355.900625 123.777031) scale(0.1 -0.1)">
      <defs>
       <path id="ArialMT-51" d="M 3966 491 
Q 4388 200 4744 66 
L 4566 -356 
Q 4072 -178 3581 206 
Q 3072 -78 2456 -78 
Q 1834 -78 1328 222 
Q 822 522 548 1065 
Q 275 1609 275 2291 
Q 275 2969 550 3525 
Q 825 4081 1333 4372 
Q 1841 4663 2469 4663 
Q 3103 4663 3612 4361 
Q 4122 4059 4389 3517 
Q 4656 2975 4656 2294 
Q 4656 1728 4484 1276 
Q 4313 825 3966 491 
z
M 2631 1266 
Q 3156 1119 3497 828 
Q 4031 1316 4031 2294 
Q 4031 2850 3842 3265 
Q 3653 3681 3289 3911 
Q 2925 4141 2472 4141 
Q 1794 4141 1347 3677 
Q 900 3213 900 2291 
Q 900 1397 1342 919 
Q 1784 441 2472 441 
Q 2797 441 3084 563 
Q 2800 747 2484 825 
L 2631 1266 
z
" transform="scale(0.015625)"/>
      </defs>
      <use xlink:href="#ArialMT-56"/>
      <use xlink:href="#ArialMT-51" x="66.699219"/>
      <use xlink:href="#ArialMT-56" x="144.482422"/>
      <use xlink:href="#ArialMT-41" x="203.806641"/>
      <use xlink:href="#ArialMT-45" x="270.505859"/>
     </g>
    </g>
    <g id="line2d_30">
     <defs>
      <path id="mca1f160776" d="M -3 3 
L 3 3 
L 3 -3 
L -3 -3 
z
" style="stroke: #addc30; stroke-linejoin: miter"/>
     </defs>
     <g>
      <use xlink:href="#mca1f160776" x="337.900625" y="134.422344" style="fill: #addc30; stroke: #addc30; stroke-linejoin: miter"/>
     </g>
    </g>
    <g id="text_23">
     <!-- QLVAE -->
     <g style="fill: #262626" transform="translate(355.900625 137.922344) scale(0.1 -0.1)">
      <defs>
       <path id="ArialMT-4c" d="M 469 0 
L 469 4581 
L 1075 4581 
L 1075 541 
L 3331 541 
L 3331 0 
L 469 0 
z
" transform="scale(0.015625)"/>
      </defs>
      <use xlink:href="#ArialMT-51"/>
      <use xlink:href="#ArialMT-4c" x="77.783203"/>
      <use xlink:href="#ArialMT-56" x="126.023438"/>
      <use xlink:href="#ArialMT-41" x="185.347656"/>
      <use xlink:href="#ArialMT-45" x="252.046875"/>
     </g>
    </g>
   </g>
  </g>
 </g>
 <defs>
  <clipPath id="pf5fde5fb5e">
   <rect x="43.945313" y="7.2" width="369.31" height="273.7"/>
  </clipPath>
 </defs>
</svg>
