<?xml version="1.0" encoding="utf-8" standalone="no"?>
<!DOCTYPE svg PUBLIC "-//W3C//DTD SVG 1.1//EN"
  "http://www.w3.org/Graphics/SVG/1.1/DTD/svg11.dtd">
<svg xmlns:xlink="http://www.w3.org/1999/xlink" width="420.47pt" height="312.2325pt" viewBox="0 0 420.47 312.2325" xmlns="http://www.w3.org/2000/svg" version="1.1">
 <metadata>
  <rdf:RDF xmlns:dc="http://purl.org/dc/elements/1.1/" xmlns:cc="http://creativecommons.org/ns#" xmlns:rdf="http://www.w3.org/1999/02/22-rdf-syntax-ns#">
   <cc:Work>
    <dc:type rdf:resource="http://purl.org/dc/dcmitype/StillImage"/>
    <dc:date>2025-09-25T12:02:31.066410</dc:date>
    <dc:format>image/svg+xml</dc:format>
    <dc:creator>
     <cc:Agent>
      <dc:title>Matplotlib v3.6.2, https://matplotlib.org/</dc:title>
     </cc:Agent>
    </dc:creator>
   </cc:Work>
  </rdf:RDF>
 </metadata>
 <defs>
  <style type="text/css">*{stroke-linejoin: round; stroke-linecap: butt}</style>
 </defs>
 <g id="figure_1">
  <g id="patch_1">
   <path d="M 0 312.2325 
L 420.47 312.2325 
L 420.47 0 
L 0 0 
z
" style="fill: #ffffff"/>
  </g>
  <g id="axes_1">
   <g id="patch_2">
    <path d="M 36.16 280.9 
L 413.27 280.9 
L 413.27 7.2 
L 36.16 7.2 
z
" style="fill: #ffffff"/>
   </g>
   <g id="matplotlib.axis_1">
    <g id="xtick_1">
     <g id="line2d_1">
      <path d="M 64.728939 280.9 
L 64.728939 7.2 
" clip-path="url(#pbde8a2bff0)" style="fill: none; stroke: #cccccc; stroke-linecap: round"/>
     </g>
     <g id="text_1">
      <!-- 1 -->
      <g style="fill: #262626" transform="translate(60.280189 301.8525) scale(0.16 -0.16)">
       <defs>
        <path id="ArialMT-31" d="M 2384 0 
L 1822 0 
L 1822 3584 
Q 1619 3391 1289 3197 
Q 959 3003 697 2906 
L 697 3450 
Q 1169 3672 1522 3987 
Q 1875 4303 2022 4600 
L 2384 4600 
L 2384 0 
z
" transform="scale(0.015625)"/>
       </defs>
       <use xlink:href="#ArialMT-31"/>
      </g>
     </g>
    </g>
    <g id="xtick_2">
     <g id="line2d_2">
      <path d="M 110.439242 280.9 
L 110.439242 7.2 
" clip-path="url(#pbde8a2bff0)" style="fill: none; stroke: #cccccc; stroke-linecap: round"/>
     </g>
     <g id="text_2">
      <!-- 2 -->
      <g style="fill: #262626" transform="translate(105.990492 301.8525) scale(0.16 -0.16)">
       <defs>
        <path id="ArialMT-32" d="M 3222 541 
L 3222 0 
L 194 0 
Q 188 203 259 391 
Q 375 700 629 1000 
Q 884 1300 1366 1694 
Q 2113 2306 2375 2664 
Q 2638 3022 2638 3341 
Q 2638 3675 2398 3904 
Q 2159 4134 1775 4134 
Q 1369 4134 1125 3890 
Q 881 3647 878 3216 
L 300 3275 
Q 359 3922 746 4261 
Q 1134 4600 1788 4600 
Q 2447 4600 2831 4234 
Q 3216 3869 3216 3328 
Q 3216 3053 3103 2787 
Q 2991 2522 2730 2228 
Q 2469 1934 1863 1422 
Q 1356 997 1212 845 
Q 1069 694 975 541 
L 3222 541 
z
" transform="scale(0.015625)"/>
       </defs>
       <use xlink:href="#ArialMT-32"/>
      </g>
     </g>
    </g>
    <g id="xtick_3">
     <g id="line2d_3">
      <path d="M 156.149545 280.9 
L 156.149545 7.2 
" clip-path="url(#pbde8a2bff0)" style="fill: none; stroke: #cccccc; stroke-linecap: round"/>
     </g>
     <g id="text_3">
      <!-- 3 -->
      <g style="fill: #262626" transform="translate(151.700795 301.8525) scale(0.16 -0.16)">
       <defs>
        <path id="ArialMT-33" d="M 269 1209 
L 831 1284 
Q 928 806 1161 595 
Q 1394 384 1728 384 
Q 2125 384 2398 659 
Q 2672 934 2672 1341 
Q 2672 1728 2419 1979 
Q 2166 2231 1775 2231 
Q 1616 2231 1378 2169 
L 1441 2663 
Q 1497 2656 1531 2656 
Q 1891 2656 2178 2843 
Q 2466 3031 2466 3422 
Q 2466 3731 2256 3934 
Q 2047 4138 1716 4138 
Q 1388 4138 1169 3931 
Q 950 3725 888 3313 
L 325 3413 
Q 428 3978 793 4289 
Q 1159 4600 1703 4600 
Q 2078 4600 2393 4439 
Q 2709 4278 2876 4000 
Q 3044 3722 3044 3409 
Q 3044 3113 2884 2869 
Q 2725 2625 2413 2481 
Q 2819 2388 3044 2092 
Q 3269 1797 3269 1353 
Q 3269 753 2831 336 
Q 2394 -81 1725 -81 
Q 1122 -81 723 278 
Q 325 638 269 1209 
z
" transform="scale(0.015625)"/>
       </defs>
       <use xlink:href="#ArialMT-33"/>
      </g>
     </g>
    </g>
    <g id="xtick_4">
     <g id="line2d_4">
      <path d="M 201.859848 280.9 
L 201.859848 7.2 
" clip-path="url(#pbde8a2bff0)" style="fill: none; stroke: #cccccc; stroke-linecap: round"/>
     </g>
     <g id="text_4">
      <!-- 4 -->
      <g style="fill: #262626" transform="translate(197.411098 301.8525) scale(0.16 -0.16)">
       <defs>
        <path id="ArialMT-34" d="M 2069 0 
L 2069 1097 
L 81 1097 
L 81 1613 
L 2172 4581 
L 2631 4581 
L 2631 1613 
L 3250 1613 
L 3250 1097 
L 2631 1097 
L 2631 0 
L 2069 0 
z
M 2069 1613 
L 2069 3678 
L 634 1613 
L 2069 1613 
z
" transform="scale(0.015625)"/>
       </defs>
       <use xlink:href="#ArialMT-34"/>
      </g>
     </g>
    </g>
    <g id="xtick_5">
     <g id="line2d_5">
      <path d="M 247.570152 280.9 
L 247.570152 7.2 
" clip-path="url(#pbde8a2bff0)" style="fill: none; stroke: #cccccc; stroke-linecap: round"/>
     </g>
     <g id="text_5">
      <!-- 5 -->
      <g style="fill: #262626" transform="translate(243.121402 301.8525) scale(0.16 -0.16)">
       <defs>
        <path id="ArialMT-35" d="M 266 1200 
L 856 1250 
Q 922 819 1161 601 
Q 1400 384 1738 384 
Q 2144 384 2425 690 
Q 2706 997 2706 1503 
Q 2706 1984 2436 2262 
Q 2166 2541 1728 2541 
Q 1456 2541 1237 2417 
Q 1019 2294 894 2097 
L 366 2166 
L 809 4519 
L 3088 4519 
L 3088 3981 
L 1259 3981 
L 1013 2750 
Q 1425 3038 1878 3038 
Q 2478 3038 2890 2622 
Q 3303 2206 3303 1553 
Q 3303 931 2941 478 
Q 2500 -78 1738 -78 
Q 1113 -78 717 272 
Q 322 622 266 1200 
z
" transform="scale(0.015625)"/>
       </defs>
       <use xlink:href="#ArialMT-35"/>
      </g>
     </g>
    </g>
    <g id="xtick_6">
     <g id="line2d_6">
      <path d="M 293.280455 280.9 
L 293.280455 7.2 
" clip-path="url(#pbde8a2bff0)" style="fill: none; stroke: #cccccc; stroke-linecap: round"/>
     </g>
     <g id="text_6">
      <!-- 6 -->
      <g style="fill: #262626" transform="translate(288.831705 301.8525) scale(0.16 -0.16)">
       <defs>
        <path id="ArialMT-36" d="M 3184 3459 
L 2625 3416 
Q 2550 3747 2413 3897 
Q 2184 4138 1850 4138 
Q 1581 4138 1378 3988 
Q 1113 3794 959 3422 
Q 806 3050 800 2363 
Q 1003 2672 1297 2822 
Q 1591 2972 1913 2972 
Q 2475 2972 2870 2558 
Q 3266 2144 3266 1488 
Q 3266 1056 3080 686 
Q 2894 316 2569 119 
Q 2244 -78 1831 -78 
Q 1128 -78 684 439 
Q 241 956 241 2144 
Q 241 3472 731 4075 
Q 1159 4600 1884 4600 
Q 2425 4600 2770 4297 
Q 3116 3994 3184 3459 
z
M 888 1484 
Q 888 1194 1011 928 
Q 1134 663 1356 523 
Q 1578 384 1822 384 
Q 2178 384 2434 671 
Q 2691 959 2691 1453 
Q 2691 1928 2437 2201 
Q 2184 2475 1800 2475 
Q 1419 2475 1153 2201 
Q 888 1928 888 1484 
z
" transform="scale(0.015625)"/>
       </defs>
       <use xlink:href="#ArialMT-36"/>
      </g>
     </g>
    </g>
    <g id="xtick_7">
     <g id="line2d_7">
      <path d="M 338.990758 280.9 
L 338.990758 7.2 
" clip-path="url(#pbde8a2bff0)" style="fill: none; stroke: #cccccc; stroke-linecap: round"/>
     </g>
     <g id="text_7">
      <!-- 7 -->
      <g style="fill: #262626" transform="translate(334.542008 301.8525) scale(0.16 -0.16)">
       <defs>
        <path id="ArialMT-37" d="M 303 3981 
L 303 4522 
L 3269 4522 
L 3269 4084 
Q 2831 3619 2401 2847 
Q 1972 2075 1738 1259 
Q 1569 684 1522 0 
L 944 0 
Q 953 541 1156 1306 
Q 1359 2072 1739 2783 
Q 2119 3494 2547 3981 
L 303 3981 
z
" transform="scale(0.015625)"/>
       </defs>
       <use xlink:href="#ArialMT-37"/>
      </g>
     </g>
    </g>
    <g id="xtick_8">
     <g id="line2d_8">
      <path d="M 384.701061 280.9 
L 384.701061 7.2 
" clip-path="url(#pbde8a2bff0)" style="fill: none; stroke: #cccccc; stroke-linecap: round"/>
     </g>
     <g id="text_8">
      <!-- 8 -->
      <g style="fill: #262626" transform="translate(380.252311 301.8525) scale(0.16 -0.16)">
       <defs>
        <path id="ArialMT-38" d="M 1131 2484 
Q 781 2613 612 2850 
Q 444 3088 444 3419 
Q 444 3919 803 4259 
Q 1163 4600 1759 4600 
Q 2359 4600 2725 4251 
Q 3091 3903 3091 3403 
Q 3091 3084 2923 2848 
Q 2756 2613 2416 2484 
Q 2838 2347 3058 2040 
Q 3278 1734 3278 1309 
Q 3278 722 2862 322 
Q 2447 -78 1769 -78 
Q 1091 -78 675 323 
Q 259 725 259 1325 
Q 259 1772 486 2073 
Q 713 2375 1131 2484 
z
M 1019 3438 
Q 1019 3113 1228 2906 
Q 1438 2700 1772 2700 
Q 2097 2700 2305 2904 
Q 2513 3109 2513 3406 
Q 2513 3716 2298 3927 
Q 2084 4138 1766 4138 
Q 1444 4138 1231 3931 
Q 1019 3725 1019 3438 
z
M 838 1322 
Q 838 1081 952 856 
Q 1066 631 1291 507 
Q 1516 384 1775 384 
Q 2178 384 2440 643 
Q 2703 903 2703 1303 
Q 2703 1709 2433 1975 
Q 2163 2241 1756 2241 
Q 1359 2241 1098 1978 
Q 838 1716 838 1322 
z
" transform="scale(0.015625)"/>
       </defs>
       <use xlink:href="#ArialMT-38"/>
      </g>
     </g>
    </g>
   </g>
   <g id="matplotlib.axis_2">
    <g id="ytick_1">
     <g id="line2d_9">
      <path d="M 36.16 268.459091 
L 413.27 268.459091 
" clip-path="url(#pbde8a2bff0)" style="fill: none; stroke: #cccccc; stroke-linecap: round"/>
     </g>
     <g id="text_9">
      <!-- 0.0 -->
      <g style="fill: #262626" transform="translate(7.2 273.46956) scale(0.14 -0.14)">
       <defs>
        <path id="ArialMT-30" d="M 266 2259 
Q 266 3072 433 3567 
Q 600 4063 929 4331 
Q 1259 4600 1759 4600 
Q 2128 4600 2406 4451 
Q 2684 4303 2865 4023 
Q 3047 3744 3150 3342 
Q 3253 2941 3253 2259 
Q 3253 1453 3087 958 
Q 2922 463 2592 192 
Q 2263 -78 1759 -78 
Q 1097 -78 719 397 
Q 266 969 266 2259 
z
M 844 2259 
Q 844 1131 1108 757 
Q 1372 384 1759 384 
Q 2147 384 2411 759 
Q 2675 1134 2675 2259 
Q 2675 3391 2411 3762 
Q 2147 4134 1753 4134 
Q 1366 4134 1134 3806 
Q 844 3388 844 2259 
z
" transform="scale(0.015625)"/>
        <path id="ArialMT-2e" d="M 581 0 
L 581 641 
L 1222 641 
L 1222 0 
L 581 0 
z
" transform="scale(0.015625)"/>
       </defs>
       <use xlink:href="#ArialMT-30"/>
       <use xlink:href="#ArialMT-2e" x="55.615234"/>
       <use xlink:href="#ArialMT-30" x="83.398438"/>
      </g>
     </g>
    </g>
    <g id="ytick_2">
     <g id="line2d_10">
      <path d="M 36.16 219.450982 
L 413.27 219.450982 
" clip-path="url(#pbde8a2bff0)" style="fill: none; stroke: #cccccc; stroke-linecap: round"/>
     </g>
     <g id="text_10">
      <!-- 0.1 -->
      <g style="fill: #262626" transform="translate(7.2 224.46145) scale(0.14 -0.14)">
       <use xlink:href="#ArialMT-30"/>
       <use xlink:href="#ArialMT-2e" x="55.615234"/>
       <use xlink:href="#ArialMT-31" x="83.398438"/>
      </g>
     </g>
    </g>
    <g id="ytick_3">
     <g id="line2d_11">
      <path d="M 36.16 170.442872 
L 413.27 170.442872 
" clip-path="url(#pbde8a2bff0)" style="fill: none; stroke: #cccccc; stroke-linecap: round"/>
     </g>
     <g id="text_11">
      <!-- 0.2 -->
      <g style="fill: #262626" transform="translate(7.2 175.453341) scale(0.14 -0.14)">
       <use xlink:href="#ArialMT-30"/>
       <use xlink:href="#ArialMT-2e" x="55.615234"/>
       <use xlink:href="#ArialMT-32" x="83.398438"/>
      </g>
     </g>
    </g>
    <g id="ytick_4">
     <g id="line2d_12">
      <path d="M 36.16 121.434763 
L 413.27 121.434763 
" clip-path="url(#pbde8a2bff0)" style="fill: none; stroke: #cccccc; stroke-linecap: round"/>
     </g>
     <g id="text_12">
      <!-- 0.3 -->
      <g style="fill: #262626" transform="translate(7.2 126.445232) scale(0.14 -0.14)">
       <use xlink:href="#ArialMT-30"/>
       <use xlink:href="#ArialMT-2e" x="55.615234"/>
       <use xlink:href="#ArialMT-33" x="83.398438"/>
      </g>
     </g>
    </g>
    <g id="ytick_5">
     <g id="line2d_13">
      <path d="M 36.16 72.426654 
L 413.27 72.426654 
" clip-path="url(#pbde8a2bff0)" style="fill: none; stroke: #cccccc; stroke-linecap: round"/>
     </g>
     <g id="text_13">
      <!-- 0.4 -->
      <g style="fill: #262626" transform="translate(7.2 77.437122) scale(0.14 -0.14)">
       <use xlink:href="#ArialMT-30"/>
       <use xlink:href="#ArialMT-2e" x="55.615234"/>
       <use xlink:href="#ArialMT-34" x="83.398438"/>
      </g>
     </g>
    </g>
    <g id="ytick_6">
     <g id="line2d_14">
      <path d="M 36.16 23.418544 
L 413.27 23.418544 
" clip-path="url(#pbde8a2bff0)" style="fill: none; stroke: #cccccc; stroke-linecap: round"/>
     </g>
     <g id="text_14">
      <!-- 0.5 -->
      <g style="fill: #262626" transform="translate(7.2 28.429013) scale(0.14 -0.14)">
       <use xlink:href="#ArialMT-30"/>
       <use xlink:href="#ArialMT-2e" x="55.615234"/>
       <use xlink:href="#ArialMT-35" x="83.398438"/>
      </g>
     </g>
    </g>
   </g>
   <g id="PolyCollection_1">
    <defs>
     <path id="mdb5de94368" d="M 67.724038 -66.722877 
L 61.733841 -66.722877 
L 61.36472 -69.00438 
L 60.977786 -71.285882 
L 60.576235 -73.567384 
L 60.16379 -75.848886 
L 59.744638 -78.130388 
L 59.323348 -80.41189 
L 58.904744 -82.693393 
L 58.493756 -84.974895 
L 58.095223 -87.256397 
L 57.713686 -89.537899 
L 57.353158 -91.819401 
L 57.016895 -94.100903 
L 56.707191 -96.382405 
L 56.425212 -98.663908 
L 56.170895 -100.94541 
L 55.942929 -103.226912 
L 55.738823 -105.508414 
L 55.55508 -107.789916 
L 55.387453 -110.071418 
L 55.231281 -112.352921 
L 55.081874 -114.634423 
L 54.934915 -116.915925 
L 54.78685 -119.197427 
L 54.635213 -121.478929 
L 54.478879 -123.760431 
L 54.3182 -126.041934 
L 54.15502 -128.323436 
L 53.992565 -130.604938 
L 53.835221 -132.88644 
L 53.688218 -135.167942 
L 53.557251 -137.449444 
L 53.448069 -139.730946 
L 53.36607 -142.012449 
L 53.315942 -144.293951 
L 53.301364 -146.575453 
L 53.324792 -148.856955 
L 53.387351 -151.138457 
L 53.488823 -153.419959 
L 53.627725 -155.701462 
L 53.801474 -157.982964 
L 54.006609 -160.264466 
L 54.239053 -162.545968 
L 54.494396 -164.82747 
L 54.768163 -167.108972 
L 55.056069 -169.390474 
L 55.35422 -171.671977 
L 55.659268 -173.953479 
L 55.968499 -176.234981 
L 56.279866 -178.516483 
L 56.591948 -180.797985 
L 56.90387 -183.079487 
L 57.215172 -185.36099 
L 57.525648 -187.642492 
L 57.835182 -189.923994 
L 58.143584 -192.205496 
L 58.450443 -194.486998 
L 58.755027 -196.7685 
L 59.056215 -199.050003 
L 59.352498 -201.331505 
L 59.642022 -203.613007 
L 59.922684 -205.894509 
L 60.192273 -208.176011 
L 60.448628 -210.457513 
L 60.689811 -212.739015 
L 60.914265 -215.020518 
L 61.120944 -217.30202 
L 61.309404 -219.583522 
L 61.479829 -221.865024 
L 61.63301 -224.146526 
L 61.770265 -226.428028 
L 61.89331 -228.709531 
L 62.004098 -230.991033 
L 62.104653 -233.272535 
L 62.1969 -235.554037 
L 62.282523 -237.835539 
L 62.362864 -240.117041 
L 62.43887 -242.398543 
L 62.511091 -244.680046 
L 62.579727 -246.961548 
L 62.64472 -249.24305 
L 62.705862 -251.524552 
L 62.762926 -253.806054 
L 62.81578 -256.087556 
L 62.864491 -258.369059 
L 62.909389 -260.650561 
L 62.951096 -262.932063 
L 62.990521 -265.213565 
L 63.028806 -267.495067 
L 63.067254 -269.776569 
L 63.107235 -272.058072 
L 63.150077 -274.339574 
L 63.196967 -276.621076 
L 63.248859 -278.902578 
L 63.306407 -281.18408 
L 63.369916 -283.465582 
L 63.439329 -285.747084 
L 63.514233 -288.028587 
L 63.593891 -290.310089 
L 63.677298 -292.591591 
L 65.780581 -292.591591 
L 65.780581 -292.591591 
L 65.863988 -290.310089 
L 65.943646 -288.028587 
L 66.01855 -285.747084 
L 66.087963 -283.465582 
L 66.151472 -281.18408 
L 66.20902 -278.902578 
L 66.260912 -276.621076 
L 66.307801 -274.339574 
L 66.350644 -272.058072 
L 66.390625 -269.776569 
L 66.429073 -267.495067 
L 66.467358 -265.213565 
L 66.506782 -262.932063 
L 66.54849 -260.650561 
L 66.593388 -258.369059 
L 66.642099 -256.087556 
L 66.694953 -253.806054 
L 66.752017 -251.524552 
L 66.813159 -249.24305 
L 66.878151 -246.961548 
L 66.946788 -244.680046 
L 67.019009 -242.398543 
L 67.095015 -240.117041 
L 67.175356 -237.835539 
L 67.260979 -235.554037 
L 67.353225 -233.272535 
L 67.453781 -230.991033 
L 67.564569 -228.709531 
L 67.687613 -226.428028 
L 67.824869 -224.146526 
L 67.97805 -221.865024 
L 68.148475 -219.583522 
L 68.336934 -217.30202 
L 68.543614 -215.020518 
L 68.768068 -212.739015 
L 69.009251 -210.457513 
L 69.265606 -208.176011 
L 69.535195 -205.894509 
L 69.815857 -203.613007 
L 70.105381 -201.331505 
L 70.401664 -199.050003 
L 70.702852 -196.7685 
L 71.007435 -194.486998 
L 71.314295 -192.205496 
L 71.622697 -189.923994 
L 71.932231 -187.642492 
L 72.242707 -185.36099 
L 72.554008 -183.079487 
L 72.865931 -180.797985 
L 73.178013 -178.516483 
L 73.489379 -176.234981 
L 73.798611 -173.953479 
L 74.103658 -171.671977 
L 74.40181 -169.390474 
L 74.689716 -167.108972 
L 74.963483 -164.82747 
L 75.218826 -162.545968 
L 75.45127 -160.264466 
L 75.656405 -157.982964 
L 75.830154 -155.701462 
L 75.969056 -153.419959 
L 76.070528 -151.138457 
L 76.133087 -148.856955 
L 76.156515 -146.575453 
L 76.141937 -144.293951 
L 76.091809 -142.012449 
L 76.00981 -139.730946 
L 75.900627 -137.449444 
L 75.76966 -135.167942 
L 75.622658 -132.88644 
L 75.465314 -130.604938 
L 75.302859 -128.323436 
L 75.139678 -126.041934 
L 74.979 -123.760431 
L 74.822666 -121.478929 
L 74.671029 -119.197427 
L 74.522964 -116.915925 
L 74.376005 -114.634423 
L 74.226598 -112.352921 
L 74.070425 -110.071418 
L 73.902798 -107.789916 
L 73.719056 -105.508414 
L 73.51495 -103.226912 
L 73.286984 -100.94541 
L 73.032667 -98.663908 
L 72.750688 -96.382405 
L 72.440984 -94.100903 
L 72.104721 -91.819401 
L 71.744193 -89.537899 
L 71.362656 -87.256397 
L 70.964123 -84.974895 
L 70.553134 -82.693393 
L 70.134531 -80.41189 
L 69.713241 -78.130388 
L 69.294089 -75.848886 
L 68.881643 -73.567384 
L 68.480093 -71.285882 
L 68.093159 -69.00438 
L 67.724038 -66.722877 
z
" style="stroke: #000000; stroke-opacity: 0.9"/>
    </defs>
    <g clip-path="url(#pbde8a2bff0)">
     <use xlink:href="#mdb5de94368" x="0" y="312.2325" style="fill: #440154; fill-opacity: 0.9; stroke: #000000; stroke-opacity: 0.9"/>
    </g>
   </g>
   <g id="PolyCollection_2">
    <defs>
     <path id="m8ce81c1778" d="M 114.175744 -47.035073 
L 106.702741 -47.035073 
L 106.172308 -48.475096 
L 105.611087 -49.915119 
L 105.024827 -51.355142 
L 104.420465 -52.795165 
L 103.806029 -54.235188 
L 103.190484 -55.675211 
L 102.583529 -57.115234 
L 101.995325 -58.555257 
L 101.436184 -59.99528 
L 100.916216 -61.435302 
L 100.44495 -62.875325 
L 100.03096 -64.315348 
L 99.681495 -65.755371 
L 99.402166 -67.195394 
L 99.196683 -68.635417 
L 99.066687 -70.07544 
L 99.011667 -71.515463 
L 99.028988 -72.955486 
L 99.114021 -74.395509 
L 99.260376 -75.835532 
L 99.460214 -77.275555 
L 99.704639 -78.715578 
L 99.98413 -80.155601 
L 100.289002 -81.595624 
L 100.609865 -83.035647 
L 100.938048 -84.47567 
L 101.26598 -85.915693 
L 101.58749 -87.355716 
L 101.898009 -88.795739 
L 102.19467 -90.235762 
L 102.476288 -91.675785 
L 102.743234 -93.115808 
L 102.997201 -94.555831 
L 103.240895 -95.995854 
L 103.477664 -97.435877 
L 103.71111 -98.8759 
L 103.944709 -100.315922 
L 104.181475 -101.755945 
L 104.423693 -103.195968 
L 104.672735 -104.635991 
L 104.928982 -106.076014 
L 105.191831 -107.516037 
L 105.459795 -108.95606 
L 105.730661 -110.396083 
L 106.001697 -111.836106 
L 106.269875 -113.276129 
L 106.532093 -114.716152 
L 106.785379 -116.156175 
L 107.02705 -117.596198 
L 107.254845 -119.036221 
L 107.466995 -120.476244 
L 107.662264 -121.916267 
L 107.839941 -123.35629 
L 107.999807 -124.796313 
L 108.142072 -126.236336 
L 108.267305 -127.676359 
L 108.37635 -129.116382 
L 108.470248 -130.556405 
L 108.550164 -131.996428 
L 108.617328 -133.436451 
L 108.672997 -134.876474 
L 108.718427 -136.316497 
L 108.754864 -137.756519 
L 108.783558 -139.196542 
L 108.805772 -140.636565 
L 108.822804 -142.076588 
L 108.836005 -143.516611 
L 108.846793 -144.956634 
L 108.856644 -146.396657 
L 108.867083 -147.83668 
L 108.879649 -149.276703 
L 108.895847 -150.716726 
L 108.917091 -152.156749 
L 108.944633 -153.596772 
L 108.979492 -155.036795 
L 109.022381 -156.476818 
L 109.07365 -157.916841 
L 109.133235 -159.356864 
L 109.200641 -160.796887 
L 109.274941 -162.23691 
L 109.35481 -163.676933 
L 109.438589 -165.116956 
L 109.524373 -166.556979 
L 109.610122 -167.997002 
L 109.693791 -169.437025 
L 109.77345 -170.877048 
L 109.847409 -172.317071 
L 109.914319 -173.757094 
L 109.973247 -175.197117 
L 110.02372 -176.637139 
L 110.065727 -178.077162 
L 110.099695 -179.517185 
L 110.126428 -180.957208 
L 110.147016 -182.397231 
L 110.16274 -183.837254 
L 110.17496 -185.277277 
L 110.185006 -186.7173 
L 110.194092 -188.157323 
L 110.203235 -189.597346 
L 110.67525 -189.597346 
L 110.67525 -189.597346 
L 110.684393 -188.157323 
L 110.693479 -186.7173 
L 110.703525 -185.277277 
L 110.715744 -183.837254 
L 110.731469 -182.397231 
L 110.752057 -180.957208 
L 110.778789 -179.517185 
L 110.812758 -178.077162 
L 110.854765 -176.637139 
L 110.905237 -175.197117 
L 110.964166 -173.757094 
L 111.031076 -172.317071 
L 111.105035 -170.877048 
L 111.184694 -169.437025 
L 111.268362 -167.997002 
L 111.354112 -166.556979 
L 111.439896 -165.116956 
L 111.523674 -163.676933 
L 111.603544 -162.23691 
L 111.677844 -160.796887 
L 111.74525 -159.356864 
L 111.804835 -157.916841 
L 111.856103 -156.476818 
L 111.898993 -155.036795 
L 111.933852 -153.596772 
L 111.961394 -152.156749 
L 111.982638 -150.716726 
L 111.998836 -149.276703 
L 112.011402 -147.83668 
L 112.021841 -146.396657 
L 112.031692 -144.956634 
L 112.042479 -143.516611 
L 112.055681 -142.076588 
L 112.072713 -140.636565 
L 112.094927 -139.196542 
L 112.123621 -137.756519 
L 112.160058 -136.316497 
L 112.205487 -134.876474 
L 112.261157 -133.436451 
L 112.328321 -131.996428 
L 112.408237 -130.556405 
L 112.502135 -129.116382 
L 112.61118 -127.676359 
L 112.736413 -126.236336 
L 112.878678 -124.796313 
L 113.038544 -123.35629 
L 113.216221 -121.916267 
L 113.41149 -120.476244 
L 113.62364 -119.036221 
L 113.851435 -117.596198 
L 114.093106 -116.156175 
L 114.346391 -114.716152 
L 114.60861 -113.276129 
L 114.876788 -111.836106 
L 115.147824 -110.396083 
L 115.41869 -108.95606 
L 115.686654 -107.516037 
L 115.949503 -106.076014 
L 116.20575 -104.635991 
L 116.454792 -103.195968 
L 116.697009 -101.755945 
L 116.933776 -100.315922 
L 117.167375 -98.8759 
L 117.400821 -97.435877 
L 117.63759 -95.995854 
L 117.881283 -94.555831 
L 118.135251 -93.115808 
L 118.402197 -91.675785 
L 118.683815 -90.235762 
L 118.980476 -88.795739 
L 119.290995 -87.355716 
L 119.612505 -85.915693 
L 119.940437 -84.47567 
L 120.26862 -83.035647 
L 120.589482 -81.595624 
L 120.894355 -80.155601 
L 121.173846 -78.715578 
L 121.418271 -77.275555 
L 121.618109 -75.835532 
L 121.764464 -74.395509 
L 121.849497 -72.955486 
L 121.866818 -71.515463 
L 121.811798 -70.07544 
L 121.681802 -68.635417 
L 121.476319 -67.195394 
L 121.19699 -65.755371 
L 120.847525 -64.315348 
L 120.433535 -62.875325 
L 119.962269 -61.435302 
L 119.442301 -59.99528 
L 118.88316 -58.555257 
L 118.294956 -57.115234 
L 117.688001 -55.675211 
L 117.072456 -54.235188 
L 116.45802 -52.795165 
L 115.853658 -51.355142 
L 115.267398 -49.915119 
L 114.706177 -48.475096 
L 114.175744 -47.035073 
z
" style="stroke: #000000; stroke-opacity: 0.9"/>
    </defs>
    <g clip-path="url(#pbde8a2bff0)">
     <use xlink:href="#m8ce81c1778" x="0" y="312.2325" style="fill: #472d7b; fill-opacity: 0.9; stroke: #000000; stroke-opacity: 0.9"/>
    </g>
   </g>
   <g id="PolyCollection_3">
    <defs>
     <path id="m641dc764f4" d="M 159.208796 -43.888063 
L 153.090295 -43.888063 
L 152.651017 -44.995344 
L 152.181097 -46.102626 
L 151.683773 -47.209907 
L 151.16326 -48.317189 
L 150.624728 -49.42447 
L 150.074236 -50.531752 
L 149.518603 -51.639034 
L 148.965213 -52.746315 
L 148.421765 -53.853597 
L 147.89598 -54.960878 
L 147.395278 -56.06816 
L 146.926467 -57.175441 
L 146.495465 -58.282723 
L 146.107079 -59.390004 
L 145.764877 -60.497286 
L 145.471143 -61.604568 
L 145.226942 -62.711849 
L 145.032257 -63.819131 
L 144.886186 -64.926412 
L 144.787165 -66.033694 
L 144.733184 -67.140975 
L 144.72197 -68.248257 
L 144.751096 -69.355539 
L 144.818035 -70.46282 
L 144.920135 -71.570102 
L 145.054542 -72.677383 
L 145.218095 -73.784665 
L 145.407218 -74.891946 
L 145.617847 -75.999228 
L 145.845406 -77.106509 
L 146.084872 -78.213791 
L 146.330905 -79.321073 
L 146.578069 -80.428354 
L 146.821106 -81.535636 
L 147.05524 -82.642917 
L 147.276492 -83.750199 
L 147.481949 -84.85748 
L 147.669972 -85.964762 
L 147.840308 -87.072043 
L 147.994094 -88.179325 
L 148.133744 -89.286607 
L 148.262724 -90.393888 
L 148.38524 -91.50117 
L 148.505866 -92.608451 
L 148.629141 -93.715733 
L 148.759181 -94.823014 
L 148.899334 -95.930296 
L 149.05192 -97.037578 
L 149.218061 -98.144859 
L 149.397639 -99.252141 
L 149.589354 -100.359422 
L 149.790892 -101.466704 
L 149.99917 -102.573985 
L 150.210644 -103.681267 
L 150.421629 -104.788548 
L 150.628625 -105.89583 
L 150.828599 -107.003112 
L 151.019217 -108.110393 
L 151.198997 -109.217675 
L 151.36739 -110.324956 
L 151.524777 -111.432238 
L 151.672394 -112.539519 
L 151.8122 -113.646801 
L 151.946695 -114.754083 
L 152.078711 -115.861364 
L 152.211187 -116.968646 
L 152.346953 -118.075927 
L 152.488518 -119.183209 
L 152.637897 -120.29049 
L 152.796466 -121.397772 
L 152.964867 -122.505053 
L 153.142959 -123.612335 
L 153.329816 -124.719617 
L 153.523781 -125.826898 
L 153.722562 -126.93418 
L 153.923368 -128.041461 
L 154.123075 -129.148743 
L 154.318411 -130.256024 
L 154.506144 -131.363306 
L 154.683265 -132.470588 
L 154.847155 -133.577869 
L 154.995713 -134.685151 
L 155.127458 -135.792432 
L 155.241578 -136.899714 
L 155.337948 -138.006995 
L 155.417099 -139.114277 
L 155.480152 -140.221558 
L 155.528723 -141.32884 
L 155.564811 -142.436122 
L 155.590669 -143.543403 
L 155.608667 -144.650685 
L 155.621171 -145.757966 
L 155.630426 -146.865248 
L 155.638454 -147.972529 
L 155.646977 -149.079811 
L 155.657367 -150.187092 
L 155.670613 -151.294374 
L 155.687319 -152.401656 
L 155.707721 -153.508937 
L 156.59137 -153.508937 
L 156.59137 -153.508937 
L 156.611772 -152.401656 
L 156.628478 -151.294374 
L 156.641724 -150.187092 
L 156.652114 -149.079811 
L 156.660637 -147.972529 
L 156.668664 -146.865248 
L 156.67792 -145.757966 
L 156.690424 -144.650685 
L 156.708422 -143.543403 
L 156.734279 -142.436122 
L 156.770368 -141.32884 
L 156.818939 -140.221558 
L 156.881992 -139.114277 
L 156.961143 -138.006995 
L 157.057513 -136.899714 
L 157.171633 -135.792432 
L 157.303377 -134.685151 
L 157.451936 -133.577869 
L 157.615826 -132.470588 
L 157.792947 -131.363306 
L 157.98068 -130.256024 
L 158.176016 -129.148743 
L 158.375723 -128.041461 
L 158.576529 -126.93418 
L 158.77531 -125.826898 
L 158.969275 -124.719617 
L 159.156132 -123.612335 
L 159.334224 -122.505053 
L 159.502625 -121.397772 
L 159.661194 -120.29049 
L 159.810573 -119.183209 
L 159.952138 -118.075927 
L 160.087904 -116.968646 
L 160.22038 -115.861364 
L 160.352396 -114.754083 
L 160.486891 -113.646801 
L 160.626697 -112.539519 
L 160.774314 -111.432238 
L 160.931701 -110.324956 
L 161.100094 -109.217675 
L 161.279874 -108.110393 
L 161.470492 -107.003112 
L 161.670466 -105.89583 
L 161.877462 -104.788548 
L 162.088447 -103.681267 
L 162.29992 -102.573985 
L 162.508199 -101.466704 
L 162.709737 -100.359422 
L 162.901452 -99.252141 
L 163.08103 -98.144859 
L 163.247171 -97.037578 
L 163.399757 -95.930296 
L 163.53991 -94.823014 
L 163.66995 -93.715733 
L 163.793225 -92.608451 
L 163.913851 -91.50117 
L 164.036367 -90.393888 
L 164.165346 -89.286607 
L 164.304996 -88.179325 
L 164.458783 -87.072043 
L 164.629119 -85.964762 
L 164.817142 -84.85748 
L 165.022599 -83.750199 
L 165.243851 -82.642917 
L 165.477985 -81.535636 
L 165.721022 -80.428354 
L 165.968186 -79.321073 
L 166.214219 -78.213791 
L 166.453685 -77.106509 
L 166.681244 -75.999228 
L 166.891873 -74.891946 
L 167.080996 -73.784665 
L 167.244549 -72.677383 
L 167.378956 -71.570102 
L 167.481056 -70.46282 
L 167.547995 -69.355539 
L 167.577121 -68.248257 
L 167.565906 -67.140975 
L 167.511926 -66.033694 
L 167.412905 -64.926412 
L 167.266833 -63.819131 
L 167.072149 -62.711849 
L 166.827948 -61.604568 
L 166.534214 -60.497286 
L 166.192011 -59.390004 
L 165.803626 -58.282723 
L 165.372624 -57.175441 
L 164.903813 -56.06816 
L 164.403111 -54.960878 
L 163.877325 -53.853597 
L 163.333878 -52.746315 
L 162.780488 -51.639034 
L 162.224855 -50.531752 
L 161.674363 -49.42447 
L 161.135831 -48.317189 
L 160.615318 -47.209907 
L 160.117994 -46.102626 
L 159.648074 -44.995344 
L 159.208796 -43.888063 
z
" style="stroke: #000000; stroke-opacity: 0.9"/>
    </defs>
    <g clip-path="url(#pbde8a2bff0)">
     <use xlink:href="#m641dc764f4" x="0" y="312.2325" style="fill: #3b528b; fill-opacity: 0.9; stroke: #000000; stroke-opacity: 0.9"/>
    </g>
   </g>
   <g id="PolyCollection_4">
    <defs>
     <path id="m2d8d706d93" d="M 207.17775 -43.773409 
L 196.541947 -43.773409 
L 196.152675 -44.451871 
L 195.768103 -45.130333 
L 195.390206 -45.808796 
L 195.020593 -46.487258 
L 194.660535 -47.16572 
L 194.311012 -47.844182 
L 193.972774 -48.522644 
L 193.646411 -49.201107 
L 193.332409 -49.879569 
L 193.031216 -50.558031 
L 192.743277 -51.236493 
L 192.469067 -51.914955 
L 192.209103 -52.593418 
L 191.963951 -53.27188 
L 191.734218 -53.950342 
L 191.520544 -54.628804 
L 191.323599 -55.307266 
L 191.144076 -55.985728 
L 190.982695 -56.664191 
L 190.840214 -57.342653 
L 190.717439 -58.021115 
L 190.615241 -58.699577 
L 190.534564 -59.378039 
L 190.476437 -60.056502 
L 190.441956 -60.734964 
L 190.432273 -61.413426 
L 190.448548 -62.091888 
L 190.4919 -62.77035 
L 190.563331 -63.448812 
L 190.663647 -64.127275 
L 190.793367 -64.805737 
L 190.95264 -65.484199 
L 191.141161 -66.162661 
L 191.358114 -66.841123 
L 191.602128 -67.519586 
L 191.871269 -68.198048 
L 192.163052 -68.87651 
L 192.474497 -69.554972 
L 192.802203 -70.233434 
L 193.142453 -70.911897 
L 193.491331 -71.590359 
L 193.844856 -72.268821 
L 194.199104 -72.947283 
L 194.550339 -73.625745 
L 194.89511 -74.304207 
L 195.230341 -74.98267 
L 195.553389 -75.661132 
L 195.862074 -76.339594 
L 196.154692 -77.018056 
L 196.429997 -77.696518 
L 196.687177 -78.374981 
L 196.92581 -79.053443 
L 197.145819 -79.731905 
L 197.347426 -80.410367 
L 197.531113 -81.088829 
L 197.697582 -81.767292 
L 197.847729 -82.445754 
L 197.982619 -83.124216 
L 198.103467 -83.802678 
L 198.211622 -84.48114 
L 198.308547 -85.159602 
L 198.395795 -85.838065 
L 198.474982 -86.516527 
L 198.54775 -87.194989 
L 198.615731 -87.873451 
L 198.680494 -88.551913 
L 198.7435 -89.230376 
L 198.806054 -89.908838 
L 198.869262 -90.5873 
L 198.93399 -91.265762 
L 199.000843 -91.944224 
L 199.070145 -92.622687 
L 199.141941 -93.301149 
L 199.216013 -93.979611 
L 199.291907 -94.658073 
L 199.368976 -95.336535 
L 199.446432 -96.014997 
L 199.523407 -96.69346 
L 199.599022 -97.371922 
L 199.672447 -98.050384 
L 199.74297 -98.728846 
L 199.81005 -99.407308 
L 199.873362 -100.085771 
L 199.932822 -100.764233 
L 199.988606 -101.442695 
L 200.041141 -102.121157 
L 200.091083 -102.799619 
L 200.139274 -103.478082 
L 200.18669 -104.156544 
L 200.234376 -104.835006 
L 200.283376 -105.513468 
L 200.334659 -106.19193 
L 200.389058 -106.870392 
L 200.447209 -107.548855 
L 200.509509 -108.227317 
L 200.576093 -108.905779 
L 200.646819 -109.584241 
L 200.721286 -110.262703 
L 200.798853 -110.941166 
L 202.920844 -110.941166 
L 202.920844 -110.941166 
L 202.998411 -110.262703 
L 203.072878 -109.584241 
L 203.143604 -108.905779 
L 203.210188 -108.227317 
L 203.272488 -107.548855 
L 203.330639 -106.870392 
L 203.385038 -106.19193 
L 203.436321 -105.513468 
L 203.485321 -104.835006 
L 203.533007 -104.156544 
L 203.580423 -103.478082 
L 203.628614 -102.799619 
L 203.678556 -102.121157 
L 203.731091 -101.442695 
L 203.786875 -100.764233 
L 203.846335 -100.085771 
L 203.909647 -99.407308 
L 203.976727 -98.728846 
L 204.04725 -98.050384 
L 204.120675 -97.371922 
L 204.19629 -96.69346 
L 204.273265 -96.014997 
L 204.350721 -95.336535 
L 204.42779 -94.658073 
L 204.503684 -93.979611 
L 204.577756 -93.301149 
L 204.649552 -92.622687 
L 204.718854 -91.944224 
L 204.785706 -91.265762 
L 204.850435 -90.5873 
L 204.913643 -89.908838 
L 204.976197 -89.230376 
L 205.039203 -88.551913 
L 205.103966 -87.873451 
L 205.171947 -87.194989 
L 205.244715 -86.516527 
L 205.323902 -85.838065 
L 205.41115 -85.159602 
L 205.508075 -84.48114 
L 205.61623 -83.802678 
L 205.737078 -83.124216 
L 205.871968 -82.445754 
L 206.022115 -81.767292 
L 206.188584 -81.088829 
L 206.372271 -80.410367 
L 206.573878 -79.731905 
L 206.793887 -79.053443 
L 207.032519 -78.374981 
L 207.2897 -77.696518 
L 207.565005 -77.018056 
L 207.857623 -76.339594 
L 208.166308 -75.661132 
L 208.489356 -74.98267 
L 208.824587 -74.304207 
L 209.169358 -73.625745 
L 209.520593 -72.947283 
L 209.874841 -72.268821 
L 210.228366 -71.590359 
L 210.577244 -70.911897 
L 210.917494 -70.233434 
L 211.2452 -69.554972 
L 211.556645 -68.87651 
L 211.848428 -68.198048 
L 212.117569 -67.519586 
L 212.361583 -66.841123 
L 212.578536 -66.162661 
L 212.767057 -65.484199 
L 212.92633 -64.805737 
L 213.05605 -64.127275 
L 213.156366 -63.448812 
L 213.227797 -62.77035 
L 213.271149 -62.091888 
L 213.287424 -61.413426 
L 213.277741 -60.734964 
L 213.24326 -60.056502 
L 213.185133 -59.378039 
L 213.104456 -58.699577 
L 213.002258 -58.021115 
L 212.879483 -57.342653 
L 212.737002 -56.664191 
L 212.575621 -55.985728 
L 212.396098 -55.307266 
L 212.199153 -54.628804 
L 211.985479 -53.950342 
L 211.755746 -53.27188 
L 211.510594 -52.593418 
L 211.25063 -51.914955 
L 210.97642 -51.236493 
L 210.688481 -50.558031 
L 210.387288 -49.879569 
L 210.073286 -49.201107 
L 209.746923 -48.522644 
L 209.408685 -47.844182 
L 209.059162 -47.16572 
L 208.699104 -46.487258 
L 208.329491 -45.808796 
L 207.951594 -45.130333 
L 207.567022 -44.451871 
L 207.17775 -43.773409 
z
" style="stroke: #000000; stroke-opacity: 0.9"/>
    </defs>
    <g clip-path="url(#pbde8a2bff0)">
     <use xlink:href="#m2d8d706d93" x="0" y="312.2325" style="fill: #2c728e; fill-opacity: 0.9; stroke: #000000; stroke-opacity: 0.9"/>
    </g>
   </g>
   <g id="PolyCollection_5">
    <defs>
     <path id="mea10137fce" d="M 248.482382 -52.142265 
L 246.657921 -52.142265 
L 246.599559 -53.118466 
L 246.54718 -54.094667 
L 246.500841 -55.070868 
L 246.459985 -56.04707 
L 246.423395 -57.023271 
L 246.38919 -57.999472 
L 246.354862 -58.975673 
L 246.317361 -59.951875 
L 246.273223 -60.928076 
L 246.218734 -61.904277 
L 246.150131 -62.880478 
L 246.063811 -63.856679 
L 245.956558 -64.832881 
L 245.825744 -65.809082 
L 245.669519 -66.785283 
L 245.486937 -67.761484 
L 245.27805 -68.737685 
L 245.043911 -69.713887 
L 244.786528 -70.690088 
L 244.50874 -71.666289 
L 244.214031 -72.64249 
L 243.906304 -73.618692 
L 243.589627 -74.594893 
L 243.26797 -75.571094 
L 242.944973 -76.547295 
L 242.623742 -77.523496 
L 242.30672 -78.499698 
L 241.995623 -79.475899 
L 241.691454 -80.4521 
L 241.394588 -81.428301 
L 241.10491 -82.404502 
L 240.821991 -83.380704 
L 240.545265 -84.356905 
L 240.274195 -85.333106 
L 240.008391 -86.309307 
L 239.747684 -87.285509 
L 239.492128 -88.26171 
L 239.24197 -89.237911 
L 238.997562 -90.214112 
L 238.75927 -91.190313 
L 238.527399 -92.166515 
L 238.302132 -93.142716 
L 238.083533 -94.118917 
L 237.871596 -95.095118 
L 237.66634 -96.071319 
L 237.467943 -97.047521 
L 237.276878 -98.023722 
L 237.094038 -98.999923 
L 236.920802 -99.976124 
L 236.759047 -100.952326 
L 236.611067 -101.928527 
L 236.479415 -102.904728 
L 236.366679 -103.880929 
L 236.275207 -104.85713 
L 236.206825 -105.833332 
L 236.162585 -106.809533 
L 236.142576 -107.785734 
L 236.145833 -108.761935 
L 236.170373 -109.738136 
L 236.213347 -110.714338 
L 236.271317 -111.690539 
L 236.340623 -112.66674 
L 236.417807 -113.642941 
L 236.500038 -114.619143 
L 236.585504 -115.595344 
L 236.673707 -116.571545 
L 236.765634 -117.547746 
L 236.863779 -118.523947 
L 236.971998 -119.500149 
L 237.095228 -120.47635 
L 237.23907 -121.452551 
L 237.409299 -122.428752 
L 237.611336 -123.404954 
L 237.84974 -124.381155 
L 238.127755 -125.357356 
L 238.446971 -126.333557 
L 238.807116 -127.309758 
L 239.205989 -128.28596 
L 239.639548 -129.262161 
L 240.102124 -130.238362 
L 240.586748 -131.214563 
L 241.085554 -132.190764 
L 241.590226 -133.166966 
L 242.092442 -134.143167 
L 242.5843 -135.119368 
L 243.058686 -136.095569 
L 243.509559 -137.071771 
L 243.932161 -138.047972 
L 244.323122 -139.024173 
L 244.680481 -140.000374 
L 245.003614 -140.976575 
L 245.293103 -141.952777 
L 245.550537 -142.928978 
L 245.778286 -143.905179 
L 245.979246 -144.88138 
L 246.156601 -145.857581 
L 246.313582 -146.833783 
L 246.453279 -147.809984 
L 246.578478 -148.786185 
L 248.561825 -148.786185 
L 248.561825 -148.786185 
L 248.687024 -147.809984 
L 248.826721 -146.833783 
L 248.983702 -145.857581 
L 249.161057 -144.88138 
L 249.362018 -143.905179 
L 249.589766 -142.928978 
L 249.8472 -141.952777 
L 250.136689 -140.976575 
L 250.459822 -140.000374 
L 250.817181 -139.024173 
L 251.208142 -138.047972 
L 251.630744 -137.071771 
L 252.081617 -136.095569 
L 252.556003 -135.119368 
L 253.047861 -134.143167 
L 253.550077 -133.166966 
L 254.054749 -132.190764 
L 254.553555 -131.214563 
L 255.038179 -130.238362 
L 255.500755 -129.262161 
L 255.934314 -128.28596 
L 256.333187 -127.309758 
L 256.693332 -126.333557 
L 257.012548 -125.357356 
L 257.290563 -124.381155 
L 257.528967 -123.404954 
L 257.731004 -122.428752 
L 257.901233 -121.452551 
L 258.045075 -120.47635 
L 258.168305 -119.500149 
L 258.276524 -118.523947 
L 258.374669 -117.547746 
L 258.466596 -116.571545 
L 258.554799 -115.595344 
L 258.640265 -114.619143 
L 258.722496 -113.642941 
L 258.79968 -112.66674 
L 258.868986 -111.690539 
L 258.926956 -110.714338 
L 258.96993 -109.738136 
L 258.99447 -108.761935 
L 258.997727 -107.785734 
L 258.977718 -106.809533 
L 258.933478 -105.833332 
L 258.865096 -104.85713 
L 258.773624 -103.880929 
L 258.660888 -102.904728 
L 258.529236 -101.928527 
L 258.381256 -100.952326 
L 258.219501 -99.976124 
L 258.046265 -98.999923 
L 257.863425 -98.023722 
L 257.67236 -97.047521 
L 257.473963 -96.071319 
L 257.268707 -95.095118 
L 257.05677 -94.118917 
L 256.838171 -93.142716 
L 256.612904 -92.166515 
L 256.381033 -91.190313 
L 256.142742 -90.214112 
L 255.898333 -89.237911 
L 255.648175 -88.26171 
L 255.39262 -87.285509 
L 255.131912 -86.309307 
L 254.866108 -85.333106 
L 254.595038 -84.356905 
L 254.318312 -83.380704 
L 254.035393 -82.404502 
L 253.745715 -81.428301 
L 253.448849 -80.4521 
L 253.14468 -79.475899 
L 252.833583 -78.499698 
L 252.516561 -77.523496 
L 252.19533 -76.547295 
L 251.872333 -75.571094 
L 251.550677 -74.594893 
L 251.233999 -73.618692 
L 250.926272 -72.64249 
L 250.631563 -71.666289 
L 250.353775 -70.690088 
L 250.096392 -69.713887 
L 249.862253 -68.737685 
L 249.653366 -67.761484 
L 249.470784 -66.785283 
L 249.314559 -65.809082 
L 249.183745 -64.832881 
L 249.076492 -63.856679 
L 248.990172 -62.880478 
L 248.921569 -61.904277 
L 248.86708 -60.928076 
L 248.822942 -59.951875 
L 248.785441 -58.975673 
L 248.751113 -57.999472 
L 248.716908 -57.023271 
L 248.680318 -56.04707 
L 248.639462 -55.070868 
L 248.593123 -54.094667 
L 248.540744 -53.118466 
L 248.482382 -52.142265 
z
" style="stroke: #000000; stroke-opacity: 0.9"/>
    </defs>
    <g clip-path="url(#pbde8a2bff0)">
     <use xlink:href="#mea10137fce" x="0" y="312.2325" style="fill: #21918c; fill-opacity: 0.9; stroke: #000000; stroke-opacity: 0.9"/>
    </g>
   </g>
   <g id="PolyCollection_6">
    <defs>
     <path id="m7e9e63c427" d="M 297.13271 -43.773409 
L 289.428199 -43.773409 
L 289.052713 -44.34862 
L 288.671417 -44.923831 
L 288.286777 -45.499042 
L 287.901162 -46.074253 
L 287.516829 -46.649465 
L 287.135899 -47.224676 
L 286.760341 -47.799887 
L 286.391932 -48.375098 
L 286.032231 -48.950309 
L 285.68254 -49.52552 
L 285.343892 -50.100731 
L 285.017052 -50.675942 
L 284.70255 -51.251153 
L 284.400746 -51.826364 
L 284.111914 -52.401575 
L 283.836344 -52.976787 
L 283.574438 -53.551998 
L 283.32679 -54.127209 
L 283.094229 -54.70242 
L 282.877818 -55.277631 
L 282.678811 -55.852842 
L 282.498565 -56.428053 
L 282.338434 -57.003264 
L 282.199657 -57.578475 
L 282.083262 -58.153686 
L 281.990012 -58.728897 
L 281.920392 -59.304109 
L 281.874648 -59.87932 
L 281.852879 -60.454531 
L 281.855135 -61.029742 
L 281.881541 -61.604953 
L 281.932376 -62.180164 
L 282.008128 -62.755375 
L 282.109474 -63.330586 
L 282.237204 -63.905797 
L 282.392084 -64.481008 
L 282.57468 -65.056219 
L 282.785167 -65.631431 
L 283.023153 -66.206642 
L 283.287541 -66.781853 
L 283.576464 -67.357064 
L 283.887294 -67.932275 
L 284.216727 -68.507486 
L 284.560947 -69.082697 
L 284.915834 -69.657908 
L 285.277195 -70.233119 
L 285.640993 -70.80833 
L 286.003546 -71.383542 
L 286.361666 -71.958753 
L 286.712741 -72.533964 
L 287.054747 -73.109175 
L 287.386198 -73.684386 
L 287.706053 -74.259597 
L 288.013602 -74.834808 
L 288.308339 -75.410019 
L 288.589855 -75.98523 
L 288.857765 -76.560441 
L 289.11167 -77.135652 
L 289.351155 -77.710864 
L 289.575828 -78.286075 
L 289.785381 -78.861286 
L 289.979655 -79.436497 
L 290.15871 -80.011708 
L 290.322865 -80.586919 
L 290.472726 -81.16213 
L 290.609174 -81.737341 
L 290.733329 -82.312552 
L 290.846487 -82.887763 
L 290.950056 -83.462974 
L 291.045471 -84.038186 
L 291.134132 -84.613397 
L 291.217344 -85.188608 
L 291.296281 -85.763819 
L 291.371967 -86.33903 
L 291.445263 -86.914241 
L 291.516881 -87.489452 
L 291.587378 -88.064663 
L 291.657172 -88.639874 
L 291.726534 -89.215085 
L 291.79559 -89.790296 
L 291.86431 -90.365508 
L 291.932503 -90.940719 
L 291.999823 -91.51593 
L 292.065783 -92.091141 
L 292.129785 -92.666352 
L 292.191172 -93.241563 
L 292.249287 -93.816774 
L 292.303549 -94.391985 
L 292.353518 -94.967196 
L 292.398966 -95.542407 
L 292.439917 -96.117618 
L 292.476669 -96.69283 
L 292.509787 -97.268041 
L 292.540062 -97.843252 
L 292.568449 -98.418463 
L 292.595981 -98.993674 
L 292.623679 -99.568885 
L 292.652457 -100.144096 
L 292.683042 -100.719307 
L 293.877867 -100.719307 
L 293.877867 -100.719307 
L 293.908452 -100.144096 
L 293.93723 -99.568885 
L 293.964928 -98.993674 
L 293.99246 -98.418463 
L 294.020847 -97.843252 
L 294.051122 -97.268041 
L 294.08424 -96.69283 
L 294.120992 -96.117618 
L 294.161943 -95.542407 
L 294.207391 -94.967196 
L 294.25736 -94.391985 
L 294.311622 -93.816774 
L 294.369737 -93.241563 
L 294.431124 -92.666352 
L 294.495126 -92.091141 
L 294.561086 -91.51593 
L 294.628406 -90.940719 
L 294.696599 -90.365508 
L 294.765319 -89.790296 
L 294.834375 -89.215085 
L 294.903737 -88.639874 
L 294.973531 -88.064663 
L 295.044028 -87.489452 
L 295.115646 -86.914241 
L 295.188942 -86.33903 
L 295.264628 -85.763819 
L 295.343565 -85.188608 
L 295.426777 -84.613397 
L 295.515438 -84.038186 
L 295.610853 -83.462974 
L 295.714422 -82.887763 
L 295.827581 -82.312552 
L 295.951735 -81.737341 
L 296.088183 -81.16213 
L 296.238044 -80.586919 
L 296.4022 -80.011708 
L 296.581254 -79.436497 
L 296.775528 -78.861286 
L 296.985081 -78.286075 
L 297.209754 -77.710864 
L 297.449239 -77.135652 
L 297.703144 -76.560441 
L 297.971054 -75.98523 
L 298.25257 -75.410019 
L 298.547307 -74.834808 
L 298.854856 -74.259597 
L 299.174712 -73.684386 
L 299.506162 -73.109175 
L 299.848168 -72.533964 
L 300.199243 -71.958753 
L 300.557363 -71.383542 
L 300.919916 -70.80833 
L 301.283714 -70.233119 
L 301.645075 -69.657908 
L 301.999962 -69.082697 
L 302.344182 -68.507486 
L 302.673615 -67.932275 
L 302.984445 -67.357064 
L 303.273368 -66.781853 
L 303.537756 -66.206642 
L 303.775742 -65.631431 
L 303.986229 -65.056219 
L 304.168825 -64.481008 
L 304.323705 -63.905797 
L 304.451435 -63.330586 
L 304.552781 -62.755375 
L 304.628533 -62.180164 
L 304.679369 -61.604953 
L 304.705774 -61.029742 
L 304.70803 -60.454531 
L 304.686261 -59.87932 
L 304.640517 -59.304109 
L 304.570897 -58.728897 
L 304.477647 -58.153686 
L 304.361252 -57.578475 
L 304.222475 -57.003264 
L 304.062344 -56.428053 
L 303.882098 -55.852842 
L 303.683091 -55.277631 
L 303.46668 -54.70242 
L 303.234119 -54.127209 
L 302.986472 -53.551998 
L 302.724566 -52.976787 
L 302.448995 -52.401575 
L 302.160163 -51.826364 
L 301.858359 -51.251153 
L 301.543857 -50.675942 
L 301.217017 -50.100731 
L 300.878369 -49.52552 
L 300.528678 -48.950309 
L 300.168977 -48.375098 
L 299.800568 -47.799887 
L 299.42501 -47.224676 
L 299.04408 -46.649465 
L 298.659747 -46.074253 
L 298.274132 -45.499042 
L 297.889492 -44.923831 
L 297.508196 -44.34862 
L 297.13271 -43.773409 
z
" style="stroke: #000000; stroke-opacity: 0.9"/>
    </defs>
    <g clip-path="url(#pbde8a2bff0)">
     <use xlink:href="#m7e9e63c427" x="0" y="312.2325" style="fill: #28ae80; fill-opacity: 0.9; stroke: #000000; stroke-opacity: 0.9"/>
    </g>
   </g>
   <g id="PolyCollection_7">
    <defs>
     <path id="m6d9130e406" d="M 340.531045 -53.575031 
L 337.45047 -53.575031 
L 337.33148 -54.515799 
L 337.21098 -55.456566 
L 337.088597 -56.397334 
L 336.963866 -57.338102 
L 336.836323 -58.278869 
L 336.705609 -59.219637 
L 336.571569 -60.160405 
L 336.434338 -61.101172 
L 336.294395 -62.04194 
L 336.152591 -62.982708 
L 336.010131 -63.923475 
L 335.868512 -64.864243 
L 335.729433 -65.805011 
L 335.594668 -66.745778 
L 335.465926 -67.686546 
L 335.344708 -68.627314 
L 335.232163 -69.568081 
L 335.128978 -70.508849 
L 335.035293 -71.449617 
L 334.95065 -72.390384 
L 334.873991 -73.331152 
L 334.803685 -74.27192 
L 334.737597 -75.212687 
L 334.673175 -76.153455 
L 334.607559 -77.094223 
L 334.537695 -78.03499 
L 334.460448 -78.975758 
L 334.372711 -79.916526 
L 334.271499 -80.857293 
L 334.154034 -81.798061 
L 334.017824 -82.738829 
L 333.860721 -83.679596 
L 333.680993 -84.620364 
L 333.477375 -85.561132 
L 333.249134 -86.501899 
L 332.996127 -87.442667 
L 332.718857 -88.383435 
L 332.418517 -89.324202 
L 332.09703 -90.26497 
L 331.757059 -91.205738 
L 331.401996 -92.146505 
L 331.035915 -93.087273 
L 330.663494 -94.028041 
L 330.289904 -94.968808 
L 329.920665 -95.909576 
L 329.561483 -96.850344 
L 329.218061 -97.791111 
L 328.895922 -98.731879 
L 328.600221 -99.672647 
L 328.335581 -100.613414 
L 328.105954 -101.554182 
L 327.914504 -102.49495 
L 327.763539 -103.435717 
L 327.654466 -104.376485 
L 327.587798 -105.317253 
L 327.563182 -106.25802 
L 327.579477 -107.198788 
L 327.63485 -108.139556 
L 327.726894 -109.080323 
L 327.852776 -110.021091 
L 328.009375 -110.961859 
L 328.193439 -111.902626 
L 328.401721 -112.843394 
L 328.631102 -113.784162 
L 328.87869 -114.724929 
L 329.141887 -115.665697 
L 329.418418 -116.606465 
L 329.706331 -117.547232 
L 330.003961 -118.488 
L 330.309869 -119.428768 
L 330.622764 -120.369535 
L 330.941426 -121.310303 
L 331.264628 -122.251071 
L 331.591078 -123.191838 
L 331.919388 -124.132606 
L 332.248064 -125.073374 
L 332.57553 -126.014141 
L 332.900176 -126.954909 
L 333.220417 -127.895677 
L 333.534771 -128.836444 
L 333.841919 -129.777212 
L 334.140767 -130.71798 
L 334.430479 -131.658747 
L 334.710495 -132.599515 
L 334.980518 -133.540283 
L 335.240481 -134.48105 
L 335.490502 -135.421818 
L 335.730821 -136.362586 
L 335.961745 -137.303353 
L 336.183587 -138.244121 
L 336.396625 -139.184889 
L 336.601064 -140.125656 
L 336.797026 -141.066424 
L 336.984541 -142.007192 
L 337.163559 -142.947959 
L 337.333967 -143.888727 
L 337.49561 -144.829495 
L 337.648315 -145.770262 
L 337.791917 -146.71103 
L 340.189598 -146.71103 
L 340.189598 -146.71103 
L 340.3332 -145.770262 
L 340.485905 -144.829495 
L 340.647548 -143.888727 
L 340.817956 -142.947959 
L 340.996974 -142.007192 
L 341.184489 -141.066424 
L 341.380451 -140.125656 
L 341.58489 -139.184889 
L 341.797928 -138.244121 
L 342.01977 -137.303353 
L 342.250694 -136.362586 
L 342.491014 -135.421818 
L 342.741034 -134.48105 
L 343.000997 -133.540283 
L 343.27102 -132.599515 
L 343.551036 -131.658747 
L 343.840748 -130.71798 
L 344.139596 -129.777212 
L 344.446744 -128.836444 
L 344.761098 -127.895677 
L 345.08134 -126.954909 
L 345.405985 -126.014141 
L 345.733451 -125.073374 
L 346.062127 -124.132606 
L 346.390437 -123.191838 
L 346.716888 -122.251071 
L 347.040089 -121.310303 
L 347.358751 -120.369535 
L 347.671646 -119.428768 
L 347.977554 -118.488 
L 348.275184 -117.547232 
L 348.563097 -116.606465 
L 348.839628 -115.665697 
L 349.102825 -114.724929 
L 349.350413 -113.784162 
L 349.579794 -112.843394 
L 349.788076 -111.902626 
L 349.97214 -110.961859 
L 350.128739 -110.021091 
L 350.254621 -109.080323 
L 350.346665 -108.139556 
L 350.402038 -107.198788 
L 350.418333 -106.25802 
L 350.393718 -105.317253 
L 350.327049 -104.376485 
L 350.217976 -103.435717 
L 350.067011 -102.49495 
L 349.875561 -101.554182 
L 349.645934 -100.613414 
L 349.381294 -99.672647 
L 349.085593 -98.731879 
L 348.763454 -97.791111 
L 348.420033 -96.850344 
L 348.06085 -95.909576 
L 347.691611 -94.968808 
L 347.318021 -94.028041 
L 346.9456 -93.087273 
L 346.579519 -92.146505 
L 346.224456 -91.205738 
L 345.884485 -90.26497 
L 345.562999 -89.324202 
L 345.262659 -88.383435 
L 344.985388 -87.442667 
L 344.732381 -86.501899 
L 344.50414 -85.561132 
L 344.300522 -84.620364 
L 344.120794 -83.679596 
L 343.963691 -82.738829 
L 343.827481 -81.798061 
L 343.710016 -80.857293 
L 343.608804 -79.916526 
L 343.521067 -78.975758 
L 343.44382 -78.03499 
L 343.373957 -77.094223 
L 343.308341 -76.153455 
L 343.243919 -75.212687 
L 343.17783 -74.27192 
L 343.107524 -73.331152 
L 343.030865 -72.390384 
L 342.946222 -71.449617 
L 342.852537 -70.508849 
L 342.749352 -69.568081 
L 342.636807 -68.627314 
L 342.515589 -67.686546 
L 342.386847 -66.745778 
L 342.252082 -65.805011 
L 342.113003 -64.864243 
L 341.971384 -63.923475 
L 341.828924 -62.982708 
L 341.687121 -62.04194 
L 341.547178 -61.101172 
L 341.409946 -60.160405 
L 341.275906 -59.219637 
L 341.145192 -58.278869 
L 341.017649 -57.338102 
L 340.892918 -56.397334 
L 340.770535 -55.456566 
L 340.650035 -54.515799 
L 340.531045 -53.575031 
z
" style="stroke: #000000; stroke-opacity: 0.9"/>
    </defs>
    <g clip-path="url(#pbde8a2bff0)">
     <use xlink:href="#m6d9130e406" x="0" y="312.2325" style="fill: #5ec962; fill-opacity: 0.9; stroke: #000000; stroke-opacity: 0.9"/>
    </g>
   </g>
   <g id="PolyCollection_8">
    <defs>
     <path id="mcbd0fe3a38" d="M 391.020326 -48.67422 
L 378.381795 -48.67422 
L 377.945252 -49.249535 
L 377.519462 -49.82485 
L 377.107404 -50.400166 
L 376.711563 -50.975481 
L 376.333924 -51.550796 
L 375.975998 -52.126111 
L 375.63888 -52.701426 
L 375.323316 -53.276742 
L 375.029785 -53.852057 
L 374.758582 -54.427372 
L 374.509894 -55.002687 
L 374.283852 -55.578002 
L 374.080573 -56.153318 
L 373.900177 -56.728633 
L 373.742773 -57.303948 
L 373.608435 -57.879263 
L 373.497155 -58.454578 
L 373.40879 -59.029894 
L 373.342997 -59.605209 
L 373.299178 -60.180524 
L 373.276426 -60.755839 
L 373.273485 -61.331154 
L 373.288727 -61.90647 
L 373.320142 -62.481785 
L 373.365353 -63.0571 
L 373.421643 -63.632415 
L 373.486009 -64.20773 
L 373.555226 -64.783046 
L 373.625935 -65.358361 
L 373.694744 -65.933676 
L 373.758341 -66.508991 
L 373.813614 -67.084306 
L 373.857792 -67.659621 
L 373.888566 -68.234937 
L 373.904226 -68.810252 
L 373.903768 -69.385567 
L 373.887001 -69.960882 
L 373.854604 -70.536197 
L 373.808169 -71.111513 
L 373.750187 -71.686828 
L 373.683995 -72.262143 
L 373.613679 -72.837458 
L 373.543925 -73.412773 
L 373.479833 -73.988089 
L 373.426706 -74.563404 
L 373.389812 -75.138719 
L 373.374146 -75.714034 
L 373.384199 -76.289349 
L 373.423751 -76.864665 
L 373.495696 -77.43998 
L 373.601922 -78.015295 
L 373.743235 -78.59061 
L 373.91934 -79.165925 
L 374.128881 -79.741241 
L 374.369523 -80.316556 
L 374.638086 -80.891871 
L 374.930696 -81.467186 
L 375.242973 -82.042501 
L 375.570213 -82.617817 
L 375.907577 -83.193132 
L 376.250266 -83.768447 
L 376.593675 -84.343762 
L 376.933529 -84.919077 
L 377.265985 -85.494393 
L 377.587711 -86.069708 
L 377.895941 -86.645023 
L 378.188501 -87.220338 
L 378.463819 -87.795653 
L 378.720915 -88.370969 
L 378.959375 -88.946284 
L 379.179321 -89.521599 
L 379.381365 -90.096914 
L 379.566556 -90.672229 
L 379.736327 -91.247545 
L 379.892426 -91.82286 
L 380.036849 -92.398175 
L 380.171765 -92.97349 
L 380.299442 -93.548805 
L 380.422159 -94.124121 
L 380.542131 -94.699436 
L 380.66143 -95.274751 
L 380.781915 -95.850066 
L 380.905164 -96.425381 
L 381.032433 -97.000697 
L 381.164613 -97.576012 
L 381.30222 -98.151327 
L 381.445396 -98.726642 
L 381.593923 -99.301957 
L 381.747263 -99.877272 
L 381.904607 -100.452588 
L 382.064929 -101.027903 
L 382.227054 -101.603218 
L 382.38972 -102.178533 
L 382.551636 -102.753848 
L 382.711542 -103.329164 
L 382.868251 -103.904479 
L 383.020684 -104.479794 
L 383.167895 -105.055109 
L 383.309081 -105.630424 
L 386.09304 -105.630424 
L 386.09304 -105.630424 
L 386.234226 -105.055109 
L 386.381437 -104.479794 
L 386.53387 -103.904479 
L 386.69058 -103.329164 
L 386.850486 -102.753848 
L 387.012402 -102.178533 
L 387.175067 -101.603218 
L 387.337192 -101.027903 
L 387.497515 -100.452588 
L 387.654858 -99.877272 
L 387.808199 -99.301957 
L 387.956725 -98.726642 
L 388.099901 -98.151327 
L 388.237509 -97.576012 
L 388.369689 -97.000697 
L 388.496957 -96.425381 
L 388.620206 -95.850066 
L 388.740691 -95.274751 
L 388.85999 -94.699436 
L 388.979963 -94.124121 
L 389.102679 -93.548805 
L 389.230356 -92.97349 
L 389.365273 -92.398175 
L 389.509695 -91.82286 
L 389.665794 -91.247545 
L 389.835565 -90.672229 
L 390.020757 -90.096914 
L 390.2228 -89.521599 
L 390.442746 -88.946284 
L 390.681207 -88.370969 
L 390.938302 -87.795653 
L 391.21362 -87.220338 
L 391.50618 -86.645023 
L 391.81441 -86.069708 
L 392.136136 -85.494393 
L 392.468592 -84.919077 
L 392.808446 -84.343762 
L 393.151855 -83.768447 
L 393.494544 -83.193132 
L 393.831908 -82.617817 
L 394.159148 -82.042501 
L 394.471425 -81.467186 
L 394.764035 -80.891871 
L 395.032598 -80.316556 
L 395.27324 -79.741241 
L 395.482781 -79.165925 
L 395.658886 -78.59061 
L 395.800199 -78.015295 
L 395.906425 -77.43998 
L 395.978371 -76.864665 
L 396.017922 -76.289349 
L 396.027975 -75.714034 
L 396.012309 -75.138719 
L 395.975416 -74.563404 
L 395.922288 -73.988089 
L 395.858196 -73.412773 
L 395.788442 -72.837458 
L 395.718126 -72.262143 
L 395.651935 -71.686828 
L 395.593952 -71.111513 
L 395.547517 -70.536197 
L 395.51512 -69.960882 
L 395.498353 -69.385567 
L 395.497896 -68.810252 
L 395.513555 -68.234937 
L 395.544329 -67.659621 
L 395.588507 -67.084306 
L 395.643781 -66.508991 
L 395.707377 -65.933676 
L 395.776186 -65.358361 
L 395.846896 -64.783046 
L 395.916112 -64.20773 
L 395.980478 -63.632415 
L 396.036768 -63.0571 
L 396.081979 -62.481785 
L 396.113395 -61.90647 
L 396.128636 -61.331154 
L 396.125695 -60.755839 
L 396.102943 -60.180524 
L 396.059124 -59.605209 
L 395.993331 -59.029894 
L 395.904966 -58.454578 
L 395.793686 -57.879263 
L 395.659348 -57.303948 
L 395.501944 -56.728633 
L 395.321548 -56.153318 
L 395.118269 -55.578002 
L 394.892227 -55.002687 
L 394.643539 -54.427372 
L 394.372337 -53.852057 
L 394.078806 -53.276742 
L 393.763241 -52.701426 
L 393.426123 -52.126111 
L 393.068197 -51.550796 
L 392.690558 -50.975481 
L 392.294717 -50.400166 
L 391.882659 -49.82485 
L 391.45687 -49.249535 
L 391.020326 -48.67422 
z
" style="stroke: #000000; stroke-opacity: 0.9"/>
    </defs>
    <g clip-path="url(#pbde8a2bff0)">
     <use xlink:href="#mcbd0fe3a38" x="0" y="312.2325" style="fill: #addc30; fill-opacity: 0.9; stroke: #000000; stroke-opacity: 0.9"/>
    </g>
   </g>
   <g id="line2d_15">
    <path d="M 54.672673 165.91524 
L 74.785206 165.91524 
" clip-path="url(#pbde8a2bff0)" style="fill: none; stroke: #ffffff; stroke-width: 2; stroke-linecap: round"/>
   </g>
   <g id="line2d_16">
    <path d="M 100.382976 232.695782 
L 120.495509 232.695782 
" clip-path="url(#pbde8a2bff0)" style="fill: none; stroke: #ffffff; stroke-width: 2; stroke-linecap: round"/>
   </g>
   <g id="line2d_17">
    <path d="M 146.093279 234.757589 
L 166.205812 234.757589 
" clip-path="url(#pbde8a2bff0)" style="fill: none; stroke: #ffffff; stroke-width: 2; stroke-linecap: round"/>
   </g>
   <g id="line2d_18">
    <path d="M 191.803582 248.802273 
L 211.916115 248.802273 
" clip-path="url(#pbde8a2bff0)" style="fill: none; stroke: #ffffff; stroke-width: 2; stroke-linecap: round"/>
   </g>
   <g id="line2d_19">
    <path d="M 237.513885 204.715848 
L 257.626418 204.715848 
" clip-path="url(#pbde8a2bff0)" style="fill: none; stroke: #ffffff; stroke-width: 2; stroke-linecap: round"/>
   </g>
   <g id="line2d_20">
    <path d="M 283.224188 250.391789 
L 303.336721 250.391789 
" clip-path="url(#pbde8a2bff0)" style="fill: none; stroke: #ffffff; stroke-width: 2; stroke-linecap: round"/>
   </g>
   <g id="line2d_21">
    <path d="M 328.934491 208.046746 
L 349.047024 208.046746 
" clip-path="url(#pbde8a2bff0)" style="fill: none; stroke: #ffffff; stroke-width: 2; stroke-linecap: round"/>
   </g>
   <g id="line2d_22">
    <path d="M 374.644794 242.282183 
L 394.757327 242.282183 
" clip-path="url(#pbde8a2bff0)" style="fill: none; stroke: #ffffff; stroke-width: 2; stroke-linecap: round"/>
   </g>
   <g id="patch_3">
    <path d="M 36.16 280.9 
L 36.16 7.2 
" style="fill: none; stroke: #cccccc; stroke-width: 1.25; stroke-linejoin: miter; stroke-linecap: square"/>
   </g>
   <g id="patch_4">
    <path d="M 413.27 280.9 
L 413.27 7.2 
" style="fill: none; stroke: #cccccc; stroke-width: 1.25; stroke-linejoin: miter; stroke-linecap: square"/>
   </g>
   <g id="patch_5">
    <path d="M 36.16 280.9 
L 413.27 280.9 
" style="fill: none; stroke: #cccccc; stroke-width: 1.25; stroke-linejoin: miter; stroke-linecap: square"/>
   </g>
   <g id="patch_6">
    <path d="M 36.16 7.2 
L 413.27 7.2 
" style="fill: none; stroke: #cccccc; stroke-width: 1.25; stroke-linejoin: miter; stroke-linecap: square"/>
   </g>
   <g id="PathCollection_1">
    <defs>
     <path id="m90db79bcd3" d="M 0 2.236068 
C 0.593012 2.236068 1.161816 2.000462 1.581139 1.581139 
C 2.000462 1.161816 2.236068 0.593012 2.236068 0 
C 2.236068 -0.593012 2.000462 -1.161816 1.581139 -1.581139 
C 1.161816 -2.000462 0.593012 -2.236068 0 -2.236068 
C -0.593012 -2.236068 -1.161816 -2.000462 -1.581139 -1.581139 
C -2.000462 -1.161816 -2.236068 -0.593012 -2.236068 0 
C -2.236068 0.593012 -2.000462 1.161816 -1.581139 1.581139 
C -1.161816 2.000462 -0.593012 2.236068 0 2.236068 
z
" style="stroke: #ffffff"/>
    </defs>
    <g clip-path="url(#pbde8a2bff0)">
     <use xlink:href="#m90db79bcd3" x="64.728939" y="165.91524" style="fill: #ffffff; stroke: #ffffff"/>
    </g>
   </g>
   <g id="PathCollection_2">
    <g clip-path="url(#pbde8a2bff0)">
     <use xlink:href="#m90db79bcd3" x="110.439242" y="232.695782" style="fill: #ffffff; stroke: #ffffff"/>
    </g>
   </g>
   <g id="PathCollection_3">
    <g clip-path="url(#pbde8a2bff0)">
     <use xlink:href="#m90db79bcd3" x="156.149545" y="234.757589" style="fill: #ffffff; stroke: #ffffff"/>
    </g>
   </g>
   <g id="PathCollection_4">
    <g clip-path="url(#pbde8a2bff0)">
     <use xlink:href="#m90db79bcd3" x="201.859848" y="248.802273" style="fill: #ffffff; stroke: #ffffff"/>
    </g>
   </g>
   <g id="PathCollection_5">
    <g clip-path="url(#pbde8a2bff0)">
     <use xlink:href="#m90db79bcd3" x="247.570152" y="204.715848" style="fill: #ffffff; stroke: #ffffff"/>
    </g>
   </g>
   <g id="PathCollection_6">
    <g clip-path="url(#pbde8a2bff0)">
     <use xlink:href="#m90db79bcd3" x="293.280455" y="250.391789" style="fill: #ffffff; stroke: #ffffff"/>
    </g>
   </g>
   <g id="PathCollection_7">
    <g clip-path="url(#pbde8a2bff0)">
     <use xlink:href="#m90db79bcd3" x="338.990758" y="208.046746" style="fill: #ffffff; stroke: #ffffff"/>
    </g>
   </g>
   <g id="PathCollection_8">
    <g clip-path="url(#pbde8a2bff0)">
     <use xlink:href="#m90db79bcd3" x="384.701061" y="242.282183" style="fill: #ffffff; stroke: #ffffff"/>
    </g>
   </g>
   <g id="legend_1">
    <g id="patch_7">
     <path d="M 325.915312 143.909844 
L 406.27 143.909844 
Q 408.27 143.909844 408.27 141.909844 
L 408.27 14.2 
Q 408.27 12.2 406.27 12.2 
L 325.915312 12.2 
Q 323.915312 12.2 323.915312 14.2 
L 323.915312 141.909844 
Q 323.915312 143.909844 325.915312 143.909844 
z
" style="fill: #ffffff; opacity: 0.8; stroke: #cccccc; stroke-linejoin: miter"/>
    </g>
    <g id="text_15">
     <!-- Methods -->
     <g style="fill: #262626" transform="translate(344.999297 24.073594) scale(0.11 -0.11)">
      <defs>
       <path id="ArialMT-4d" d="M 475 0 
L 475 4581 
L 1388 4581 
L 2472 1338 
Q 2622 884 2691 659 
Q 2769 909 2934 1394 
L 4031 4581 
L 4847 4581 
L 4847 0 
L 4263 0 
L 4263 3834 
L 2931 0 
L 2384 0 
L 1059 3900 
L 1059 0 
L 475 0 
z
" transform="scale(0.015625)"/>
       <path id="ArialMT-65" d="M 2694 1069 
L 3275 997 
Q 3138 488 2766 206 
Q 2394 -75 1816 -75 
Q 1088 -75 661 373 
Q 234 822 234 1631 
Q 234 2469 665 2931 
Q 1097 3394 1784 3394 
Q 2450 3394 2872 2941 
Q 3294 2488 3294 1666 
Q 3294 1616 3291 1516 
L 816 1516 
Q 847 969 1125 678 
Q 1403 388 1819 388 
Q 2128 388 2347 550 
Q 2566 713 2694 1069 
z
M 847 1978 
L 2700 1978 
Q 2663 2397 2488 2606 
Q 2219 2931 1791 2931 
Q 1403 2931 1139 2672 
Q 875 2413 847 1978 
z
" transform="scale(0.015625)"/>
       <path id="ArialMT-74" d="M 1650 503 
L 1731 6 
Q 1494 -44 1306 -44 
Q 1000 -44 831 53 
Q 663 150 594 308 
Q 525 466 525 972 
L 525 2881 
L 113 2881 
L 113 3319 
L 525 3319 
L 525 4141 
L 1084 4478 
L 1084 3319 
L 1650 3319 
L 1650 2881 
L 1084 2881 
L 1084 941 
Q 1084 700 1114 631 
Q 1144 563 1211 522 
Q 1278 481 1403 481 
Q 1497 481 1650 503 
z
" transform="scale(0.015625)"/>
       <path id="ArialMT-68" d="M 422 0 
L 422 4581 
L 984 4581 
L 984 2938 
Q 1378 3394 1978 3394 
Q 2347 3394 2619 3248 
Q 2891 3103 3008 2847 
Q 3125 2591 3125 2103 
L 3125 0 
L 2563 0 
L 2563 2103 
Q 2563 2525 2380 2717 
Q 2197 2909 1863 2909 
Q 1613 2909 1392 2779 
Q 1172 2650 1078 2428 
Q 984 2206 984 1816 
L 984 0 
L 422 0 
z
" transform="scale(0.015625)"/>
       <path id="ArialMT-6f" d="M 213 1659 
Q 213 2581 725 3025 
Q 1153 3394 1769 3394 
Q 2453 3394 2887 2945 
Q 3322 2497 3322 1706 
Q 3322 1066 3130 698 
Q 2938 331 2570 128 
Q 2203 -75 1769 -75 
Q 1072 -75 642 372 
Q 213 819 213 1659 
z
M 791 1659 
Q 791 1022 1069 705 
Q 1347 388 1769 388 
Q 2188 388 2466 706 
Q 2744 1025 2744 1678 
Q 2744 2294 2464 2611 
Q 2184 2928 1769 2928 
Q 1347 2928 1069 2612 
Q 791 2297 791 1659 
z
" transform="scale(0.015625)"/>
       <path id="ArialMT-64" d="M 2575 0 
L 2575 419 
Q 2259 -75 1647 -75 
Q 1250 -75 917 144 
Q 584 363 401 755 
Q 219 1147 219 1656 
Q 219 2153 384 2558 
Q 550 2963 881 3178 
Q 1213 3394 1622 3394 
Q 1922 3394 2156 3267 
Q 2391 3141 2538 2938 
L 2538 4581 
L 3097 4581 
L 3097 0 
L 2575 0 
z
M 797 1656 
Q 797 1019 1065 703 
Q 1334 388 1700 388 
Q 2069 388 2326 689 
Q 2584 991 2584 1609 
Q 2584 2291 2321 2609 
Q 2059 2928 1675 2928 
Q 1300 2928 1048 2622 
Q 797 2316 797 1656 
z
" transform="scale(0.015625)"/>
       <path id="ArialMT-73" d="M 197 991 
L 753 1078 
Q 800 744 1014 566 
Q 1228 388 1613 388 
Q 2000 388 2187 545 
Q 2375 703 2375 916 
Q 2375 1106 2209 1216 
Q 2094 1291 1634 1406 
Q 1016 1563 777 1677 
Q 538 1791 414 1992 
Q 291 2194 291 2438 
Q 291 2659 392 2848 
Q 494 3038 669 3163 
Q 800 3259 1026 3326 
Q 1253 3394 1513 3394 
Q 1903 3394 2198 3281 
Q 2494 3169 2634 2976 
Q 2775 2784 2828 2463 
L 2278 2388 
Q 2241 2644 2061 2787 
Q 1881 2931 1553 2931 
Q 1166 2931 1000 2803 
Q 834 2675 834 2503 
Q 834 2394 903 2306 
Q 972 2216 1119 2156 
Q 1203 2125 1616 2013 
Q 2213 1853 2448 1751 
Q 2684 1650 2818 1456 
Q 2953 1263 2953 975 
Q 2953 694 2789 445 
Q 2625 197 2315 61 
Q 2006 -75 1616 -75 
Q 969 -75 630 194 
Q 291 463 197 991 
z
" transform="scale(0.015625)"/>
      </defs>
      <use xlink:href="#ArialMT-4d"/>
      <use xlink:href="#ArialMT-65" x="83.300781"/>
      <use xlink:href="#ArialMT-74" x="138.916016"/>
      <use xlink:href="#ArialMT-68" x="166.699219"/>
      <use xlink:href="#ArialMT-6f" x="222.314453"/>
      <use xlink:href="#ArialMT-64" x="277.929688"/>
      <use xlink:href="#ArialMT-73" x="333.544922"/>
     </g>
    </g>
    <g id="line2d_23">
     <defs>
      <path id="m74a7e783f2" d="M -3 3 
L 3 3 
L 3 -3 
L -3 -3 
z
" style="stroke: #440154; stroke-linejoin: miter"/>
     </defs>
     <g>
      <use xlink:href="#m74a7e783f2" x="337.915312" y="35.039531" style="fill: #440154; stroke: #440154; stroke-linejoin: miter"/>
     </g>
    </g>
    <g id="text_16">
     <!-- -STCVAE -->
     <g style="fill: #262626" transform="translate(355.915312 38.539531) scale(0.1 -0.1)">
      <defs>
       <path id="ArialMT-3b2" d="M 997 422 
L 997 -1272 
L 438 -1272 
L 438 3144 
Q 438 3672 580 3970 
Q 722 4269 1069 4464 
Q 1416 4659 1841 4659 
Q 2469 4659 2792 4298 
Q 3116 3938 3116 3509 
Q 3116 3091 2855 2834 
Q 2594 2578 2256 2519 
Q 2800 2466 3095 2128 
Q 3391 1791 3391 1297 
Q 3391 766 3042 345 
Q 2694 -75 2034 -75 
Q 1359 -75 997 422 
z
M 1494 2700 
Q 2069 2700 2331 2900 
Q 2594 3100 2594 3478 
Q 2594 3784 2370 3990 
Q 2147 4197 1813 4197 
Q 1522 4197 1308 4044 
Q 1094 3891 1045 3703 
Q 997 3516 997 3047 
L 997 1788 
Q 997 1250 1072 997 
Q 1147 744 1394 541 
Q 1641 338 1963 338 
Q 2353 338 2579 605 
Q 2806 872 2806 1266 
Q 2806 1591 2639 1848 
Q 2472 2106 2226 2198 
Q 1981 2291 1575 2291 
L 1494 2291 
L 1494 2700 
z
" transform="scale(0.015625)"/>
       <path id="ArialMT-2d" d="M 203 1375 
L 203 1941 
L 1931 1941 
L 1931 1375 
L 203 1375 
z
" transform="scale(0.015625)"/>
       <path id="ArialMT-53" d="M 288 1472 
L 859 1522 
Q 900 1178 1048 958 
Q 1197 738 1509 602 
Q 1822 466 2213 466 
Q 2559 466 2825 569 
Q 3091 672 3220 851 
Q 3350 1031 3350 1244 
Q 3350 1459 3225 1620 
Q 3100 1781 2813 1891 
Q 2628 1963 1997 2114 
Q 1366 2266 1113 2400 
Q 784 2572 623 2826 
Q 463 3081 463 3397 
Q 463 3744 659 4045 
Q 856 4347 1234 4503 
Q 1613 4659 2075 4659 
Q 2584 4659 2973 4495 
Q 3363 4331 3572 4012 
Q 3781 3694 3797 3291 
L 3216 3247 
Q 3169 3681 2898 3903 
Q 2628 4125 2100 4125 
Q 1550 4125 1298 3923 
Q 1047 3722 1047 3438 
Q 1047 3191 1225 3031 
Q 1400 2872 2139 2705 
Q 2878 2538 3153 2413 
Q 3553 2228 3743 1945 
Q 3934 1663 3934 1294 
Q 3934 928 3725 604 
Q 3516 281 3123 101 
Q 2731 -78 2241 -78 
Q 1619 -78 1198 103 
Q 778 284 539 648 
Q 300 1013 288 1472 
z
" transform="scale(0.015625)"/>
       <path id="ArialMT-54" d="M 1659 0 
L 1659 4041 
L 150 4041 
L 150 4581 
L 3781 4581 
L 3781 4041 
L 2266 4041 
L 2266 0 
L 1659 0 
z
" transform="scale(0.015625)"/>
       <path id="ArialMT-43" d="M 3763 1606 
L 4369 1453 
Q 4178 706 3683 314 
Q 3188 -78 2472 -78 
Q 1731 -78 1267 223 
Q 803 525 561 1097 
Q 319 1669 319 2325 
Q 319 3041 592 3573 
Q 866 4106 1370 4382 
Q 1875 4659 2481 4659 
Q 3169 4659 3637 4309 
Q 4106 3959 4291 3325 
L 3694 3184 
Q 3534 3684 3231 3912 
Q 2928 4141 2469 4141 
Q 1941 4141 1586 3887 
Q 1231 3634 1087 3207 
Q 944 2781 944 2328 
Q 944 1744 1114 1308 
Q 1284 872 1643 656 
Q 2003 441 2422 441 
Q 2931 441 3284 734 
Q 3638 1028 3763 1606 
z
" transform="scale(0.015625)"/>
       <path id="ArialMT-56" d="M 1803 0 
L 28 4581 
L 684 4581 
L 1875 1253 
Q 2019 853 2116 503 
Q 2222 878 2363 1253 
L 3600 4581 
L 4219 4581 
L 2425 0 
L 1803 0 
z
" transform="scale(0.015625)"/>
       <path id="ArialMT-41" d="M -9 0 
L 1750 4581 
L 2403 4581 
L 4278 0 
L 3588 0 
L 3053 1388 
L 1138 1388 
L 634 0 
L -9 0 
z
M 1313 1881 
L 2866 1881 
L 2388 3150 
Q 2169 3728 2063 4100 
Q 1975 3659 1816 3225 
L 1313 1881 
z
" transform="scale(0.015625)"/>
       <path id="ArialMT-45" d="M 506 0 
L 506 4581 
L 3819 4581 
L 3819 4041 
L 1113 4041 
L 1113 2638 
L 3647 2638 
L 3647 2100 
L 1113 2100 
L 1113 541 
L 3925 541 
L 3925 0 
L 506 0 
z
" transform="scale(0.015625)"/>
      </defs>
      <use xlink:href="#ArialMT-3b2"/>
      <use xlink:href="#ArialMT-2d" x="57.519531"/>
      <use xlink:href="#ArialMT-53" x="90.820312"/>
      <use xlink:href="#ArialMT-54" x="157.519531"/>
      <use xlink:href="#ArialMT-43" x="218.603516"/>
      <use xlink:href="#ArialMT-56" x="290.820312"/>
      <use xlink:href="#ArialMT-41" x="350.144531"/>
      <use xlink:href="#ArialMT-45" x="416.84375"/>
     </g>
    </g>
    <g id="line2d_24">
     <defs>
      <path id="m89ea34b9f3" d="M -3 3 
L 3 3 
L 3 -3 
L -3 -3 
z
" style="stroke: #472d7b; stroke-linejoin: miter"/>
     </defs>
     <g>
      <use xlink:href="#m89ea34b9f3" x="337.915312" y="49.306719" style="fill: #472d7b; stroke: #472d7b; stroke-linejoin: miter"/>
     </g>
    </g>
    <g id="text_17">
     <!-- -TCVAE -->
     <g style="fill: #262626" transform="translate(355.915312 52.806719) scale(0.1 -0.1)">
      <use xlink:href="#ArialMT-3b2"/>
      <use xlink:href="#ArialMT-2d" x="57.519531"/>
      <use xlink:href="#ArialMT-54" x="90.820312"/>
      <use xlink:href="#ArialMT-43" x="151.904297"/>
      <use xlink:href="#ArialMT-56" x="224.121094"/>
      <use xlink:href="#ArialMT-41" x="283.445312"/>
      <use xlink:href="#ArialMT-45" x="350.144531"/>
     </g>
    </g>
    <g id="line2d_25">
     <defs>
      <path id="m2f6dd5cea9" d="M -3 3 
L 3 3 
L 3 -3 
L -3 -3 
z
" style="stroke: #3b528b; stroke-linejoin: miter"/>
     </defs>
     <g>
      <use xlink:href="#m2f6dd5cea9" x="337.915312" y="63.573906" style="fill: #3b528b; stroke: #3b528b; stroke-linejoin: miter"/>
     </g>
    </g>
    <g id="text_18">
     <!-- -TCVAE -->
     <g style="fill: #262626" transform="translate(355.915312 67.073906) scale(0.1 -0.1)">
      <use xlink:href="#ArialMT-3b2"/>
      <use xlink:href="#ArialMT-2d" x="57.519531"/>
      <use xlink:href="#ArialMT-54" x="90.820312"/>
      <use xlink:href="#ArialMT-43" x="151.904297"/>
      <use xlink:href="#ArialMT-56" x="224.121094"/>
      <use xlink:href="#ArialMT-41" x="283.445312"/>
      <use xlink:href="#ArialMT-45" x="350.144531"/>
     </g>
    </g>
    <g id="line2d_26">
     <defs>
      <path id="mb9c112bc4b" d="M -3 3 
L 3 3 
L 3 -3 
L -3 -3 
z
" style="stroke: #2c728e; stroke-linejoin: miter"/>
     </defs>
     <g>
      <use xlink:href="#mb9c112bc4b" x="337.915312" y="77.841094" style="fill: #2c728e; stroke: #2c728e; stroke-linejoin: miter"/>
     </g>
    </g>
    <g id="text_19">
     <!-- VAE -->
     <g style="fill: #262626" transform="translate(355.915312 81.341094) scale(0.1 -0.1)">
      <use xlink:href="#ArialMT-3b2"/>
      <use xlink:href="#ArialMT-56" x="57.519531"/>
      <use xlink:href="#ArialMT-41" x="116.84375"/>
      <use xlink:href="#ArialMT-45" x="183.542969"/>
     </g>
    </g>
    <g id="line2d_27">
     <defs>
      <path id="mde0cca7638" d="M -3 3 
L 3 3 
L 3 -3 
L -3 -3 
z
" style="stroke: #21918c; stroke-linejoin: miter"/>
     </defs>
     <g>
      <use xlink:href="#mde0cca7638" x="337.915312" y="91.986406" style="fill: #21918c; stroke: #21918c; stroke-linejoin: miter"/>
     </g>
    </g>
    <g id="text_20">
     <!-- FactorVAE -->
     <g style="fill: #262626" transform="translate(355.915312 95.486406) scale(0.1 -0.1)">
      <defs>
       <path id="ArialMT-46" d="M 525 0 
L 525 4581 
L 3616 4581 
L 3616 4041 
L 1131 4041 
L 1131 2622 
L 3281 2622 
L 3281 2081 
L 1131 2081 
L 1131 0 
L 525 0 
z
" transform="scale(0.015625)"/>
       <path id="ArialMT-61" d="M 2588 409 
Q 2275 144 1986 34 
Q 1697 -75 1366 -75 
Q 819 -75 525 192 
Q 231 459 231 875 
Q 231 1119 342 1320 
Q 453 1522 633 1644 
Q 813 1766 1038 1828 
Q 1203 1872 1538 1913 
Q 2219 1994 2541 2106 
Q 2544 2222 2544 2253 
Q 2544 2597 2384 2738 
Q 2169 2928 1744 2928 
Q 1347 2928 1158 2789 
Q 969 2650 878 2297 
L 328 2372 
Q 403 2725 575 2942 
Q 747 3159 1072 3276 
Q 1397 3394 1825 3394 
Q 2250 3394 2515 3294 
Q 2781 3194 2906 3042 
Q 3031 2891 3081 2659 
Q 3109 2516 3109 2141 
L 3109 1391 
Q 3109 606 3145 398 
Q 3181 191 3288 0 
L 2700 0 
Q 2613 175 2588 409 
z
M 2541 1666 
Q 2234 1541 1622 1453 
Q 1275 1403 1131 1340 
Q 988 1278 909 1158 
Q 831 1038 831 891 
Q 831 666 1001 516 
Q 1172 366 1500 366 
Q 1825 366 2078 508 
Q 2331 650 2450 897 
Q 2541 1088 2541 1459 
L 2541 1666 
z
" transform="scale(0.015625)"/>
       <path id="ArialMT-63" d="M 2588 1216 
L 3141 1144 
Q 3050 572 2676 248 
Q 2303 -75 1759 -75 
Q 1078 -75 664 370 
Q 250 816 250 1647 
Q 250 2184 428 2587 
Q 606 2991 970 3192 
Q 1334 3394 1763 3394 
Q 2303 3394 2647 3120 
Q 2991 2847 3088 2344 
L 2541 2259 
Q 2463 2594 2264 2762 
Q 2066 2931 1784 2931 
Q 1359 2931 1093 2626 
Q 828 2322 828 1663 
Q 828 994 1084 691 
Q 1341 388 1753 388 
Q 2084 388 2306 591 
Q 2528 794 2588 1216 
z
" transform="scale(0.015625)"/>
       <path id="ArialMT-72" d="M 416 0 
L 416 3319 
L 922 3319 
L 922 2816 
Q 1116 3169 1280 3281 
Q 1444 3394 1641 3394 
Q 1925 3394 2219 3213 
L 2025 2691 
Q 1819 2813 1613 2813 
Q 1428 2813 1281 2702 
Q 1134 2591 1072 2394 
Q 978 2094 978 1738 
L 978 0 
L 416 0 
z
" transform="scale(0.015625)"/>
      </defs>
      <use xlink:href="#ArialMT-46"/>
      <use xlink:href="#ArialMT-61" x="61.083984"/>
      <use xlink:href="#ArialMT-63" x="116.699219"/>
      <use xlink:href="#ArialMT-74" x="166.699219"/>
      <use xlink:href="#ArialMT-6f" x="194.482422"/>
      <use xlink:href="#ArialMT-72" x="250.097656"/>
      <use xlink:href="#ArialMT-56" x="283.398438"/>
      <use xlink:href="#ArialMT-41" x="342.722656"/>
      <use xlink:href="#ArialMT-45" x="409.421875"/>
     </g>
    </g>
    <g id="line2d_28">
     <defs>
      <path id="mc9f38e260a" d="M -3 3 
L 3 3 
L 3 -3 
L -3 -3 
z
" style="stroke: #28ae80; stroke-linejoin: miter"/>
     </defs>
     <g>
      <use xlink:href="#mc9f38e260a" x="337.915312" y="106.131719" style="fill: #28ae80; stroke: #28ae80; stroke-linejoin: miter"/>
     </g>
    </g>
    <g id="text_21">
     <!-- DIP-I -->
     <g style="fill: #262626" transform="translate(355.915312 109.631719) scale(0.1 -0.1)">
      <defs>
       <path id="ArialMT-44" d="M 494 0 
L 494 4581 
L 2072 4581 
Q 2606 4581 2888 4516 
Q 3281 4425 3559 4188 
Q 3922 3881 4101 3404 
Q 4281 2928 4281 2316 
Q 4281 1794 4159 1391 
Q 4038 988 3847 723 
Q 3656 459 3429 307 
Q 3203 156 2883 78 
Q 2563 0 2147 0 
L 494 0 
z
M 1100 541 
L 2078 541 
Q 2531 541 2789 625 
Q 3047 709 3200 863 
Q 3416 1078 3536 1442 
Q 3656 1806 3656 2325 
Q 3656 3044 3420 3430 
Q 3184 3816 2847 3947 
Q 2603 4041 2063 4041 
L 1100 4041 
L 1100 541 
z
" transform="scale(0.015625)"/>
       <path id="ArialMT-49" d="M 597 0 
L 597 4581 
L 1203 4581 
L 1203 0 
L 597 0 
z
" transform="scale(0.015625)"/>
       <path id="ArialMT-50" d="M 494 0 
L 494 4581 
L 2222 4581 
Q 2678 4581 2919 4538 
Q 3256 4481 3484 4323 
Q 3713 4166 3852 3881 
Q 3991 3597 3991 3256 
Q 3991 2672 3619 2267 
Q 3247 1863 2275 1863 
L 1100 1863 
L 1100 0 
L 494 0 
z
M 1100 2403 
L 2284 2403 
Q 2872 2403 3119 2622 
Q 3366 2841 3366 3238 
Q 3366 3525 3220 3729 
Q 3075 3934 2838 4000 
Q 2684 4041 2272 4041 
L 1100 4041 
L 1100 2403 
z
" transform="scale(0.015625)"/>
      </defs>
      <use xlink:href="#ArialMT-44"/>
      <use xlink:href="#ArialMT-49" x="72.216797"/>
      <use xlink:href="#ArialMT-50" x="100"/>
      <use xlink:href="#ArialMT-2d" x="166.699219"/>
      <use xlink:href="#ArialMT-49" x="200"/>
     </g>
    </g>
    <g id="line2d_29">
     <defs>
      <path id="mcd073206a2" d="M -3 3 
L 3 3 
L 3 -3 
L -3 -3 
z
" style="stroke: #5ec962; stroke-linejoin: miter"/>
     </defs>
     <g>
      <use xlink:href="#mcd073206a2" x="337.915312" y="120.277031" style="fill: #5ec962; stroke: #5ec962; stroke-linejoin: miter"/>
     </g>
    </g>
    <g id="text_22">
     <!-- VQVAE -->
     <g style="fill: #262626" transform="translate(355.915312 123.777031) scale(0.1 -0.1)">
      <defs>
       <path id="ArialMT-51" d="M 3966 491 
Q 4388 200 4744 66 
L 4566 -356 
Q 4072 -178 3581 206 
Q 3072 -78 2456 -78 
Q 1834 -78 1328 222 
Q 822 522 548 1065 
Q 275 1609 275 2291 
Q 275 2969 550 3525 
Q 825 4081 1333 4372 
Q 1841 4663 2469 4663 
Q 3103 4663 3612 4361 
Q 4122 4059 4389 3517 
Q 4656 2975 4656 2294 
Q 4656 1728 4484 1276 
Q 4313 825 3966 491 
z
M 2631 1266 
Q 3156 1119 3497 828 
Q 4031 1316 4031 2294 
Q 4031 2850 3842 3265 
Q 3653 3681 3289 3911 
Q 2925 4141 2472 4141 
Q 1794 4141 1347 3677 
Q 900 3213 900 2291 
Q 900 1397 1342 919 
Q 1784 441 2472 441 
Q 2797 441 3084 563 
Q 2800 747 2484 825 
L 2631 1266 
z
" transform="scale(0.015625)"/>
      </defs>
      <use xlink:href="#ArialMT-56"/>
      <use xlink:href="#ArialMT-51" x="66.699219"/>
      <use xlink:href="#ArialMT-56" x="144.482422"/>
      <use xlink:href="#ArialMT-41" x="203.806641"/>
      <use xlink:href="#ArialMT-45" x="270.505859"/>
     </g>
    </g>
    <g id="line2d_30">
     <defs>
      <path id="md6f95d3a33" d="M -3 3 
L 3 3 
L 3 -3 
L -3 -3 
z
" style="stroke: #addc30; stroke-linejoin: miter"/>
     </defs>
     <g>
      <use xlink:href="#md6f95d3a33" x="337.915312" y="134.422344" style="fill: #addc30; stroke: #addc30; stroke-linejoin: miter"/>
     </g>
    </g>
    <g id="text_23">
     <!-- QLVAE -->
     <g style="fill: #262626" transform="translate(355.915312 137.922344) scale(0.1 -0.1)">
      <defs>
       <path id="ArialMT-4c" d="M 469 0 
L 469 4581 
L 1075 4581 
L 1075 541 
L 3331 541 
L 3331 0 
L 469 0 
z
" transform="scale(0.015625)"/>
      </defs>
      <use xlink:href="#ArialMT-51"/>
      <use xlink:href="#ArialMT-4c" x="77.783203"/>
      <use xlink:href="#ArialMT-56" x="126.023438"/>
      <use xlink:href="#ArialMT-41" x="185.347656"/>
      <use xlink:href="#ArialMT-45" x="252.046875"/>
     </g>
    </g>
   </g>
  </g>
 </g>
 <defs>
  <clipPath id="pbde8a2bff0">
   <rect x="36.16" y="7.2" width="377.11" height="273.7"/>
  </clipPath>
 </defs>
</svg>
